<svg width="14" height="15" viewBox="0 0 14 15" fill="none" xmlns="http://www.w3.org/2000/svg">
<path d="M6.99999 13.7708C3.54082 13.7708 0.729156 10.9592 0.729156 7.5C0.729156 4.04084 3.54082 1.22917 6.99999 1.22917C10.4592 1.22917 13.2708 4.04084 13.2708 7.5C13.2708 10.9592 10.4592 13.7708 6.99999 13.7708ZM6.99999 2.10417C4.02499 2.10417 1.60416 4.52501 1.60416 7.5C1.60416 10.475 4.02499 12.8958 6.99999 12.8958C9.97499 12.8958 12.3958 10.475 12.3958 7.5C12.3958 4.52501 9.97499 2.10417 6.99999 2.10417Z" fill="#979A9E"/>
<path d="M9.16418 9.7925C9.08834 9.7925 9.01251 9.775 8.94251 9.72833L7.13417 8.64916C6.68501 8.38083 6.35251 7.79166 6.35251 7.2725V4.88083C6.35251 4.64166 6.55084 4.44333 6.79001 4.44333C7.02918 4.44333 7.22751 4.64166 7.22751 4.88083V7.2725C7.22751 7.4825 7.40251 7.79166 7.58334 7.89666L9.39168 8.97583C9.60168 9.09833 9.66584 9.36666 9.54334 9.57666C9.45584 9.71666 9.31001 9.7925 9.16418 9.7925Z" fill="#979A9E"/>
</svg>
