<svg width="14" height="15" viewBox="0 0 14 15" fill="none" xmlns="http://www.w3.org/2000/svg">
<path d="M6.99999 8.76583C5.75749 8.76583 4.74249 7.75667 4.74249 6.50833C4.74249 5.26 5.75749 4.25667 6.99999 4.25667C8.24249 4.25667 9.25749 5.26583 9.25749 6.51417C9.25749 7.7625 8.24249 8.76583 6.99999 8.76583ZM6.99999 5.13167C6.24166 5.13167 5.61749 5.75 5.61749 6.51417C5.61749 7.27833 6.23583 7.89667 6.99999 7.89667C7.76416 7.89667 8.38249 7.27833 8.38249 6.51417C8.38249 5.75 7.75833 5.13167 6.99999 5.13167Z" fill="#979A9E"/>
<path d="M7.00001 13.7767C6.13668 13.7767 5.26751 13.45 4.59084 12.8025C2.87001 11.1458 0.968345 8.50334 1.68584 5.35917C2.33334 2.50667 4.82418 1.22917 7.00001 1.22917C7.00001 1.22917 7.00001 1.22917 7.00585 1.22917C9.18168 1.22917 11.6725 2.50667 12.32 5.36501C13.0317 8.50917 11.13 11.1458 9.40918 12.8025C8.73251 13.45 7.86335 13.7767 7.00001 13.7767ZM7.00001 2.10417C5.30251 2.10417 3.12084 3.00834 2.54334 5.55167C1.91334 8.29917 3.64001 10.6675 5.20334 12.1667C6.21251 13.1408 7.79335 13.1408 8.80251 12.1667C10.36 10.6675 12.0867 8.29917 11.4683 5.55167C10.885 3.00834 8.69751 2.10417 7.00001 2.10417Z" fill="#979A9E"/>
</svg>
