<svg width="42" height="18" viewBox="0 0 42 18" fill="none" xmlns="http://www.w3.org/2000/svg">
<path d="M0 0H40.9777C41.3938 0 41.6278 0.478541 41.3724 0.80697L35.2388 8.69303C35.0983 8.87359 35.0983 9.12642 35.2388 9.30697L41.3724 17.193C41.6278 17.5215 41.3938 18 40.9777 18H0V0Z" fill="#F8A62B"/>
<path d="M18.38 5.62H16.11C16.01 5.3 15.91 5.01 15.8 4.75L14.82 4.91C14.94 5.13 15.04 5.36 15.14 5.62H12.96V7.79H13.77V8.38H17.59V7.79H18.38V5.62ZM13.88 7.53V6.52H17.47V7.53H13.88ZM13.01 9.3V10.2H14.27C14.21 11.01 14.07 11.61 13.85 12C13.57 12.47 13.11 12.88 12.47 13.22L13.08 14C13.84 13.56 14.38 13.04 14.7 12.44C14.96 11.95 15.12 11.2 15.2 10.2H15.93V12.87C15.93 13.15 16.01 13.39 16.17 13.59C16.31 13.78 16.52 13.88 16.81 13.88H17.61C17.95 13.87 18.18 13.79 18.32 13.64C18.45 13.47 18.55 12.92 18.63 12L17.77 11.7C17.74 12.44 17.69 12.85 17.62 12.93C17.57 12.99 17.5 13.03 17.42 13.03H17.11C16.95 13.03 16.87 12.9 16.87 12.65V10.2H18.46V9.3H13.01ZM9.71 5.14V14.04H10.63V6.03H11.8C11.58 6.83 11.27 7.74 10.88 8.74C11.47 9.58 11.77 10.33 11.77 11C11.77 11.18 11.73 11.3 11.66 11.38C11.58 11.44 11.42 11.49 11.2 11.51C11.06 11.51 10.88 11.49 10.68 11.45L10.99 12.42C11.67 12.41 12.14 12.28 12.41 12.02C12.59 11.81 12.69 11.47 12.69 11C12.65 10.31 12.35 9.51 11.8 8.6C12.16 7.65 12.47 6.74 12.73 5.88V5.14H9.71ZM23.65 14C24.27 14 24.59 13.67 24.59 13.03V10.52C25.38 10.46 26.1 10.39 26.76 10.31C26.99 10.65 27.2 10.98 27.38 11.3L28.14 10.77C27.7 10.05 27.06 9.2 26.23 8.24L25.53 8.68C25.77 8.97 25.99 9.26 26.21 9.55C25.18 9.67 23.97 9.78 22.58 9.87C23.75 9.21 25.13 8.2 26.72 6.82L25.84 6.39C25.39 6.8 24.95 7.18 24.53 7.53C23.83 7.58 23.13 7.62 22.43 7.66C22.99 7.26 23.53 6.76 24.05 6.16C25.49 6.06 26.75 5.9 27.81 5.67L27.34 4.88C25.37 5.26 22.95 5.46 20.09 5.46L20.37 6.28C21.25 6.28 22.08 6.26 22.87 6.23C22.31 6.85 21.83 7.26 21.43 7.46C21.23 7.55 21.02 7.61 20.79 7.63L20.99 8.47C21.89 8.42 22.75 8.36 23.55 8.3C22.67 8.95 21.86 9.43 21.12 9.75C20.88 9.83 20.6 9.89 20.3 9.92L20.56 10.75C21.66 10.7 22.68 10.65 23.64 10.59V12.8C23.64 13.02 23.53 13.13 23.32 13.13C23 13.13 22.66 13.11 22.3 13.07L22.52 14H23.65ZM25.94 10.98L25.31 11.6C26.36 12.39 27.18 13.13 27.76 13.82L28.44 13.14C27.77 12.42 26.94 11.7 25.94 10.98ZM21.95 11.05C21.29 11.79 20.47 12.44 19.51 13L20.11 13.78C21.11 13.17 21.94 12.46 22.62 11.65L21.95 11.05Z" fill="white"/>
</svg>
