<svg width="42" height="18" viewBox="0 0 42 18" fill="none" xmlns="http://www.w3.org/2000/svg">
<path d="M0 0H40.9777C41.3938 0 41.6278 0.478541 41.3724 0.80697L35.2388 8.69303C35.0983 8.87359 35.0983 9.12642 35.2388 9.30697L41.3724 17.193C41.6278 17.5215 41.3938 18 40.9777 18H0V0Z" fill="#F8A62B"/>
<path d="M9.58 6.66V7.57H10.82C10.51 8.71 10.01 9.72 9.31 10.62L9.71 11.65C10.17 10.93 10.55 10.14 10.86 9.28V13.98H11.81V9.17C12.05 9.57 12.32 10.08 12.63 10.68L13.13 9.96L13.34 10.11C13.52 9.89 13.71 9.66 13.89 9.42C14.06 10.34 14.44 11.17 15.04 11.89C14.41 12.52 13.58 12.97 12.54 13.24L13.09 14.09C14.15 13.79 15.03 13.29 15.73 12.59C16.37 13.15 17.19 13.63 18.19 14.03L18.68 13.18C17.73 12.82 16.94 12.38 16.32 11.86C16.8 11.14 17.14 10.25 17.33 9.21L16.43 9.03C16.28 9.85 16.01 10.57 15.62 11.17C15.12 10.56 14.81 9.87 14.69 9.1L13.96 9.32C14.33 8.79 14.67 8.2 14.97 7.56L14.18 7.17C13.78 8.02 13.3 8.76 12.74 9.4C12.42 9.01 12.11 8.65 11.81 8.31V7.57H12.77V6.66H11.81V4.82H10.86V6.66H9.58ZM12.97 6.01V6.93H18.41V6.01H16.24C16.07 5.53 15.89 5.09 15.71 4.71L14.75 4.87C14.95 5.22 15.13 5.6 15.29 6.01H12.97ZM16.94 7.12L16.2 7.58C16.9 8.48 17.46 9.3 17.87 10.04L18.66 9.5C18.26 8.82 17.68 8.02 16.94 7.12ZM22.48 11.78C21.59 12.12 20.55 12.4 19.37 12.6L19.49 13.52C20.61 13.31 21.6 13.03 22.48 12.68V11.78ZM21.14 4.77C20.76 5.83 20.31 6.8 19.8 7.68C19.68 7.85 19.55 7.96 19.4 8.02L19.64 8.89C20.16 8.83 20.67 8.76 21.17 8.69C20.68 9.45 20.27 9.98 19.95 10.29C19.83 10.41 19.69 10.5 19.52 10.56L19.77 11.42C20.75 11.3 21.78 11.08 22.86 10.76V9.9C22.2 10.1 21.56 10.27 20.93 10.39C21.51 9.7 22.24 8.6 23.11 7.1L22.28 6.79C22.08 7.16 21.88 7.51 21.69 7.83C21.31 7.89 20.92 7.93 20.53 7.97C21.05 7.24 21.55 6.29 22.05 5.13L21.14 4.77ZM23.88 6.03V6.46C23.86 9.64 23.22 11.94 21.97 13.38L22.68 14C23.62 12.92 24.25 11.4 24.57 9.46C24.85 10.3 25.24 11.07 25.73 11.77C25.19 12.33 24.52 12.8 23.72 13.18L24.25 14.05C25.07 13.67 25.78 13.17 26.37 12.56C26.85 13.1 27.42 13.59 28.08 14.03L28.69 13.23C28.03 12.83 27.45 12.37 26.95 11.86C27.61 10.94 28.05 9.79 28.27 8.43V7.9H27.03C27.18 7.29 27.33 6.57 27.49 5.73V5.14H22.97V6.03H23.88ZM26.29 11.11C25.53 10.12 25.02 8.97 24.76 7.66C24.78 7.28 24.8 6.88 24.8 6.46V6.03H26.52C26.3 7.21 26.11 8.11 25.94 8.73H27.32C27.13 9.62 26.79 10.41 26.29 11.11Z" fill="white"/>
</svg>
