<svg width="42" height="18" viewBox="0 0 42 18" fill="none" xmlns="http://www.w3.org/2000/svg">
<path d="M0 0H40.9777C41.3938 0 41.6278 0.478541 41.3724 0.80697L35.2388 8.69303C35.0983 8.87359 35.0983 9.12642 35.2388 9.30697L41.3724 17.193C41.6278 17.5215 41.3938 18 40.9777 18H0V0Z" fill="#F8A62B"/>
<path d="M18.32 6.63L16.19 7.29V4.8H15.27V7.57L14.05 7.94V5.82H13.12V8.23L12.42 8.44V9.37L13.12 9.16V12.73C13.12 13.47 13.49 13.85 14.24 13.85H17.41C17.78 13.85 18.06 13.75 18.25 13.56C18.45 13.36 18.58 12.73 18.66 11.69L17.78 11.41C17.74 12.17 17.68 12.61 17.59 12.75C17.51 12.89 17.39 12.96 17.23 12.96H14.53C14.21 12.96 14.05 12.82 14.05 12.54V8.88L15.27 8.51V11.9H16.19V8.23L17.41 7.87C17.4 9.04 17.38 9.72 17.34 9.9C17.3 10.1 17.18 10.21 16.99 10.21C16.84 10.21 16.67 10.2 16.47 10.19L16.75 11.12H16.79C17.59 11.12 18.04 10.89 18.15 10.45C18.26 10 18.32 8.73 18.32 6.63ZM12.54 10.84C12.18 11.01 11.81 11.17 11.44 11.31V8.3H12.4V7.38H11.44V4.86H10.51V7.38H9.45V8.3H10.51V11.63C10.12 11.74 9.72 11.84 9.32 11.92L9.56 12.88C10.62 12.58 11.61 12.22 12.54 11.79V10.84ZM19.58 6.2V7.12H22.33C22.31 7.42 22.29 7.85 22.27 8.4C22.22 9.34 22.03 10.19 21.69 10.95C21.35 11.71 20.65 12.53 19.59 13.42L20.28 14.08C21.16 13.36 21.85 12.57 22.34 11.71C22.7 11.07 22.94 10.36 23.08 9.59H26.35C26.33 10.97 26.3 11.84 26.24 12.18C26.12 12.78 25.85 13.08 25.43 13.1C25.07 13.1 24.62 13.08 24.09 13.06L24.37 13.92C24.81 13.95 25.2 13.97 25.52 13.97C26.31 13.95 26.81 13.54 27.03 12.74C27.19 12.19 27.28 10.84 27.31 8.69H23.19L23.27 7.12H28.47V6.2H24.76C24.54 5.64 24.29 5.16 24.02 4.75L23.12 5.08C23.38 5.44 23.6 5.81 23.79 6.2H19.58Z" fill="white"/>
</svg>
