<svg width="44" height="44" viewBox="0 0 44 44" fill="none" xmlns="http://www.w3.org/2000/svg">
<g clip-path="url(#clip0_104_1022)">
<path d="M9.98851 24.4019C9.66576 24.6905 9.3296 24.9712 8.99067 25.2412L8.506 23.3782L9.61315 23.0902L9.36113 22.1214L8.25398 22.4094L7.77486 20.5677L6.78481 20.8253L7.26393 22.667L5.80548 23.0464L6.0575 24.0152L7.51596 23.6358L8.10032 25.882C7.60725 26.2149 7.09244 26.5079 6.56146 26.7824L7.07729 27.7167C7.50692 27.4458 7.93379 27.1642 8.35789 26.872L8.98379 29.278C9.05303 29.5441 8.95064 29.7185 8.69514 29.785C8.41836 29.857 8.12539 29.9105 7.80558 29.9482L8.29181 30.856L9.2925 30.5957C9.97383 30.4184 10.2203 29.9679 10.0375 29.2652L9.24546 26.2206C9.58716 25.9612 9.91545 25.6939 10.2488 25.4026L9.98851 24.4019ZM11.6268 24.9759L12.0952 24.8541C12.5203 25.7892 13.1709 26.586 14.071 27.2498C13.7671 27.829 13.3451 28.3479 12.8052 28.8066L13.5248 29.5628C14.1203 29.0556 14.6056 28.4746 14.9596 27.8256C15.5337 28.1536 16.1847 28.4276 16.9286 28.6659L17.405 27.7009C16.6295 27.5162 15.9494 27.2612 15.3434 26.9415C15.655 26.0421 15.7519 25.0166 15.637 23.8758L15.4099 23.0029L11.3859 24.0498L10.6353 21.1648L13.6161 20.3893C13.7416 20.9591 13.7932 21.3321 13.7602 21.5112C13.724 21.6343 13.6476 21.7337 13.5494 21.7933C13.4272 21.8479 13.2384 21.9084 12.9935 21.9721C12.738 22.0385 12.533 22.0805 12.3733 22.122L12.8772 22.923L13.6756 22.7153C14.3889 22.5297 14.7621 22.2167 14.7952 21.7761C14.815 21.3277 14.6735 20.478 14.3467 19.2218L9.43904 20.4985L11.8984 29.9519L12.8565 29.7026L11.6268 24.9759ZM13.0001 24.6187L14.7034 24.1755C14.7269 24.9651 14.6459 25.7022 14.4442 26.3685C13.8072 25.8863 13.3268 25.3066 13.0001 24.6187ZM21.7076 26.7634L26.2107 25.592L26.3575 26.1562L27.3795 25.8903L26.1747 21.2594L22.0974 22.3202C23.6639 20.9579 24.6159 19.5054 24.9561 17.9734L24.7235 17.0792L20.7314 18.1177C20.8459 17.8151 20.9363 17.5075 21.0134 17.1919L19.873 17.3522C19.5195 18.6149 18.5469 19.8567 16.9471 21.0913L17.8556 21.787C18.8242 20.9667 19.574 20.1351 20.1262 19.2867L23.8096 18.3285C23.5406 19.2168 23.0046 20.0837 22.1882 20.9213C21.6548 20.6622 20.9612 20.3993 20.097 20.1355L19.3653 20.9055C20.1972 21.1323 20.8958 21.3711 21.4371 21.6168C20.3888 22.4805 19.0226 23.302 17.3334 24.1051L18.1205 24.946C18.7496 24.6119 19.344 24.2754 19.8931 23.9393L20.843 27.5908L21.8544 27.3277L21.7076 26.7634ZM25.9559 24.6126L21.4528 25.784L20.8934 23.6336L25.3965 22.4621L25.9559 24.6126ZM30.8352 14.4889L31.3144 16.3306L27.5352 17.3138L28.8728 22.4557L29.8842 22.1926L29.7263 21.5858L32.4942 20.8657L33.422 24.432L34.4652 24.1606L33.5374 20.5943L36.316 19.8714L36.4738 20.4782L37.4852 20.2151L36.1475 15.0733L32.3576 16.0592L31.8785 14.2175L30.8352 14.4889ZM29.4687 20.5957L28.8041 18.0408L31.5719 17.3207L32.2366 19.8756L29.4687 20.5957ZM33.2799 19.6042L32.6152 17.0493L35.3937 16.3264L36.0584 18.8814L33.2799 19.6042Z" fill="#42CC9A"/>
<path d="M33.5024 35.3216L32.446 35.8493L32.6219 34.7062L31.8301 33.9146L32.9742 33.7388L33.5024 32.6839L34.03 33.7388L35.1768 33.914L34.2968 34.7057L34.5609 35.8488L33.5024 35.3216ZM18.6297 39.2781L18.0138 40.2455L17.5739 39.1911L16.5175 38.9272L17.398 38.1361L17.3098 36.993L18.2779 37.6959L19.3338 37.2563L19.0697 38.3118L19.7738 39.2792L18.6297 39.2781ZM26.6381 39.4539L25.7581 40.245L25.6699 39.1019L24.6141 38.4865L25.7581 38.0469L25.934 36.9038L26.7263 37.783L27.8703 37.6073L27.2539 38.6622L27.7821 39.7177L26.6381 39.4539ZM25.4951 6.3922L24.351 6.65608L24.8782 5.60164L24.2618 4.63426L25.4058 4.7224L26.1981 3.84317L26.4633 4.98521L27.5191 5.42482L26.4633 6.04018L26.375 7.1833L25.4951 6.3922ZM11.0629 10.2617L10.7096 11.4059L10.0937 10.4385H8.86143L9.5655 9.55928L9.21374 8.41616L10.3578 8.76764L11.2377 8.06415V9.29379L12.2059 9.90915L11.0629 10.2617ZM17.7497 6.30406L16.8698 7.0957L16.7816 5.95258L15.8134 5.42482L16.8693 4.89707L17.0451 3.75395L17.838 4.63426L18.982 4.54666L18.4538 5.51404L18.8938 6.56901L17.7497 6.30406ZM8.68555 17.3832C10.1814 13.1628 13.7017 9.64419 18.3672 8.41455C20.5845 7.82838 22.9106 7.78614 25.1477 8.29143C27.3848 8.79672 29.4666 9.83458 31.2159 11.3167L30.1595 11.5806C26.9914 9.11859 22.7675 8.06307 18.6313 9.20619C16.6618 9.74854 14.8436 10.7364 13.3173 12.0933C11.7911 13.4501 10.5977 15.1397 9.8296 17.0312L8.68555 17.3832ZM12.8218 32.6833L13.8771 32.4194C17.0451 34.8814 21.2696 35.9364 25.4053 34.7933C27.3752 34.2512 29.1938 33.2634 30.7203 31.9064C32.2469 30.5494 33.4405 28.8595 34.2086 26.9677L35.265 26.7039C33.7686 30.9243 30.2488 34.4429 25.5833 35.6725C20.9178 36.9022 16.1668 35.6725 12.8229 32.6833H12.8218Z" fill="#42CC9A"/>
<path d="M27.254 41.5638C37.9904 38.6617 44.412 27.5831 41.5075 16.7678C38.603 6.04018 27.5154 -0.376207 16.6912 2.52592C5.9548 5.42805 -0.466847 16.5066 2.43766 27.3219C5.34216 38.1372 16.4298 44.4659 27.254 41.5638ZM27.6939 43.2347C15.9899 46.4002 3.93348 39.4539 0.765415 27.6712C-2.40265 15.8886 4.54934 3.92969 16.3416 0.764758C28.0462 -2.40071 40.1021 4.54558 43.2707 16.3282C46.3505 28.1109 39.398 40.1574 27.6939 43.2347Z" fill="#42CC9A"/>
</g>
<defs>
<clipPath id="clip0_104_1022">
<rect width="44" height="44" fill="white"/>
</clipPath>
</defs>
</svg>
