<svg width="44" height="44" viewBox="0 0 44 44" fill="none" xmlns="http://www.w3.org/2000/svg">
<g clip-path="url(#clip0_104_1050)">
<path d="M7.28945 23.9447L7.51932 24.8283L10.6066 24.0252L10.817 24.8342L6.54814 25.9448L6.77524 26.8178L13.333 25.1117L13.549 25.9421L7.61935 27.4847L7.84922 28.3683L13.7788 26.8257L14.0973 28.0499C14.1583 28.2841 14.0425 28.4507 13.7444 28.5282C13.3186 28.639 12.8525 28.7261 12.3517 28.811L12.8245 29.7109L14.3256 29.3204C15.0495 29.1321 15.3334 28.6945 15.159 28.0238L14.7795 26.5654L16.2912 26.1721L16.0614 25.2885L14.5497 25.6818L14.3336 24.8514L16.3031 24.3391L16.076 23.4661L11.8177 24.5739L11.6073 23.7648L14.6519 22.9728L14.422 22.0892L11.3774 22.8813L11.2361 22.3383L10.2354 22.5987L10.3767 23.1416L7.28945 23.9447ZM9.83104 28.0346L9.14426 28.7588C9.82566 29.1499 10.3789 29.5288 10.8146 29.8928L11.4611 29.1449C11.055 28.8073 10.5152 28.4363 9.83104 28.0346ZM7.41505 22.2867L7.62797 22.2313C8.00445 22.5426 8.35732 22.894 8.67036 23.2672L9.49726 22.6884C9.27622 22.4504 9.00982 22.2128 8.69253 21.9544L10.332 21.5279L10.1132 20.6869L7.56886 21.3488C7.58288 21.1405 7.60755 20.9295 7.62157 20.7213L6.60808 20.7576C6.56349 21.6785 6.33197 22.5798 5.90838 23.4857L6.92534 23.8121C7.12882 23.3273 7.29206 22.8188 7.41505 22.2867ZM11.7289 21.1304L12.2292 21.0002C12.6113 21.3327 12.9613 21.6736 13.285 22.044L14.0721 21.4869C13.8617 21.2461 13.5898 20.9872 13.2619 20.7315L14.9758 20.2857L14.757 19.4446L11.8507 20.2007C11.8675 20.0031 11.8709 19.7977 11.8849 19.5894L10.8849 19.6336C10.8816 20.4074 10.726 21.1639 10.4423 21.9083L11.4084 22.214C11.5359 21.8739 11.6472 21.5153 11.7289 21.1304ZM17.8925 17.822C17.6816 18.9339 17.1955 19.9924 16.4312 20.9868L16.9707 21.8808C18.0044 20.6116 18.643 19.3089 18.8706 17.9994L17.8925 17.822ZM18.9155 20.1814C18.6878 21.4909 18.1474 22.734 17.2914 23.9001L17.8281 24.7834C18.1417 24.3722 18.4312 23.9559 18.6939 23.5239L19.8127 27.8247L20.7815 27.5727L19.3746 22.1647C19.6091 21.5808 19.7822 20.9789 19.883 20.3616L18.9155 20.1814ZM21.8878 16.8394L22.1675 17.9146L19.8787 18.51L20.1196 19.4362L22.4085 18.8408L22.6937 19.9373L20.0217 20.6324L20.2654 21.5692L26.6528 19.9075L26.409 18.9707L23.6625 19.6852L23.3772 18.5887L25.6873 17.9878L25.4464 17.0616L23.1363 17.6626L22.8565 16.5874L21.8878 16.8394ZM20.5743 22.6255L20.8207 23.573L24.8661 22.5205L25.456 24.7881C25.5446 25.1287 25.4214 25.354 25.0914 25.4399C24.6549 25.5534 24.1916 25.6512 23.6908 25.736L24.177 26.6439L25.6887 26.2506C26.4446 26.054 26.7253 25.5604 26.5204 24.7726L25.8668 22.2602L27.0272 21.9583L26.7807 21.0109L25.6203 21.3127L25.4375 20.6101L24.4368 20.8705L24.6196 21.5731L20.5743 22.6255ZM22.2739 23.4791L21.6163 24.1844C22.3328 24.6231 22.9184 25.039 23.3837 25.4295L24.0275 24.671C23.5946 24.3176 23.0145 23.9229 22.2739 23.4791ZM30.8352 14.4889L31.3144 16.3306L27.5352 17.3138L28.8728 22.4557L29.8842 22.1926L29.7263 21.5858L32.4942 20.8657L33.422 24.432L34.4652 24.1606L33.5374 20.5943L36.316 19.8714L36.4738 20.4782L37.4852 20.2151L36.1475 15.0733L32.3576 16.0592L31.8785 14.2175L30.8352 14.4889ZM29.4687 20.5957L28.8041 18.0408L31.5719 17.3207L32.2366 19.8756L29.4687 20.5957ZM33.2799 19.6042L32.6152 17.0493L35.3937 16.3264L36.0584 18.8814L33.2799 19.6042Z" fill="#F8A62B"/>
<path d="M33.5024 35.3216L32.446 35.8493L32.6219 34.7062L31.8301 33.9146L32.9742 33.7388L33.5024 32.6839L34.03 33.7388L35.1768 33.914L34.2968 34.7057L34.5609 35.8488L33.5024 35.3216ZM18.6297 39.2781L18.0138 40.2455L17.5739 39.1911L16.5175 38.9272L17.398 38.1361L17.3098 36.993L18.2779 37.6959L19.3338 37.2563L19.0697 38.3118L19.7738 39.2792L18.6297 39.2781ZM26.6381 39.4539L25.7581 40.245L25.6699 39.1019L24.6141 38.4865L25.7581 38.0469L25.934 36.9038L26.7263 37.783L27.8703 37.6073L27.2539 38.6622L27.7821 39.7177L26.6381 39.4539ZM25.4951 6.3922L24.351 6.65608L24.8782 5.60164L24.2618 4.63426L25.4058 4.7224L26.1981 3.84317L26.4633 4.98521L27.5191 5.42482L26.4633 6.04018L26.375 7.1833L25.4951 6.3922ZM11.0629 10.2617L10.7096 11.4059L10.0937 10.4385H8.86143L9.5655 9.55928L9.21374 8.41616L10.3578 8.76764L11.2377 8.06415V9.29379L12.2059 9.90915L11.0629 10.2617ZM17.7497 6.30406L16.8698 7.0957L16.7816 5.95258L15.8134 5.42482L16.8693 4.89707L17.0451 3.75395L17.838 4.63426L18.982 4.54666L18.4538 5.51404L18.8938 6.56901L17.7497 6.30406ZM8.68555 17.3832C10.1814 13.1628 13.7017 9.64419 18.3672 8.41455C20.5845 7.82838 22.9106 7.78614 25.1477 8.29143C27.3848 8.79672 29.4666 9.83458 31.2159 11.3167L30.1595 11.5806C26.9914 9.11859 22.7675 8.06307 18.6313 9.20619C16.6618 9.74854 14.8436 10.7364 13.3173 12.0933C11.7911 13.4501 10.5977 15.1397 9.8296 17.0312L8.68555 17.3832ZM12.8218 32.6833L13.8771 32.4194C17.0451 34.8814 21.2696 35.9364 25.4053 34.7933C27.3752 34.2512 29.1938 33.2634 30.7203 31.9064C32.2469 30.5494 33.4405 28.8595 34.2086 26.9677L35.265 26.7039C33.7686 30.9243 30.2488 34.4429 25.5833 35.6725C20.9178 36.9022 16.1668 35.6725 12.8229 32.6833H12.8218Z" fill="#F8A62B"/>
<path d="M27.254 41.5638C37.9904 38.6617 44.412 27.5831 41.5075 16.7678C38.603 6.04018 27.5154 -0.376207 16.6912 2.52592C5.9548 5.42805 -0.466847 16.5066 2.43766 27.3219C5.34216 38.1372 16.4298 44.4659 27.254 41.5638ZM27.6939 43.2347C15.9899 46.4002 3.93348 39.4539 0.765415 27.6712C-2.40265 15.8886 4.54934 3.92969 16.3416 0.764758C28.0462 -2.40071 40.1021 4.54558 43.2707 16.3282C46.3505 28.1109 39.398 40.1574 27.6939 43.2347Z" fill="#F8A62B"/>
</g>
<defs>
<clipPath id="clip0_104_1050">
<rect width="44" height="44" fill="white"/>
</clipPath>
</defs>
</svg>
