<svg width="44" height="44" viewBox="0 0 44 44" fill="none" xmlns="http://www.w3.org/2000/svg">
<g clip-path="url(#clip0_104_1078)">
<path d="M15.0321 23.9536L13.8689 19.4825L5.81017 21.579L6.06219 22.5477L13.0883 20.7199L13.7475 23.2535L8.17979 24.702L7.80036 23.2435L6.77838 23.5094L8.21852 29.0451C8.46224 29.9819 9.03121 30.334 9.93609 30.0986L15.8125 28.5699C16.2434 28.435 16.5509 28.2187 16.7454 27.918C16.9053 27.615 16.8785 26.7695 16.6573 25.3949L15.5842 25.3331C15.8111 26.4675 15.8708 27.1339 15.7421 27.3379C15.6262 27.5044 15.4619 27.6154 15.2703 27.6652L9.95809 29.0472C9.55355 29.1525 9.29866 29.0028 9.19342 28.5983L8.43181 25.6707L15.0321 23.9536ZM21.7491 24.9568C20.7629 25.6225 19.5657 26.2636 18.1682 26.8772L18.5508 27.8234C19.871 27.2185 21.0122 26.5806 21.9983 25.9149L21.7491 24.9568ZM17.6425 17.9097C17.5639 19.1804 17.3725 20.3669 17.0894 21.4634C17.0088 21.6777 16.9036 21.8414 16.7712 21.9441L17.257 22.8065C17.8097 22.5718 18.3545 22.3505 18.8674 22.1375C18.5729 23.1462 18.2943 23.8665 18.0478 24.3171C17.9505 24.4674 17.8264 24.602 17.6648 24.7236L18.1663 25.5592C19.1949 25.1439 20.2434 24.587 21.3305 23.8722L21.0951 22.9674C20.4377 23.4112 19.7664 23.8018 19.0919 24.1364C19.5099 23.2093 19.9473 21.7884 20.4201 19.8922L19.4535 19.8027C19.343 20.252 19.2483 20.6745 19.1509 21.0863C18.7417 21.2609 18.3403 21.4222 17.9469 21.57C18.2687 20.6224 18.5083 19.4462 18.6841 18.0252L17.6425 17.9097ZM19.9471 18.6855L20.2019 19.6649L22.661 19.0251L23.01 20.3665L20.9021 20.9148L21.1569 21.8942L26.4159 20.5261L26.1611 19.5467L24.0213 20.1034L23.6723 18.762L26.1208 18.125L25.866 17.1456L23.4175 17.7826L23.1046 16.5797L22.0933 16.8428L22.4062 18.0457L19.9471 18.6855ZM26.4083 21.4146L21.6284 22.6581L22.7805 27.0867L23.7706 26.8292L23.6598 26.4033L26.4703 25.6722L26.581 26.098L27.5604 25.8432L26.4083 21.4146ZM23.4106 25.4452L22.8677 23.3587L25.6782 22.6275L26.221 24.7141L23.4106 25.4452ZM27.0428 16.6008L27.2948 17.5696L31.3721 16.5089L31.5909 17.3499L28.2801 18.2112L29.1137 21.4155L31.6261 20.7619C31.1097 22.0101 30.1232 23.1988 28.6638 24.3173L29.493 25.1018C31.022 23.7265 32.0083 22.231 32.4383 20.6074L33.4104 24.3441L34.4324 24.0782L33.4603 20.3416C34.5166 21.4307 36.0746 22.2643 38.1345 22.8423L38.5966 21.7787C36.6911 21.4447 35.237 20.8796 34.2343 20.0834L36.7786 19.4215L35.945 16.2171L32.6129 17.084L32.3941 16.243L36.4501 15.1878L36.198 14.219L32.142 15.2742L31.8873 14.2948L30.8653 14.5607L31.1201 15.5401L27.0428 16.6008ZM35.5263 18.7584L33.2055 19.3622L32.8593 18.0315L35.1801 17.4277L35.5263 18.7584ZM32.1836 19.628L29.8841 20.2262L29.5379 18.8955L31.8374 18.2973L32.1836 19.628Z" fill="#C5CACF"/>
<path d="M33.5024 35.3215L32.446 35.8493L32.6219 34.7062L31.8301 33.9146L32.9742 33.7388L33.5024 32.6838L34.03 33.7388L35.1768 33.914L34.2968 34.7057L34.5609 35.8488L33.5024 35.3215ZM18.6297 39.2781L18.0138 40.2455L17.5739 39.1911L16.5175 38.9272L17.398 38.1361L17.3098 36.993L18.2779 37.6959L19.3338 37.2563L19.0697 38.3118L19.7738 39.2792L18.6297 39.2781ZM26.6381 39.4539L25.7581 40.245L25.6699 39.1018L24.6141 38.4865L25.7581 38.0469L25.934 36.9037L26.7263 37.783L27.8703 37.6072L27.2539 38.6622L27.7821 39.7177L26.6381 39.4539ZM25.4951 6.39218L24.351 6.65606L24.8782 5.60162L24.2618 4.63425L25.4058 4.72239L26.1981 3.84315L26.4633 4.98519L27.5191 5.42481L26.4633 6.04017L26.375 7.18328L25.4951 6.39218ZM11.0629 10.2617L10.7096 11.4059L10.0937 10.4385H8.86143L9.5655 9.55926L9.21374 8.41615L10.3578 8.76763L11.2377 8.06413V9.29377L12.2059 9.90913L11.0629 10.2617ZM17.7497 6.30405L16.8698 7.09568L16.7816 5.95257L15.8134 5.42481L16.8693 4.89705L17.0451 3.75394L17.838 4.63425L18.982 4.54665L18.4538 5.51402L18.8938 6.569L17.7497 6.30405ZM8.68555 17.3832C10.1814 13.1627 13.7017 9.64418 18.3672 8.41454C20.5845 7.82836 22.9106 7.78612 25.1477 8.29141C27.3848 8.7967 29.4666 9.83456 31.2159 11.3167L30.1595 11.5805C26.9914 9.11857 22.7675 8.06306 18.6313 9.20617C16.6618 9.74852 14.8436 10.7364 13.3173 12.0932C11.7911 13.4501 10.5977 15.1397 9.8296 17.0312L8.68555 17.3832ZM12.8218 32.6833L13.8771 32.4194C17.0451 34.8814 21.2696 35.9364 25.4053 34.7933C27.3752 34.2511 29.1938 33.2633 30.7203 31.9063C32.2469 30.5493 33.4405 28.8595 34.2086 26.9677L35.265 26.7038C33.7686 30.9243 30.2488 34.4429 25.5833 35.6725C20.9178 36.9021 16.1668 35.6725 12.8229 32.6833H12.8218Z" fill="#C5CACF"/>
<path d="M27.254 41.5638C37.9904 38.6617 44.412 27.5831 41.5075 16.7678C38.603 6.04018 27.5154 -0.376207 16.6912 2.52592C5.9548 5.42805 -0.466847 16.5066 2.43766 27.3219C5.34216 38.1372 16.4298 44.4659 27.254 41.5638ZM27.6939 43.2347C15.9899 46.4002 3.93348 39.4539 0.765415 27.6712C-2.40265 15.8886 4.54934 3.92969 16.3416 0.764758C28.0462 -2.40071 40.1021 4.54558 43.2707 16.3282C46.3505 28.1109 39.398 40.1574 27.6939 43.2347Z" fill="#C5CACF"/>
</g>
<defs>
<clipPath id="clip0_104_1078">
<rect width="44" height="44" fill="white"/>
</clipPath>
</defs>
</svg>
