<svg width="128" height="128" viewBox="0 0 128 128" fill="none" xmlns="http://www.w3.org/2000/svg">
<path fill-rule="evenodd" clip-rule="evenodd" d="M126.55 68.4L127.21 69.4L127.43 70.52L127.21 71.64L126.55 72.64L79.1801 120.02L78.17 120.68L77.05 120.89L75.9301 120.68L74.9301 120.02L74.2701 119.01L74.05 117.89L74.2701 116.77L74.9301 115.77L122.31 68.4L123.31 67.73L124.43 67.52L125.55 67.73L126.55 68.4Z" fill="url(#paint0_linear_67_1491)"/>
<path fill-rule="evenodd" clip-rule="evenodd" d="M0.880001 61.31L0.209999 60.31L0 59.19L0.209999 58.07L0.880001 57.06L20.68 37.26L21.68 36.6L22.8 36.39L23.92 36.6L24.92 37.26L25.58 38.27L25.8 39.39L25.58 40.51L24.92 41.51L5.12 61.31L4.12 61.97L3 62.19L1.88 61.97L0.880001 61.31Z" fill="url(#paint1_linear_67_1491)"/>
<path fill-rule="evenodd" clip-rule="evenodd" d="M52.18 34.75L51.51 33.75L51.3 32.63L51.51 31.51L52.18 30.51L74.8 7.88L75.81 7.22L76.9301 7L78.05 7.22L79.05 7.88L79.7101 8.88L79.9301 10L79.7101 11.12L79.05 12.13L56.4201 34.75L55.4201 35.42L54.3 35.63L53.18 35.42L52.18 34.75Z" fill="url(#paint2_linear_67_1491)"/>
<path fill-rule="evenodd" clip-rule="evenodd" d="M36.1899 23.59H64.6499H93.1099L94.4799 23.78L95.6499 24.27L96.6699 25.06L97.4599 26.08L97.9499 27.25L98.1399 28.62V101.56L97.9499 102.93L97.4599 104.1L96.6699 105.12L95.6499 105.91L94.4799 106.4L93.1099 106.59H36.1899L34.8199 106.4L33.6499 105.91L32.6299 105.12L31.8399 104.1L31.3499 102.93L31.1599 101.56V65.09V44.34V28.62L31.3499 27.25L31.8399 26.08L32.6299 25.06L33.6499 24.27L34.8199 23.78L36.1899 23.59Z" fill="url(#paint3_linear_67_1491)"/>
<path fill-rule="evenodd" clip-rule="evenodd" d="M38.73 28.62H90.57L91.56 28.82L92.35 29.36L92.89 30.15L93.09 31.14V99.05L92.89 100.03L92.35 100.82L91.56 101.36L90.57 101.56H38.73L37.74 101.36L36.95 100.82L36.42 100.03L36.22 99.05V44.63V31.13L36.42 30.15L36.95 29.36L37.74 28.82L38.73 28.62Z" fill="#F7F8FA"/>
<path fill-rule="evenodd" clip-rule="evenodd" d="M28.6599 43.69H39.6599L40.6399 43.89L41.4299 44.42L41.9599 45.21L42.1599 46.19L41.9599 47.17L41.4299 47.96L40.6399 48.49L39.6599 48.69H28.6599L27.6799 48.49L26.8899 47.96L26.3599 47.17L26.1599 46.19L26.3599 45.21L26.8899 44.42L27.6799 43.89L28.6599 43.69Z" fill="#E6E8EA"/>
<path fill-rule="evenodd" clip-rule="evenodd" d="M28.6599 61.69H39.6599L40.6399 61.89L41.4299 62.42L41.9599 63.21L42.1599 64.19L41.9599 65.17L41.4299 65.96L40.6399 66.49L39.6599 66.69H28.6599L27.6799 66.49L26.8899 65.96L26.3599 65.17L26.1599 64.19L26.3599 63.21L26.8899 62.42L27.6799 61.89L28.6599 61.69Z" fill="#E6E8EA"/>
<path fill-rule="evenodd" clip-rule="evenodd" d="M28.6599 80.69H39.6599L40.6399 80.89L41.4299 81.42L41.9599 82.21L42.1599 83.19L41.9599 84.17L41.4299 84.96L40.6399 85.49L39.6599 85.69H28.6599L27.6799 85.49L26.8899 84.96L26.3599 84.17L26.1599 83.19L26.3599 82.21L26.8899 81.42L27.6799 80.89L28.6599 80.69Z" fill="#E6E8EA"/>
<path fill-rule="evenodd" clip-rule="evenodd" d="M64.9099 47.69L66.5899 47.86L68.1399 48.31L69.5799 49.06L71.4399 50.61L72.8999 52.64L73.5799 54.19L73.9999 55.86L74.1599 57.69L73.9499 60.03L73.8899 60.34L73.8199 60.71L73.7299 61.08L72.9199 63.71L72.7699 64.08L72.6199 64.45L72.1799 65.41L72.0299 65.72L71.8399 66.07L70.8199 67.45L69.6599 68.62V69.86L69.8599 70.47L70.3899 70.83L78.0699 73.02L79.7399 73.81L81.0199 75.05L81.8599 76.62L82.1599 78.44L81.8199 80.11L80.9199 81.45L79.5799 82.35L77.9099 82.69H51.4099L49.7399 82.35L48.3999 81.45L47.4999 80.11L47.1599 78.44L47.4599 76.62L48.2999 75.05L49.5799 73.81L51.2499 73.02L58.9299 70.83L59.4599 70.47L59.6599 69.86V68.62L58.0699 66.25L57.9799 66.07L57.7899 65.72L57.3399 64.78L57.1999 64.45L57.0499 64.08L56.1799 61.45L56.0899 61.08L55.9999 60.71L55.9299 60.34L55.6599 57.69L55.8199 55.86L56.2399 54.19L56.9199 52.64L58.3799 50.61L60.2399 49.06L61.6799 48.31L63.2299 47.86L64.9099 47.69Z" fill="#E6E7EA"/>
<defs>
<linearGradient id="paint0_linear_67_1491" x1="100.787" y1="119.872" x2="100.74" y2="70.4452" gradientUnits="userSpaceOnUse">
<stop stop-color="#EEEEEE" stop-opacity="0.19813"/>
<stop offset="1" stop-color="#E4E6E9"/>
</linearGradient>
<linearGradient id="paint1_linear_67_1491" x1="12.9" y1="36.39" x2="12.9" y2="62.19" gradientUnits="userSpaceOnUse">
<stop stop-color="#EEEEEE" stop-opacity="0.2"/>
<stop offset="1" stop-color="#E4E6E9"/>
</linearGradient>
<linearGradient id="paint2_linear_67_1491" x1="65.615" y1="7" x2="65.615" y2="35.63" gradientUnits="userSpaceOnUse">
<stop stop-color="#EEEEEE" stop-opacity="0.2"/>
<stop offset="1" stop-color="#E4E6E9"/>
</linearGradient>
<linearGradient id="paint3_linear_67_1491" x1="45.7896" y1="23.59" x2="91.1315" y2="94.0331" gradientUnits="userSpaceOnUse">
<stop stop-color="#F5F6F7"/>
<stop offset="1" stop-color="#E7E9EB"/>
</linearGradient>
</defs>
</svg>
