<svg width="32" height="32" viewBox="0 0 32 32" fill="none" xmlns="http://www.w3.org/2000/svg">
<path d="M18.5039 12.5902C18.1737 12.9204 17.7817 13.1823 17.3503 13.361C16.9189 13.5397 16.4566 13.6317 15.9896 13.6317C15.5227 13.6317 15.0603 13.5397 14.6289 13.361C14.1976 13.1823 13.8056 12.9204 13.4754 12.5902L12.2185 11.3324L14.7323 8.8187L10.839 4.92532C10.6723 4.75868 10.4462 4.66507 10.2105 4.66507C9.97484 4.66507 9.74879 4.75868 9.5821 4.92532L2.03982 12.4675C1.87317 12.6342 1.77955 12.8603 1.77955 13.096C1.77955 13.3317 1.87317 13.5577 2.03982 13.7244L15.3607 27.0463C15.5274 27.2129 15.7535 27.3065 15.9892 27.3065C16.2249 27.3065 16.4509 27.2129 16.6176 27.0463L17.247 26.4178L15.3607 24.5325C15.276 24.4505 15.2084 24.3524 15.1619 24.244C15.1154 24.1356 15.091 24.019 15.09 23.9011C15.0891 23.7831 15.1116 23.6661 15.1563 23.557C15.201 23.4478 15.2669 23.3486 15.3503 23.2652C15.4337 23.1818 15.5329 23.1159 15.6421 23.0712C15.7512 23.0265 15.8682 23.004 15.9861 23.0049C16.1041 23.0059 16.2207 23.0303 16.3291 23.0768C16.4375 23.1233 16.5356 23.1908 16.6176 23.2756L18.5039 25.16L19.7607 23.904L17.8754 22.0178C17.7906 21.9358 17.7229 21.8377 17.6763 21.7293C17.6298 21.6208 17.6053 21.5042 17.6043 21.3862C17.6032 21.2682 17.6257 21.1512 17.6704 21.042C17.7151 20.9327 17.7811 20.8335 17.8646 20.7501C17.948 20.6666 18.0472 20.6006 18.1565 20.5559C18.2657 20.5112 18.3827 20.4887 18.5007 20.4898C18.6187 20.4908 18.7353 20.5153 18.8438 20.5618C18.9522 20.6084 19.0503 20.6761 19.1323 20.7609L21.0176 22.6463L22.2745 21.3894L20.3901 19.504C20.3032 19.4226 20.2337 19.3245 20.1855 19.2156C20.1373 19.1067 20.1115 18.9892 20.1095 18.8701C20.1076 18.7511 20.1297 18.6328 20.1743 18.5224C20.219 18.4121 20.2854 18.3118 20.3696 18.2275C20.4537 18.1433 20.554 18.0768 20.6643 18.0321C20.7747 17.9874 20.8929 17.9652 21.012 17.9671C21.131 17.9689 21.2485 17.9946 21.3574 18.0428C21.4664 18.0909 21.5645 18.1604 21.6461 18.2472L23.5323 20.1325L24.1608 19.504C24.3274 19.3374 24.421 19.1113 24.421 18.8756C24.421 18.6399 24.3274 18.4139 24.1608 18.2472L18.5039 12.5902ZM19.7607 11.3324L25.4176 16.9893C25.6318 17.2033 25.8079 17.4522 25.9385 17.7254L29.943 13.7209C30.1096 13.5542 30.2032 13.3281 30.2032 13.0924C30.2032 12.8567 30.1096 12.6307 29.943 12.464L22.4007 4.92179C22.234 4.75515 22.008 4.66154 21.7723 4.66154C21.5366 4.66154 21.3105 4.75515 21.1439 4.92179L14.7323 11.3324C14.8974 11.4976 15.0934 11.6286 15.3091 11.718C15.5249 11.8074 15.7561 11.8534 15.9896 11.8534C16.2232 11.8534 16.4544 11.8074 16.6701 11.718C16.8859 11.6286 17.0819 11.4976 17.247 11.3324L19.1314 9.44801C19.2134 9.36319 19.3114 9.29554 19.4198 9.24899C19.5282 9.20244 19.6447 9.17793 19.7627 9.17688C19.8806 9.17583 19.9976 9.19827 20.1068 9.24289C20.216 9.2875 20.3152 9.3534 20.3987 9.43675C20.4821 9.52009 20.5482 9.61922 20.5929 9.72834C20.6377 9.83747 20.6603 9.95441 20.6594 10.0724C20.6585 10.1903 20.6342 10.3069 20.5878 10.4153C20.5414 10.5238 20.4739 10.6219 20.3892 10.704L19.7607 11.3324ZM25.4176 20.7609L17.8754 28.3031C17.6278 28.5508 17.3338 28.7473 17.0103 28.8813C16.6867 29.0154 16.3399 29.0843 15.9897 29.0843C15.6394 29.0843 15.2926 29.0154 14.9691 28.8813C14.6455 28.7473 14.3515 28.5508 14.1039 28.3031L0.782071 14.9822C0.534398 14.7346 0.33793 14.4406 0.203888 14.117C0.0698456 13.7934 0.000854492 13.4466 0.000854492 13.0964C0.000854492 12.7462 0.0698456 12.3994 0.203888 12.0758C0.33793 11.7523 0.534398 11.4583 0.782071 11.2106L8.3252 3.66845C8.82527 3.16852 9.50342 2.88768 10.2105 2.88768C10.9176 2.88768 11.5958 3.16852 12.0959 3.66845L15.9892 7.56176L19.8861 3.66488C20.1337 3.41721 20.4277 3.22074 20.7513 3.0867C21.0748 2.95266 21.4216 2.88367 21.7719 2.88367C22.1221 2.88367 22.4689 2.95266 22.7924 3.0867C23.116 3.22074 23.41 3.41721 23.6576 3.66488L31.1999 11.2071C31.4475 11.4547 31.644 11.7487 31.778 12.0723C31.9121 12.3958 31.9811 12.7426 31.9811 13.0929C31.9811 13.4431 31.9121 13.7899 31.778 14.1134C31.644 14.437 31.4475 14.731 31.1999 14.9786L25.4176 20.7609Z" fill="white"/>
</svg>
