<svg width="32" height="32" viewBox="0 0 32 32" fill="none" xmlns="http://www.w3.org/2000/svg">
<path d="M22.6666 29H9.33329C3.45329 29 1.66663 27.2133 1.66663 21.3333V10.6667C1.66663 4.78667 3.45329 3 9.33329 3H22.6666C28.5466 3 30.3333 4.78667 30.3333 10.6667V21.3333C30.3333 27.2133 28.5466 29 22.6666 29ZM9.33329 5C4.55996 5 3.66663 5.90667 3.66663 10.6667V21.3333C3.66663 26.0933 4.55996 27 9.33329 27H22.6666C27.44 27 28.3333 26.0933 28.3333 21.3333V10.6667C28.3333 5.90667 27.44 5 22.6666 5H9.33329Z" fill="white"/>
<path d="M25.3333 11.6667H18.6666C18.12 11.6667 17.6666 11.2133 17.6666 10.6667C17.6666 10.12 18.12 9.66666 18.6666 9.66666H25.3333C25.88 9.66666 26.3333 10.12 26.3333 10.6667C26.3333 11.2133 25.88 11.6667 25.3333 11.6667Z" fill="white"/>
<path d="M25.3333 17H20C19.4533 17 19 16.5467 19 16C19 15.4533 19.4533 15 20 15H25.3333C25.88 15 26.3333 15.4533 26.3333 16C26.3333 16.5467 25.88 17 25.3333 17Z" fill="white"/>
<path d="M25.3333 22.3333H22.6666C22.12 22.3333 21.6666 21.88 21.6666 21.3333C21.6666 20.7867 22.12 20.3333 22.6666 20.3333H25.3333C25.88 20.3333 26.3333 20.7867 26.3333 21.3333C26.3333 21.88 25.88 22.3333 25.3333 22.3333Z" fill="white"/>
<path d="M11.3334 16.0533C9.45338 16.0533 7.92004 14.52 7.92004 12.64C7.92004 10.76 9.45338 9.22665 11.3334 9.22665C13.2134 9.22665 14.7467 10.76 14.7467 12.64C14.7467 14.52 13.2134 16.0533 11.3334 16.0533ZM11.3334 11.2267C10.56 11.2267 9.92004 11.8667 9.92004 12.64C9.92004 13.4133 10.56 14.0533 11.3334 14.0533C12.1067 14.0533 12.7467 13.4133 12.7467 12.64C12.7467 11.8667 12.1067 11.2267 11.3334 11.2267Z" fill="white"/>
<path d="M16 22.7733C15.4933 22.7733 15.0533 22.3867 15 21.8667C14.8533 20.4267 13.6933 19.2667 12.24 19.1333C11.6267 19.08 11.0133 19.08 10.4 19.1333C8.94666 19.2667 7.78666 20.4133 7.64 21.8667C7.58666 22.4133 7.09333 22.8267 6.54666 22.76C6 22.7067 5.6 22.2133 5.65333 21.6667C5.89333 19.2667 7.8 17.36 10.2133 17.1467C10.9467 17.08 11.6933 17.08 12.4267 17.1467C14.8267 17.3733 16.7467 19.28 16.9867 21.6667C17.04 22.2133 16.64 22.7067 16.0933 22.76C16.0667 22.7733 16.0267 22.7733 16 22.7733Z" fill="white"/>
</svg>
