<svg width="14" height="14" viewBox="0 0 14 14" fill="none" xmlns="http://www.w3.org/2000/svg">
<g opacity="0.8">
<path d="M7 8.26583C5.7575 8.26583 4.7425 7.25667 4.7425 6.00833C4.7425 4.76 5.7575 3.75667 7 3.75667C8.2425 3.75667 9.2575 4.76583 9.2575 6.01417C9.2575 7.2625 8.2425 8.26583 7 8.26583ZM7 4.63167C6.24167 4.63167 5.6175 5.25 5.6175 6.01417C5.6175 6.77833 6.23583 7.39667 7 7.39667C7.76417 7.39667 8.3825 6.77833 8.3825 6.01417C8.3825 5.25 7.75833 4.63167 7 4.63167Z" fill="white"/>
<path d="M7 13.2767C6.13667 13.2767 5.2675 12.95 4.59083 12.3025C2.87 10.6458 0.968333 8.00333 1.68583 4.85917C2.33333 2.00667 4.82417 0.729167 7 0.729167C7 0.729167 7 0.729167 7.00583 0.729167C9.18167 0.729167 11.6725 2.00667 12.32 4.865C13.0317 8.00917 11.13 10.6458 9.40917 12.3025C8.7325 12.95 7.86333 13.2767 7 13.2767ZM7 1.60417C5.3025 1.60417 3.12083 2.50833 2.54333 5.05167C1.91333 7.79917 3.64 10.1675 5.20333 11.6667C6.2125 12.6408 7.79333 12.6408 8.8025 11.6667C10.36 10.1675 12.0867 7.79917 11.4683 5.05167C10.885 2.50833 8.6975 1.60417 7 1.60417Z" fill="white"/>
</g>
</svg>
