<svg width="128" height="128" viewBox="0 0 128 128" fill="none" xmlns="http://www.w3.org/2000/svg">
<path d="M111.87 71L111.7 73.01L111.24 74.86L110.5 76.55L109.5 78.11L108.31 79.41L106.92 80.5L105.36 81.32L103.69 81.82L101.87 82L100.05 81.82L98.3801 81.32L96.8201 80.5L95.4301 79.41L94.2401 78.11L93.2401 76.55L92.5001 74.86L92.0401 73.01L91.8701 71L92.0401 68.99L92.5001 67.15L93.2401 65.45L94.2401 63.89L95.4301 62.59L96.8201 61.5L98.3801 60.69L100.05 60.19L101.87 60L103.69 60.19L105.36 60.69L106.92 61.5L108.31 62.59L109.5 63.89L110.5 65.45L111.24 67.15L111.7 68.99L111.87 71Z" stroke="#E4E6E9" stroke-width="4"/>
<path fill-rule="evenodd" clip-rule="evenodd" d="M60.29 104.32L64.85 104.03L69.1 103.26L73.08 102.03L76.83 100.35L80.39 98.24L83.69 95.79L86.75 92.98L89.58 89.8L92.89 85.19L95.71 80.17L98.05 74.69L99.83 69L101.07 63.14L101.75 57.07L101.54 55.57L100.81 54.32L99.67 53.44L98.21 53.05L98.03 53.04H97.92L88.09 53L74.64 53.02L59.37 53.07L48.42 53.11L38.12 53.14L28.36 53.17H21L20.62 53.16L19.2 53.45L18.06 54.21L17.29 55.34L17 56.75L17.01 57.02L17.41 60.91L18.08 64.81L19.01 68.64L20.77 73.94L22.97 78.95L25.64 83.68L28.37 87.62L31.4 91.19L34.73 94.43L38.36 97.29L42.25 99.7L46.42 101.67L50.78 103.11L55.39 104L60.29 104.32Z" fill="url(#paint0_linear_67_1490)"/>
<path fill-rule="evenodd" clip-rule="evenodd" d="M24.8701 107H98.8701L100.05 107.24L100.99 107.88L101.63 108.82L101.87 110L101.63 111.18L100.99 112.12L100.05 112.76L98.8701 113H24.8701L23.6901 112.76L22.7501 112.12L22.1101 111.18L21.8701 110L22.1101 108.82L22.7501 107.88L23.6901 107.24L24.8701 107Z" fill="#E4E6E9"/>
<path fill-rule="evenodd" clip-rule="evenodd" d="M40.8701 25L41.6501 25.16L42.2801 25.59L42.7101 26.22L42.8701 27V47L42.7101 47.78L42.2801 48.41L41.6501 48.84L40.8701 49L40.0901 48.84L39.4601 48.41L39.0301 47.78L38.8701 47V27L39.0301 26.22L39.4601 25.59L40.0901 25.16L40.8701 25Z" fill="url(#paint1_linear_67_1490)"/>
<path fill-rule="evenodd" clip-rule="evenodd" d="M59.8701 15L60.6501 15.16L61.2801 15.59L61.7101 16.22L61.8701 17V47L61.7101 47.78L61.2801 48.41L60.6501 48.84L59.8701 49L59.0901 48.84L58.4601 48.41L58.0301 47.78L57.8701 47V17L58.0301 16.22L58.4601 15.59L59.0901 15.16L59.8701 15Z" fill="url(#paint2_linear_67_1490)"/>
<path fill-rule="evenodd" clip-rule="evenodd" d="M78.8701 25L79.6501 25.16L80.2801 25.59L80.7101 26.22L80.8701 27V47L80.7101 47.78L80.2801 48.41L79.6501 48.84L78.8701 49L78.0901 48.84L77.4601 48.41L77.0301 47.78L76.8701 47V27L77.0301 26.22L77.4601 25.59L78.0901 25.16L78.8701 25Z" fill="url(#paint3_linear_67_1490)"/>
<path fill-rule="evenodd" clip-rule="evenodd" d="M44.29 93.24L41.47 91.06L38.69 88.22L35.94 84.62L33.23 80.13L30.57 74.62L27.98 67.94L27.63 66.93L27.52 66.02L27.76 65.18L28.29 64.49L29.09 64.03L29.81 63.91H33.05L34.15 64.12L35.07 64.67L35.75 65.5L36.1 66.57L36.15 66.86L37.57 74.59L39.43 81.51L41.67 87.7L44.29 93.24Z" fill="url(#paint4_linear_67_1490)"/>
<defs>
<linearGradient id="paint0_linear_67_1490" x1="21.9459" y1="73.0924" x2="64.6587" y2="99.7133" gradientUnits="userSpaceOnUse">
<stop stop-color="#F3F4F6"/>
<stop offset="1" stop-color="#E4E6E9"/>
</linearGradient>
<linearGradient id="paint1_linear_67_1490" x1="40.8701" y1="27.2069" x2="40.8701" y2="49" gradientUnits="userSpaceOnUse">
<stop stop-color="#EEEEEE" stop-opacity="0.4"/>
<stop offset="1" stop-color="#E4E6E9"/>
</linearGradient>
<linearGradient id="paint2_linear_67_1490" x1="59.8701" y1="15" x2="59.8701" y2="49" gradientUnits="userSpaceOnUse">
<stop stop-color="#EEEEEE" stop-opacity="0.4"/>
<stop offset="1" stop-color="#E4E6E9"/>
</linearGradient>
<linearGradient id="paint3_linear_67_1490" x1="78.8701" y1="25" x2="78.8701" y2="49" gradientUnits="userSpaceOnUse">
<stop stop-color="#EEEEEE" stop-opacity="0.4"/>
<stop offset="1" stop-color="#E4E6E9"/>
</linearGradient>
<linearGradient id="paint4_linear_67_1490" x1="35.4613" y1="63.91" x2="46.3004" y2="90.4107" gradientUnits="userSpaceOnUse">
<stop stop-color="white"/>
<stop offset="1" stop-color="#EFEFEF"/>
</linearGradient>
</defs>
</svg>
