<svg width="128" height="128" viewBox="0 0 128 128" fill="none" xmlns="http://www.w3.org/2000/svg">
<path fill-rule="evenodd" clip-rule="evenodd" d="M121.5 68.88L122.16 69.88L122.38 71L122.16 72.12L121.5 73.12L74.13 120.5L73.12 121.16L72 121.37L70.88 121.16L69.88 120.5L69.22 119.49L69 118.37L69.22 117.25L69.88 116.25L117.26 68.88L118.26 68.21L119.38 68L120.5 68.21L121.5 68.88Z" fill="url(#paint0_linear_67_1497)"/>
<path fill-rule="evenodd" clip-rule="evenodd" d="M6.88 61.31L6.21 60.31L6 59.19L6.21 58.07L6.88 57.06L26.68 37.26L27.68 36.6L28.8 36.39L29.92 36.6L30.92 37.26L31.58 38.27L31.8 39.39L31.58 40.51L30.92 41.51L11.12 61.31L10.12 61.97L9 62.19L7.88 61.97L6.88 61.31Z" fill="url(#paint1_linear_67_1497)"/>
<path fill-rule="evenodd" clip-rule="evenodd" d="M58.18 34.75L57.51 33.75L57.3 32.63L57.51 31.51L58.18 30.51L80.8 7.88L81.81 7.22L82.9301 7L84.05 7.22L85.05 7.88L85.7101 8.88L85.9301 10L85.7101 11.12L85.05 12.13L62.4201 34.75L61.4201 35.42L60.3 35.63L59.18 35.42L58.18 34.75Z" fill="url(#paint2_linear_67_1497)"/>
<path fill-rule="evenodd" clip-rule="evenodd" d="M32.1899 23.59H60.6499H89.1099L90.4799 23.78L91.6499 24.27L92.6699 25.06L93.4599 26.08L93.9499 27.25L94.1399 28.62V101.56L93.9499 102.93L93.4599 104.1L92.6699 105.12L91.6499 105.91L90.4799 106.4L89.1099 106.59H32.1899L30.8199 106.4L29.6499 105.91L28.6299 105.12L27.8399 104.1L27.3499 102.93L27.1599 101.56V65.09V44.34V28.62L27.3499 27.25L27.8399 26.08L28.6299 25.06L29.6499 24.27L30.8199 23.78L32.1899 23.59Z" fill="#E7E9EB"/>
<path fill-rule="evenodd" clip-rule="evenodd" d="M34.73 28.62H86.57L87.56 28.82L88.35 29.36L88.89 30.15L89.09 31.14V99.05L88.89 100.03L88.35 100.82L87.56 101.36L86.57 101.56H34.73L33.74 101.36L32.95 100.82L32.42 100.03L32.22 99.05V44.63V31.13L32.42 30.15L32.95 29.36L33.74 28.82L34.73 28.62Z" fill="#F7F8FA"/>
<path fill-rule="evenodd" clip-rule="evenodd" d="M47.6599 43.69H81.6599L82.6399 43.89L83.4299 44.42L83.9599 45.21L84.1599 46.19L83.9599 47.17L83.4299 47.96L82.6399 48.49L81.6599 48.69H47.6599L46.6799 48.49L45.8899 47.96L45.3599 47.17L45.1599 46.19L45.3599 45.21L45.8899 44.42L46.6799 43.89L47.6599 43.69Z" fill="#E6E8EA"/>
<path fill-rule="evenodd" clip-rule="evenodd" d="M42.1599 46.19L41.9599 47.17L41.4299 47.96L40.6399 48.49L39.6599 48.69L38.6799 48.49L37.8899 47.96L37.3599 47.17L37.1599 46.19L37.3599 45.21L37.8899 44.42L38.6799 43.89L39.6599 43.69L40.6399 43.89L41.4299 44.42L41.9599 45.21L42.1599 46.19Z" fill="#D8D8D8"/>
<path fill-rule="evenodd" clip-rule="evenodd" d="M47.6599 61.69H81.6599L82.6399 61.89L83.4299 62.42L83.9599 63.21L84.1599 64.19L83.9599 65.17L83.4299 65.96L82.6399 66.49L81.6599 66.69H47.6599L46.6799 66.49L45.8899 65.96L45.3599 65.17L45.1599 64.19L45.3599 63.21L45.8899 62.42L46.6799 61.89L47.6599 61.69Z" fill="#E6E8EA"/>
<path fill-rule="evenodd" clip-rule="evenodd" d="M42.1599 64.19L41.9599 65.17L41.4299 65.96L40.6399 66.49L39.6599 66.69L38.6799 66.49L37.8899 65.96L37.3599 65.17L37.1599 64.19L37.3599 63.21L37.8899 62.42L38.6799 61.89L39.6599 61.69L40.6399 61.89L41.4299 62.42L41.9599 63.21L42.1599 64.19Z" fill="#D8D8D8"/>
<path fill-rule="evenodd" clip-rule="evenodd" d="M47.6599 80.69H81.6599L82.6399 80.89L83.4299 81.42L83.9599 82.21L84.1599 83.19L83.9599 84.17L83.4299 84.96L82.6399 85.49L81.6599 85.69H47.6599L46.6799 85.49L45.8899 84.96L45.3599 84.17L45.1599 83.19L45.3599 82.21L45.8899 81.42L46.6799 80.89L47.6599 80.69Z" fill="#E6E8EA"/>
<path fill-rule="evenodd" clip-rule="evenodd" d="M42.1599 83.19L41.9599 84.17L41.4299 84.96L40.6399 85.49L39.6599 85.69L38.6799 85.49L37.8899 84.96L37.3599 84.17L37.1599 83.19L37.3599 82.21L37.8899 81.42L38.6799 80.89L39.6599 80.69L40.6399 80.89L41.4299 81.42L41.9599 82.21L42.1599 83.19Z" fill="#D8D8D8"/>
<path fill-rule="evenodd" clip-rule="evenodd" d="M110.34 26.98H110.7L112 27.16L113.12 27.63L114.1 28.39L114.86 29.37L115.33 30.49L115.51 31.8V89.08H105.52V31.8L105.71 30.49L106.17 29.37L106.93 28.39L107.91 27.63L109.03 27.16L110.34 26.98Z" fill="url(#paint3_linear_67_1497)"/>
<path fill-rule="evenodd" clip-rule="evenodd" d="M105.52 93.91H115.51V96.33L110.52 106L105.52 96.33V93.91Z" fill="#E6E7EA"/>
<path fill-rule="evenodd" clip-rule="evenodd" d="M105.52 89.08H115.51V93.91H105.52V89.08Z" fill="#F7F8FA"/>
<defs>
<linearGradient id="paint0_linear_67_1497" x1="95.7372" y1="120.352" x2="95.69" y2="70.9252" gradientUnits="userSpaceOnUse">
<stop stop-color="#EEEEEE" stop-opacity="0.19813"/>
<stop offset="1" stop-color="#E4E6E9"/>
</linearGradient>
<linearGradient id="paint1_linear_67_1497" x1="18.9" y1="36.39" x2="18.9" y2="62.19" gradientUnits="userSpaceOnUse">
<stop stop-color="#EEEEEE" stop-opacity="0.2"/>
<stop offset="1" stop-color="#E4E6E9"/>
</linearGradient>
<linearGradient id="paint2_linear_67_1497" x1="71.615" y1="7" x2="71.615" y2="35.63" gradientUnits="userSpaceOnUse">
<stop stop-color="#EEEEEE" stop-opacity="0.2"/>
<stop offset="1" stop-color="#E4E6E9"/>
</linearGradient>
<linearGradient id="paint3_linear_67_1497" x1="110.515" y1="-35.8264" x2="110.515" y2="89.08" gradientUnits="userSpaceOnUse">
<stop stop-color="#EEEEEE"/>
<stop offset="1" stop-color="#E4E6E9"/>
</linearGradient>
</defs>
</svg>
