<svg width="54" height="54" viewBox="0 0 54 54" fill="none" xmlns="http://www.w3.org/2000/svg">
<path d="M42.0404 46.5H11.9624C7.01077 46.5 3 42.5692 3 37.7224V16.2776C3 11.4281 7.01357 7.5 11.9624 7.5H42.0376C46.9892 7.5 51 11.4308 51 16.2776V37.7224C51.0028 42.5719 46.9892 46.5 42.0404 46.5Z" fill="white"/>
<path d="M23.33 26.2095C24.7835 25.2642 25.7436 23.6376 25.7436 21.7854C25.7436 18.8656 23.359 16.5 20.4157 16.5C17.4724 16.5 15.0854 18.868 15.0854 21.7854C15.0854 23.64 16.0504 25.2714 17.5063 26.2143C13.4336 27.4738 10.5 31.3101 10.5 35.7534C10.5 36.216 10.6852 36.6596 11.015 36.9867C11.3447 37.3138 11.7919 37.4976 12.2582 37.4976H28.5635C29.0299 37.4976 29.4771 37.3138 29.8068 36.9867C30.1365 36.6596 30.3218 36.216 30.3218 35.7534V35.607C30.3266 31.1854 27.3809 27.445 23.33 26.2095ZM41.1783 21.2864H33.253C31.9712 21.2864 30.9312 20.2547 30.9312 18.9831C30.9312 17.7116 31.9712 16.6799 33.253 16.6799H41.1783C42.4601 16.6799 43.5 17.7116 43.5 18.9831C43.5 20.2547 42.4601 21.2864 41.1783 21.2864ZM41.1783 29.3932H35.5747C34.2929 29.3932 33.253 28.3615 33.253 27.09C33.253 25.8184 34.2929 24.7868 35.5747 24.7868H41.1783C42.4601 24.7868 43.5 25.8184 43.5 27.09C43.5 28.3615 42.4601 29.3932 41.1783 29.3932ZM41.1783 37.5H37.4321C36.1503 37.5 35.1103 36.4684 35.1103 35.1968C35.1103 33.9252 36.1503 32.8936 37.4321 32.8936H41.1783C42.4601 32.8936 43.5 33.9252 43.5 35.1968C43.5 36.4684 42.4601 37.5 41.1783 37.5Z" fill="#FFD25E"/>
</svg>
