<svg width="54" height="54" viewBox="0 0 54 54" fill="none" xmlns="http://www.w3.org/2000/svg">
<path d="M40.2788 48.7215H13.6595C8.73744 48.7215 4.74414 44.7309 4.74414 39.8061V17.6904C4.74414 12.7683 8.73474 8.77499 13.6595 8.77499H40.2788C45.2009 8.77499 49.1942 12.7656 49.1942 17.6904V39.8088C49.1942 44.7309 45.2009 48.7215 40.2788 48.7215Z" fill="white"/>
<path d="M40.5621 8.77499H13.3758C8.61028 8.77499 4.74658 12.6387 4.74658 17.4042V20.4741H49.194V17.4042C49.194 12.6387 45.3303 8.77499 40.5621 8.77499Z" fill="#FFD25D"/>
<path d="M16.7803 15.2118C15.3628 15.2118 14.2153 14.0643 14.2153 12.6468V7.263C14.2153 5.8455 15.3628 4.698 16.7803 4.698C18.1978 4.698 19.3453 5.8455 19.3453 7.263V12.6468C19.3453 14.0643 18.1978 15.2118 16.7803 15.2118ZM36.8683 15.2118C35.4508 15.2118 34.3033 14.0643 34.3033 12.6468V7.263C34.3033 5.8455 35.4508 4.698 36.8683 4.698C38.2858 4.698 39.4333 5.8455 39.4333 7.263V12.6468C39.4333 14.0643 38.2858 15.2118 36.8683 15.2118Z" fill="white"/>
<path d="M25.2101 39.8871C24.5081 39.8871 23.8358 39.5982 23.3525 39.0906L18.8786 34.3872C17.9012 33.3612 17.9444 31.7358 18.9704 30.7611C19.9964 29.7864 21.6218 29.8269 22.5965 30.8529L25.1588 33.5475L30.8369 27.2376C31.7846 26.1846 33.4073 26.1009 34.4603 27.0459C35.5133 27.9936 35.5997 29.6163 34.652 30.6693L27.119 39.0393C26.8828 39.3025 26.5945 39.5137 26.2725 39.6597C25.9504 39.8056 25.6015 39.8831 25.2479 39.8871H25.2101Z" fill="#FFD25D"/>
</svg>
