<svg width="41" height="43" viewBox="0 0 41 43" fill="none" xmlns="http://www.w3.org/2000/svg">
<g filter="url(#filter0_d_166_4519)">
<path d="M29.2951 11.655C29.1901 11.64 29.0851 11.64 28.9801 11.655C26.6551 11.58 24.8101 9.675 24.8101 7.335C24.8101 4.95 26.7451 3 29.1451 3C31.5301 3 33.4801 4.935 33.4801 7.335C33.4651 9.675 31.6201 11.58 29.2951 11.655Z" fill="white"/>
<path d="M34.1849 22.05C32.5049 23.175 30.1499 23.595 27.9749 23.31C28.5449 22.08 28.8449 20.715 28.8599 19.275C28.8599 17.775 28.5299 16.35 27.8999 15.105C30.1199 14.805 32.4749 15.225 34.1699 16.35C36.5399 17.91 36.5399 20.475 34.1849 22.05Z" fill="white"/>
<path d="M12.6602 11.655C12.7652 11.64 12.8702 11.64 12.9752 11.655C15.3002 11.58 17.1452 9.675 17.1452 7.335C17.1452 4.935 15.2102 3 12.8102 3C10.4252 3 8.49023 4.935 8.49023 7.335C8.49023 9.675 10.3352 11.58 12.6602 11.655Z" fill="white"/>
<path d="M12.8252 19.275C12.8252 20.73 13.1402 22.11 13.7102 23.355C11.5952 23.58 9.39018 23.13 7.77018 22.065C5.40018 20.49 5.40018 17.925 7.77018 16.35C9.37518 15.27 11.6402 14.835 13.7702 15.075C13.1552 16.335 12.8252 17.76 12.8252 19.275Z" fill="white"/>
<path d="M21.1802 23.805C21.0602 23.79 20.9252 23.79 20.7902 23.805C18.0302 23.715 15.8252 21.45 15.8252 18.66C15.8402 15.81 18.1352 13.5 21.0002 13.5C23.8502 13.5 26.1602 15.81 26.1602 18.66C26.1452 21.45 23.9552 23.715 21.1802 23.805Z" fill="white"/>
<path d="M16.3052 26.91C14.0402 28.425 14.0402 30.915 16.3052 32.415C18.8852 34.14 23.1152 34.14 25.6952 32.415C27.9602 30.9 27.9602 28.41 25.6952 26.91C23.1302 25.185 18.9002 25.185 16.3052 26.91Z" fill="white"/>
</g>
<defs>
<filter id="filter0_d_166_4519" x="-2" y="-1" width="46" height="46" filterUnits="userSpaceOnUse" color-interpolation-filters="sRGB">
<feFlood flood-opacity="0" result="BackgroundImageFix"/>
<feColorMatrix in="SourceAlpha" type="matrix" values="0 0 0 0 0 0 0 0 0 0 0 0 0 0 0 0 0 0 127 0" result="hardAlpha"/>
<feOffset dy="4"/>
<feGaussianBlur stdDeviation="2.5"/>
<feComposite in2="hardAlpha" operator="out"/>
<feColorMatrix type="matrix" values="0 0 0 0 0 0 0 0 0 0 0 0 0 0 0 0 0 0 0.05 0"/>
<feBlend mode="normal" in2="BackgroundImageFix" result="effect1_dropShadow_166_4519"/>
<feBlend mode="normal" in="SourceGraphic" in2="effect1_dropShadow_166_4519" result="shape"/>
</filter>
</defs>
</svg>
