<svg width="39" height="43" viewBox="0 0 39 43" fill="none" xmlns="http://www.w3.org/2000/svg">
<g filter="url(#filter0_d_166_4367)">
<path d="M26.7452 23.46C27.7502 22.8 29.0702 23.52 29.0702 24.72V26.655C29.0702 28.56 27.5852 30.6 25.8002 31.2L21.0152 32.79C20.1752 33.075 18.8102 33.075 17.9852 32.79L13.2002 31.2C11.4002 30.6 9.93018 28.56 9.93018 26.655V24.705C9.93018 23.52 11.2502 22.8 12.2402 23.445L15.3302 25.455C16.5152 26.25 18.0152 26.64 19.5152 26.64C21.0152 26.64 22.5152 26.25 23.7002 25.455L26.7452 23.46Z" fill="white"/>
<path d="M31.4698 9.69L22.4848 3.795C20.8648 2.73 18.1948 2.73 16.5748 3.795L7.54479 9.69C4.64979 11.565 4.64979 15.81 7.54479 17.7L9.94478 19.26L16.5748 23.58C18.1948 24.645 20.8648 24.645 22.4848 23.58L29.0698 19.26L31.1248 17.91V22.5C31.1248 23.115 31.6348 23.625 32.2498 23.625C32.8648 23.625 33.3748 23.115 33.3748 22.5V15.12C33.9748 13.185 33.3598 10.935 31.4698 9.69Z" fill="white"/>
</g>
<defs>
<filter id="filter0_d_166_4367" x="-3.5" y="-1" width="46" height="46" filterUnits="userSpaceOnUse" color-interpolation-filters="sRGB">
<feFlood flood-opacity="0" result="BackgroundImageFix"/>
<feColorMatrix in="SourceAlpha" type="matrix" values="0 0 0 0 0 0 0 0 0 0 0 0 0 0 0 0 0 0 127 0" result="hardAlpha"/>
<feOffset dy="4"/>
<feGaussianBlur stdDeviation="2.5"/>
<feComposite in2="hardAlpha" operator="out"/>
<feColorMatrix type="matrix" values="0 0 0 0 0 0 0 0 0 0 0 0 0 0 0 0 0 0 0.05 0"/>
<feBlend mode="normal" in2="BackgroundImageFix" result="effect1_dropShadow_166_4367"/>
<feBlend mode="normal" in="SourceGraphic" in2="effect1_dropShadow_166_4367" result="shape"/>
</filter>
</defs>
</svg>
