<svg width="44" height="44" viewBox="0 0 44 44" fill="none" xmlns="http://www.w3.org/2000/svg">
<g filter="url(#filter0_d_166_4371)">
<path d="M37 31.875H7C6.385 31.875 5.875 32.385 5.875 33C5.875 33.615 6.385 34.125 7 34.125H37C37.615 34.125 38.125 33.615 38.125 33C38.125 32.385 37.615 31.875 37 31.875Z" fill="white"/>
<path d="M29.5 3H14.5C10 3 8.5 5.685 8.5 9V33H35.5V9C35.5 5.685 34 3 29.5 3ZM19 25.875H14.5C13.885 25.875 13.375 25.365 13.375 24.75C13.375 24.135 13.885 23.625 14.5 23.625H19C19.615 23.625 20.125 24.135 20.125 24.75C20.125 25.365 19.615 25.875 19 25.875ZM19 19.125H14.5C13.885 19.125 13.375 18.615 13.375 18C13.375 17.385 13.885 16.875 14.5 16.875H19C19.615 16.875 20.125 17.385 20.125 18C20.125 18.615 19.615 19.125 19 19.125ZM19 12.375H14.5C13.885 12.375 13.375 11.865 13.375 11.25C13.375 10.635 13.885 10.125 14.5 10.125H19C19.615 10.125 20.125 10.635 20.125 11.25C20.125 11.865 19.615 12.375 19 12.375ZM29.5 25.875H25C24.385 25.875 23.875 25.365 23.875 24.75C23.875 24.135 24.385 23.625 25 23.625H29.5C30.115 23.625 30.625 24.135 30.625 24.75C30.625 25.365 30.115 25.875 29.5 25.875ZM29.5 19.125H25C24.385 19.125 23.875 18.615 23.875 18C23.875 17.385 24.385 16.875 25 16.875H29.5C30.115 16.875 30.625 17.385 30.625 18C30.625 18.615 30.115 19.125 29.5 19.125ZM29.5 12.375H25C24.385 12.375 23.875 11.865 23.875 11.25C23.875 10.635 24.385 10.125 25 10.125H29.5C30.115 10.125 30.625 10.635 30.625 11.25C30.625 11.865 30.115 12.375 29.5 12.375Z" fill="white"/>
</g>
<defs>
<filter id="filter0_d_166_4371" x="-1" y="-1" width="46" height="46" filterUnits="userSpaceOnUse" color-interpolation-filters="sRGB">
<feFlood flood-opacity="0" result="BackgroundImageFix"/>
<feColorMatrix in="SourceAlpha" type="matrix" values="0 0 0 0 0 0 0 0 0 0 0 0 0 0 0 0 0 0 127 0" result="hardAlpha"/>
<feOffset dy="4"/>
<feGaussianBlur stdDeviation="2.5"/>
<feComposite in2="hardAlpha" operator="out"/>
<feColorMatrix type="matrix" values="0 0 0 0 0 0 0 0 0 0 0 0 0 0 0 0 0 0 0.05 0"/>
<feBlend mode="normal" in2="BackgroundImageFix" result="effect1_dropShadow_166_4371"/>
<feBlend mode="normal" in="SourceGraphic" in2="effect1_dropShadow_166_4371" result="shape"/>
</filter>
</defs>
</svg>
