<svg width="40" height="42" viewBox="0 0 40 42" fill="none" xmlns="http://www.w3.org/2000/svg">
<g filter="url(#filter0_dd_166_4532)">
<path d="M33.5 33H6.5C5.885 33 5.375 32.49 5.375 31.875C5.375 31.26 5.885 30.75 6.5 30.75H33.5C34.115 30.75 34.625 31.26 34.625 31.875C34.625 32.49 34.115 33 33.5 33Z" fill="white"/>
<path d="M30.5299 5.22001C27.6199 2.31001 24.7699 2.23501 21.7849 5.22001L19.9699 7.03501C19.8199 7.18501 19.7599 7.42501 19.8199 7.63501C20.9599 11.61 24.1399 14.79 28.1149 15.93C28.1749 15.945 28.2349 15.96 28.2949 15.96C28.4599 15.96 28.6099 15.9 28.7299 15.78L30.5299 13.965C32.0149 12.495 32.7349 11.07 32.7349 9.63001C32.7499 8.14501 32.0299 6.70501 30.5299 5.22001Z" fill="white"/>
<path d="M25.415 17.295C24.98 17.085 24.56 16.875 24.155 16.635C23.825 16.44 23.51 16.23 23.195 16.005C22.94 15.84 22.64 15.6 22.355 15.36C22.325 15.345 22.22 15.255 22.1 15.135C21.605 14.715 21.05 14.175 20.555 13.575C20.51 13.545 20.435 13.44 20.33 13.305C20.18 13.125 19.925 12.825 19.7 12.48C19.52 12.255 19.31 11.925 19.115 11.595C18.875 11.19 18.665 10.785 18.455 10.365C18.3661 10.1745 18.2853 9.98677 18.2103 9.80282C18.0726 9.4653 17.6362 9.36877 17.3785 9.62653L8.50999 18.495C8.31499 18.69 8.13499 19.065 8.08999 19.32L7.27999 25.065C7.12999 26.085 7.41499 27.045 8.04499 27.69C8.58499 28.215 9.33499 28.5 10.145 28.5C10.325 28.5 10.505 28.485 10.685 28.455L16.445 27.645C16.715 27.6 17.09 27.42 17.27 27.225L26.1313 18.3637C26.3909 18.1041 26.2923 17.6606 25.9525 17.5218C25.7782 17.4506 25.6004 17.3753 25.415 17.295Z" fill="white"/>
</g>
<defs>
<filter id="filter0_dd_166_4532" x="-3" y="-1" width="46" height="46" filterUnits="userSpaceOnUse" color-interpolation-filters="sRGB">
<feFlood flood-opacity="0" result="BackgroundImageFix"/>
<feColorMatrix in="SourceAlpha" type="matrix" values="0 0 0 0 0 0 0 0 0 0 0 0 0 0 0 0 0 0 127 0" result="hardAlpha"/>
<feOffset dy="4"/>
<feGaussianBlur stdDeviation="2.5"/>
<feComposite in2="hardAlpha" operator="out"/>
<feColorMatrix type="matrix" values="0 0 0 0 0 0 0 0 0 0 0 0 0 0 0 0 0 0 0.05 0"/>
<feBlend mode="normal" in2="BackgroundImageFix" result="effect1_dropShadow_166_4532"/>
<feColorMatrix in="SourceAlpha" type="matrix" values="0 0 0 0 0 0 0 0 0 0 0 0 0 0 0 0 0 0 127 0" result="hardAlpha"/>
<feOffset dy="4"/>
<feGaussianBlur stdDeviation="2.5"/>
<feComposite in2="hardAlpha" operator="out"/>
<feColorMatrix type="matrix" values="0 0 0 0 0 0 0 0 0 0 0 0 0 0 0 0 0 0 0.05 0"/>
<feBlend mode="normal" in2="effect1_dropShadow_166_4532" result="effect2_dropShadow_166_4532"/>
<feBlend mode="normal" in="SourceGraphic" in2="effect2_dropShadow_166_4532" result="shape"/>
</filter>
</defs>
</svg>
