<svg width="38" height="42" viewBox="0 0 38 42" fill="none" xmlns="http://www.w3.org/2000/svg">
<g filter="url(#filter0_d_166_4376)">
<path d="M22.5251 3H15.4751C13.9151 3 12.6401 4.26 12.6401 5.82V7.23C12.6401 8.79 13.9001 10.05 15.4601 10.05H22.5251C24.0851 10.05 25.3451 8.79 25.3451 7.23V5.82C25.3601 4.26 24.0851 3 22.5251 3Z" fill="white"/>
<path d="M26.8601 7.23C26.8601 9.615 24.9101 11.565 22.5251 11.565H15.4751C13.0901 11.565 11.1401 9.615 11.1401 7.23C11.1401 6.39 10.2401 5.865 9.49006 6.255C7.37506 7.38 5.93506 9.615 5.93506 12.18V26.295C5.93506 29.985 8.95006 33 12.6401 33H25.3601C29.0501 33 32.0651 29.985 32.0651 26.295V12.18C32.0651 9.615 30.6251 7.38 28.5101 6.255C27.7601 5.865 26.8601 6.39 26.8601 7.23ZM19.5701 25.425H13.0001C12.3851 25.425 11.8751 24.915 11.8751 24.3C11.8751 23.685 12.3851 23.175 13.0001 23.175H19.5701C20.1851 23.175 20.6951 23.685 20.6951 24.3C20.6951 24.915 20.1851 25.425 19.5701 25.425ZM23.5001 19.425H13.0001C12.3851 19.425 11.8751 18.915 11.8751 18.3C11.8751 17.685 12.3851 17.175 13.0001 17.175H23.5001C24.1151 17.175 24.6251 17.685 24.6251 18.3C24.6251 18.915 24.1151 19.425 23.5001 19.425Z" fill="white"/>
</g>
<defs>
<filter id="filter0_d_166_4376" x="-4" y="-1" width="46" height="46" filterUnits="userSpaceOnUse" color-interpolation-filters="sRGB">
<feFlood flood-opacity="0" result="BackgroundImageFix"/>
<feColorMatrix in="SourceAlpha" type="matrix" values="0 0 0 0 0 0 0 0 0 0 0 0 0 0 0 0 0 0 127 0" result="hardAlpha"/>
<feOffset dy="4"/>
<feGaussianBlur stdDeviation="2.5"/>
<feComposite in2="hardAlpha" operator="out"/>
<feColorMatrix type="matrix" values="0 0 0 0 0 0 0 0 0 0 0 0 0 0 0 0 0 0 0.05 0"/>
<feBlend mode="normal" in2="BackgroundImageFix" result="effect1_dropShadow_166_4376"/>
<feBlend mode="normal" in="SourceGraphic" in2="effect1_dropShadow_166_4376" result="shape"/>
</filter>
</defs>
</svg>
