<svg width="41" height="42" viewBox="0 0 41 42" fill="none" xmlns="http://www.w3.org/2000/svg">
<g filter="url(#filter0_d_166_4381)">
<path d="M28.93 16.125C28.285 16.125 27.775 15.6 27.775 14.97C27.775 14.415 27.22 13.26 26.29 12.255C25.375 11.28 24.37 10.71 23.53 10.71C22.885 10.71 22.375 10.185 22.375 9.55499C22.375 8.92499 22.9 8.39999 23.53 8.39999C25.03 8.39999 26.605 9.20999 27.985 10.665C29.275 12.03 30.1 13.725 30.1 14.955C30.1 15.6 29.575 16.125 28.93 16.125Z" fill="white"/>
<path d="M34.3451 16.125C33.7001 16.125 33.1901 15.6 33.1901 14.97C33.1901 9.645 28.8551 5.325 23.5451 5.325C22.9001 5.325 22.3901 4.8 22.3901 4.17C22.3901 3.54 22.9001 3 23.5301 3C30.1301 3 35.5001 8.37 35.5001 14.97C35.5001 15.6 34.9751 16.125 34.3451 16.125Z" fill="white"/>
<path d="M19.075 22.425L16.3 25.2C15.715 25.785 14.785 25.785 14.185 25.215C14.02 25.05 13.855 24.9 13.69 24.735C12.145 23.175 10.75 21.54 9.505 19.83C8.275 18.12 7.285 16.41 6.565 14.715C5.86 13.005 5.5 11.37 5.5 9.81C5.5 8.79 5.68 7.815 6.04 6.915C6.4 6 6.97 5.16 7.765 4.41C8.725 3.465 9.775 3 10.885 3C11.305 3 11.725 3.09 12.1 3.27C12.49 3.45 12.835 3.72 13.105 4.11L16.585 9.015C16.855 9.39 17.05 9.735 17.185 10.065C17.32 10.38 17.395 10.695 17.395 10.98C17.395 11.34 17.29 11.7 17.08 12.045C16.885 12.39 16.6 12.75 16.24 13.11L15.1 14.295C14.935 14.46 14.86 14.655 14.86 14.895C14.86 15.015 14.875 15.12 14.905 15.24C14.95 15.36 14.995 15.45 15.025 15.54C15.295 16.035 15.76 16.68 16.42 17.46C17.095 18.24 17.815 19.035 18.595 19.83C18.745 19.98 18.91 20.13 19.06 20.28C19.66 20.865 19.675 21.825 19.075 22.425Z" fill="white"/>
<path d="M35.4549 27.495C35.4549 27.915 35.3799 28.35 35.2299 28.77C35.1849 28.89 35.1399 29.01 35.0799 29.13C34.8249 29.67 34.4949 30.18 34.0599 30.66C33.3249 31.47 32.5149 32.055 31.5999 32.43C31.5849 32.43 31.5699 32.445 31.5549 32.445C30.6699 32.805 29.7099 33 28.6749 33C27.1449 33 25.5099 32.64 23.7849 31.905C22.0599 31.17 20.3349 30.18 18.6249 28.935C18.0399 28.5 17.4549 28.065 16.8999 27.6L21.8049 22.695C22.2249 23.01 22.5999 23.25 22.9149 23.415C22.9899 23.445 23.0799 23.49 23.1849 23.535C23.3049 23.58 23.4249 23.595 23.5599 23.595C23.8149 23.595 24.0099 23.505 24.1749 23.34L25.3149 22.215C25.6899 21.84 26.0499 21.555 26.3949 21.375C26.7399 21.165 27.0849 21.06 27.4599 21.06C27.7449 21.06 28.0449 21.12 28.3749 21.255C28.7049 21.39 29.0499 21.585 29.4249 21.84L34.3899 25.365C34.7799 25.635 35.0499 25.95 35.2149 26.325C35.3649 26.7 35.4549 27.075 35.4549 27.495Z" fill="white"/>
</g>
<defs>
<filter id="filter0_d_166_4381" x="-2.5" y="-1" width="46" height="46" filterUnits="userSpaceOnUse" color-interpolation-filters="sRGB">
<feFlood flood-opacity="0" result="BackgroundImageFix"/>
<feColorMatrix in="SourceAlpha" type="matrix" values="0 0 0 0 0 0 0 0 0 0 0 0 0 0 0 0 0 0 127 0" result="hardAlpha"/>
<feOffset dy="4"/>
<feGaussianBlur stdDeviation="2.5"/>
<feComposite in2="hardAlpha" operator="out"/>
<feColorMatrix type="matrix" values="0 0 0 0 0 0 0 0 0 0 0 0 0 0 0 0 0 0 0.05 0"/>
<feBlend mode="normal" in2="BackgroundImageFix" result="effect1_dropShadow_166_4381"/>
<feBlend mode="normal" in="SourceGraphic" in2="effect1_dropShadow_166_4381" result="shape"/>
</filter>
</defs>
</svg>
