<svg width="335" height="130" viewBox="0 0 335 130" fill="none" xmlns="http://www.w3.org/2000/svg">
<mask id="mask0_84_2508" style="mask-type:alpha" maskUnits="userSpaceOnUse" x="0" y="0" width="335" height="130">
<path d="M0 8C0 3.58172 3.58172 0 8 0H327C331.418 0 335 3.58172 335 8V122C335 126.418 331.418 130 327 130C220.667 130 114.333 130 8 130C3.58172 130 0 126.418 0 122V8Z" fill="#3DA3FF"/>
</mask>
<g mask="url(#mask0_84_2508)">
<path d="M0 0H335V130C335 130 255.94 130 167.5 130C79.06 130 0 130 0 130V0Z" fill="#184B8A"/>
<g style="mix-blend-mode:overlay" opacity="0.2">
<circle cx="33.5" cy="22.5" r="48.5" fill="url(#paint0_linear_84_2508)"/>
</g>
<g style="mix-blend-mode:overlay" opacity="0.05">
<circle cx="333.5" cy="20.5" r="54.5" fill="white"/>
</g>
<g style="mix-blend-mode:overlay" opacity="0.1">
<circle cx="105" cy="182" r="120" fill="url(#paint1_linear_84_2508)"/>
</g>
</g>
<defs>
<linearGradient id="paint0_linear_84_2508" x1="33.5" y1="-26" x2="33.5" y2="71" gradientUnits="userSpaceOnUse">
<stop stop-color="white"/>
<stop offset="1" stop-color="white" stop-opacity="0"/>
</linearGradient>
<linearGradient id="paint1_linear_84_2508" x1="169.5" y1="71.5" x2="54" y2="283.5" gradientUnits="userSpaceOnUse">
<stop stop-color="white"/>
<stop offset="1" stop-color="white" stop-opacity="0"/>
</linearGradient>
</defs>
</svg>
