<svg width="20" height="20" viewBox="0 0 20 20" fill="none" xmlns="http://www.w3.org/2000/svg">
<path d="M10.0003 18.9583C9.44196 18.9583 8.87529 18.8166 8.37529 18.525L3.42529 15.6666C2.42529 15.0833 1.80029 14.0083 1.80029 12.85V7.15C1.80029 5.99166 2.42529 4.91666 3.42529 4.33333L8.37529 1.475C9.37529 0.891665 10.617 0.891665 11.6253 1.475L16.5753 4.33333C17.5753 4.91666 18.2003 5.99166 18.2003 7.15V12.85C18.2003 14.0083 17.5753 15.0833 16.5753 15.6666L11.6253 18.525C11.1253 18.8166 10.5586 18.9583 10.0003 18.9583ZM10.0003 2.29165C9.65863 2.29165 9.30863 2.38332 9.00029 2.55832L4.05029 5.41665C3.43363 5.77498 3.05029 6.43333 3.05029 7.15V12.85C3.05029 13.5583 3.43363 14.225 4.05029 14.5833L9.00029 17.4416C9.61696 17.8 10.3836 17.8 11.0003 17.4416L15.9503 14.5833C16.567 14.225 16.9503 13.5666 16.9503 12.85V7.15C16.9503 6.44166 16.567 5.77498 15.9503 5.41665L11.0003 2.55832C10.692 2.38332 10.342 2.29165 10.0003 2.29165Z" fill="#A8AAAE"/>
<path d="M9.99977 9.29172C8.85925 9.29172 7.93311 8.36557 7.93311 7.22504C7.93311 6.08452 8.85924 5.15841 9.99977 5.15841C11.1403 5.15841 12.0664 6.08452 12.0664 7.22504C12.0664 8.36557 11.1403 9.29172 9.99977 9.29172ZM9.99977 5.40841C8.99865 5.40841 8.18311 6.22388 8.18311 7.22504C8.18311 8.22617 8.99862 9.04172 9.99977 9.04172C11.0009 9.04172 11.8164 8.22617 11.8164 7.22504C11.8164 6.22388 11.0009 5.40841 9.99977 5.40841Z" fill="#A8AAAE" stroke="#A8AAAE"/>
<path d="M13.3332 14.5084C12.9915 14.5084 12.7082 14.2251 12.7082 13.8834C12.7082 12.7334 11.4915 11.7918 9.99984 11.7918C8.50817 11.7918 7.2915 12.7334 7.2915 13.8834C7.2915 14.2251 7.00817 14.5084 6.6665 14.5084C6.32484 14.5084 6.0415 14.2251 6.0415 13.8834C6.0415 12.0417 7.8165 10.5418 9.99984 10.5418C12.1832 10.5418 13.9582 12.0417 13.9582 13.8834C13.9582 14.2251 13.6748 14.5084 13.3332 14.5084Z" fill="#A8AAAE"/>
</svg>
