<svg width="20" height="20" viewBox="0 0 20 20" fill="none" xmlns="http://www.w3.org/2000/svg">
<path d="M13.7502 17.2917H6.25016C5.62516 17.2917 5.16683 17.2667 4.77516 17.2083C2.0085 16.9083 1.4585 15.25 1.4585 12.5V7.5C1.4585 4.75 2.0085 3.09167 4.80016 2.78333C5.16683 2.73333 5.62516 2.70833 6.25016 2.70833H13.7502C14.3752 2.70833 14.8335 2.73333 15.2252 2.79167C17.9918 3.09167 18.5418 4.75 18.5418 7.5V12.5C18.5418 15.25 17.9918 16.9083 15.2002 17.2167C14.8335 17.2667 14.3752 17.2917 13.7502 17.2917ZM6.25016 3.95833C5.6835 3.95833 5.2835 3.98333 4.9585 4.025C3.26683 4.21667 2.7085 4.74167 2.7085 7.5V12.5C2.7085 15.2583 3.26683 15.7833 4.9335 15.975C5.2835 16.025 5.6835 16.0417 6.25016 16.0417H13.7502C14.3168 16.0417 14.7168 16.0167 15.0418 15.975C16.7335 15.7917 17.2918 15.2583 17.2918 12.5V7.5C17.2918 4.74167 16.7335 4.21667 15.0668 4.025C14.7168 3.975 14.3168 3.95833 13.7502 3.95833H6.25016Z" fill="#A8AAAE"/>
<path d="M14.1667 8.95833H11.25C10.9083 8.95833 10.625 8.675 10.625 8.33333C10.625 7.99167 10.9083 7.70833 11.25 7.70833H14.1667C14.5083 7.70833 14.7917 7.99167 14.7917 8.33333C14.7917 8.675 14.5083 8.95833 14.1667 8.95833Z" fill="#A8AAAE"/>
<path d="M8.41683 9.16667C7.9585 9.16667 7.5835 8.79167 7.5835 8.33333C7.5835 7.875 7.95016 7.5 8.41683 7.5H8.42516C8.8835 7.5 9.2585 7.875 9.2585 8.33333C9.2585 8.79167 8.8835 9.16667 8.41683 9.16667Z" fill="#A8AAAE"/>
<path d="M5.91683 9.16667C5.4585 9.16667 5.0835 8.79167 5.0835 8.33333C5.0835 7.875 5.45016 7.5 5.91683 7.5C6.37516 7.5 6.75016 7.875 6.75016 8.33333C6.75016 8.79167 6.3835 9.16667 5.91683 9.16667Z" fill="#A8AAAE"/>
<path d="M14.1668 13.5417H5.85013C5.50846 13.5417 5.2168 13.2583 5.2168 12.9167C5.2168 12.575 5.4918 12.2917 5.83346 12.2917H14.1668C14.5085 12.2917 14.7918 12.575 14.7918 12.9167C14.7918 13.2583 14.5085 13.5417 14.1668 13.5417Z" fill="#A8AAAE"/>
</svg>
