<svg width="20" height="20" viewBox="0 0 20 20" fill="none" xmlns="http://www.w3.org/2000/svg">
<path d="M9.99971 18.9584C9.79971 18.9584 9.59972 18.9334 9.40805 18.8751C5.08305 17.6834 1.94971 13.6417 1.94971 9.25837V5.60002C1.94971 4.66669 2.62471 3.6584 3.49138 3.30006L8.13305 1.40004C9.34138 0.908371 10.6664 0.908371 11.8664 1.40004L16.508 3.30006C17.3747 3.6584 18.0497 4.66669 18.0497 5.60002V9.25837C18.0497 13.6334 14.908 17.6751 10.5914 18.8751C10.3997 18.9334 10.1997 18.9584 9.99971 18.9584ZM9.99971 2.29171C9.52471 2.29171 9.05803 2.38339 8.60803 2.56673L3.96638 4.4667C3.56638 4.63337 3.19971 5.17503 3.19971 5.60836V9.26671C3.19971 13.0917 5.94971 16.6251 9.74138 17.6751C9.90805 17.7251 10.0914 17.7251 10.258 17.6751C14.0497 16.6251 16.7997 13.0917 16.7997 9.26671V5.60836C16.7997 5.17503 16.433 4.63337 16.033 4.4667L11.3914 2.56673C10.9414 2.38339 10.4747 2.29171 9.99971 2.29171Z" fill="#A8AAAE"/>
<path d="M10.0002 11.0417C8.7335 11.0417 7.7085 10.0167 7.7085 8.75C7.7085 7.48334 8.7335 6.45834 10.0002 6.45834C11.2668 6.45834 12.2918 7.48334 12.2918 8.75C12.2918 10.0167 11.2668 11.0417 10.0002 11.0417ZM10.0002 7.70834C9.42516 7.70834 8.9585 8.175 8.9585 8.75C8.9585 9.325 9.42516 9.79167 10.0002 9.79167C10.5752 9.79167 11.0418 9.325 11.0418 8.75C11.0418 8.175 10.5752 7.70834 10.0002 7.70834Z" fill="#A8AAAE"/>
<path d="M10 13.5417C9.65833 13.5417 9.375 13.2583 9.375 12.9167V10.4167C9.375 10.075 9.65833 9.79166 10 9.79166C10.3417 9.79166 10.625 10.075 10.625 10.4167V12.9167C10.625 13.2583 10.3417 13.5417 10 13.5417Z" fill="#A8AAAE"/>
</svg>
