<svg width="20" height="20" viewBox="0 0 20 20" fill="none" xmlns="http://www.w3.org/2000/svg">
<path d="M14.1665 18.125H5.83317C2.15817 18.125 1.0415 17.0083 1.0415 13.3333V6.66667C1.0415 2.99167 2.15817 1.875 5.83317 1.875H14.1665C17.8415 1.875 18.9582 2.99167 18.9582 6.66667V13.3333C18.9582 17.0083 17.8415 18.125 14.1665 18.125ZM5.83317 3.125C2.84984 3.125 2.2915 3.69167 2.2915 6.66667V13.3333C2.2915 16.3083 2.84984 16.875 5.83317 16.875H14.1665C17.1498 16.875 17.7082 16.3083 17.7082 13.3333V6.66667C17.7082 3.69167 17.1498 3.125 14.1665 3.125H5.83317Z" fill="#A8AAAE"/>
<path d="M15.8332 7.29167H11.6665C11.3248 7.29167 11.0415 7.00833 11.0415 6.66667C11.0415 6.325 11.3248 6.04167 11.6665 6.04167H15.8332C16.1748 6.04167 16.4582 6.325 16.4582 6.66667C16.4582 7.00833 16.1748 7.29167 15.8332 7.29167Z" fill="#A8AAAE"/>
<path d="M15.8333 10.625H12.5C12.1583 10.625 11.875 10.3417 11.875 10C11.875 9.65833 12.1583 9.375 12.5 9.375H15.8333C16.175 9.375 16.4583 9.65833 16.4583 10C16.4583 10.3417 16.175 10.625 15.8333 10.625Z" fill="#A8AAAE"/>
<path d="M15.8332 13.9583H14.1665C13.8248 13.9583 13.5415 13.675 13.5415 13.3333C13.5415 12.9917 13.8248 12.7083 14.1665 12.7083H15.8332C16.1748 12.7083 16.4582 12.9917 16.4582 13.3333C16.4582 13.675 16.1748 13.9583 15.8332 13.9583Z" fill="#A8AAAE"/>
<path d="M7.08353 10.0333C5.90853 10.0333 4.9502 9.075 4.9502 7.9C4.9502 6.725 5.90853 5.76667 7.08353 5.76667C8.25853 5.76667 9.21686 6.725 9.21686 7.9C9.21686 9.075 8.25853 10.0333 7.08353 10.0333ZM7.08353 7.01667C6.6002 7.01667 6.2002 7.41667 6.2002 7.9C6.2002 8.38333 6.6002 8.78333 7.08353 8.78333C7.56686 8.78333 7.96686 8.38333 7.96686 7.9C7.96686 7.41667 7.56686 7.01667 7.08353 7.01667Z" fill="#A8AAAE"/>
<path d="M9.99992 14.2333C9.68326 14.2333 9.40826 13.9917 9.37492 13.6667C9.28326 12.7667 8.55826 12.0417 7.64992 11.9583C7.26659 11.925 6.88326 11.925 6.49992 11.9583C5.59159 12.0417 4.86659 12.7583 4.77492 13.6667C4.74159 14.0083 4.43325 14.2667 4.09159 14.225C3.74992 14.1917 3.49992 13.8833 3.53325 13.5417C3.68325 12.0417 4.87492 10.85 6.38326 10.7167C6.84159 10.675 7.30825 10.675 7.76659 10.7167C9.26659 10.8583 10.4666 12.05 10.6166 13.5417C10.6499 13.8833 10.3999 14.1917 10.0583 14.225C10.0416 14.2333 10.0166 14.2333 9.99992 14.2333Z" fill="#A8AAAE"/>
</svg>
