<svg width="20" height="20" viewBox="0 0 20 20" fill="none" xmlns="http://www.w3.org/2000/svg">
<path d="M5.58318 15.625H3.45819C1.92486 15.625 1.0415 14.7416 1.0415 13.2083V3.45835C1.0415 1.92502 1.92486 1.04166 3.45819 1.04166H7.04151C8.57485 1.04166 9.45815 1.92502 9.45815 3.45835V5C9.45815 5.34166 9.17482 5.625 8.83315 5.625C8.49148 5.625 8.20815 5.34166 8.20815 5V3.45835C8.20815 2.60835 7.89151 2.29166 7.04151 2.29166H3.45819C2.60819 2.29166 2.2915 2.60835 2.2915 3.45835V13.2083C2.2915 14.0583 2.60819 14.375 3.45819 14.375H5.58318C5.92485 14.375 6.20818 14.6583 6.20818 15C6.20818 15.3417 5.92485 15.625 5.58318 15.625Z" fill="#A8AAAE"/>
<path d="M12.4668 18.9583H7.60015C5.92515 18.9583 4.9585 17.9917 4.9585 16.3167V7.01665C4.9585 5.34165 5.92515 4.375 7.60015 4.375H12.4668C14.1418 4.375 15.1001 5.34165 15.1001 7.01665V16.3167C15.1001 17.9917 14.1418 18.9583 12.4668 18.9583ZM7.60015 5.625C6.60015 5.625 6.2085 6.01665 6.2085 7.01665V16.3167C6.2085 17.3167 6.60015 17.7083 7.60015 17.7083H12.4668C13.4585 17.7083 13.8501 17.3167 13.8501 16.3167V7.01665C13.8501 6.01665 13.4585 5.625 12.4668 5.625H7.60015Z" fill="#A8AAAE"/>
<path d="M16.5415 15.625H14.4748C14.1331 15.625 13.8498 15.3417 13.8498 15C13.8498 14.6583 14.1331 14.375 14.4748 14.375H16.5415C17.3915 14.375 17.7082 14.0583 17.7082 13.2083V3.45835C17.7082 2.60835 17.3915 2.29166 16.5415 2.29166H12.9581C12.1081 2.29166 11.7915 2.60835 11.7915 3.45835V5C11.7915 5.34166 11.5082 5.625 11.1665 5.625C10.8248 5.625 10.5415 5.34166 10.5415 5V3.45835C10.5415 1.92502 11.4248 1.04166 12.9581 1.04166H16.5415C18.0748 1.04166 18.9582 1.92502 18.9582 3.45835V13.2083C18.9582 14.7416 18.0748 15.625 16.5415 15.625Z" fill="#A8AAAE"/>
<path d="M11.6668 9.79167H8.3335C7.99183 9.79167 7.7085 9.50834 7.7085 9.16667C7.7085 8.82501 7.99183 8.54167 8.3335 8.54167H11.6668C12.0085 8.54167 12.2918 8.82501 12.2918 9.16667C12.2918 9.50834 12.0085 9.79167 11.6668 9.79167Z" fill="#A8AAAE"/>
<path d="M11.6668 12.2917H8.3335C7.99183 12.2917 7.7085 12.0083 7.7085 11.6667C7.7085 11.325 7.99183 11.0417 8.3335 11.0417H11.6668C12.0085 11.0417 12.2918 11.325 12.2918 11.6667C12.2918 12.0083 12.0085 12.2917 11.6668 12.2917Z" fill="#A8AAAE"/>
<path d="M10 18.9583C9.65833 18.9583 9.375 18.675 9.375 18.3333V15.8333C9.375 15.4917 9.65833 15.2083 10 15.2083C10.3417 15.2083 10.625 15.4917 10.625 15.8333V18.3333C10.625 18.675 10.3417 18.9583 10 18.9583Z" fill="#A8AAAE"/>
</svg>
