<svg width="20" height="20" viewBox="0 0 20 20" fill="none" xmlns="http://www.w3.org/2000/svg">
<path d="M9.99984 18.4C9.74984 18.4 9.49984 18.3417 9.2915 18.225C7.73317 17.375 4.9915 16.475 3.27484 16.25L3.03317 16.2167C1.9415 16.0833 1.0415 15.0583 1.0415 13.95V3.88333C1.0415 3.225 1.29984 2.625 1.77484 2.19167C2.24984 1.75833 2.8665 1.55 3.5165 1.60833C5.34984 1.75 8.1165 2.66667 9.68317 3.65L9.88317 3.76667C9.9415 3.8 10.0665 3.8 10.1165 3.775L10.2498 3.69167C11.8165 2.70833 14.5832 1.775 16.4248 1.61667C16.4415 1.61667 16.5082 1.61667 16.5248 1.61667C17.1332 1.55833 17.7582 1.775 18.2248 2.20833C18.6998 2.64167 18.9582 3.24167 18.9582 3.9V13.9583C18.9582 15.075 18.0582 16.0917 16.9582 16.225L16.6832 16.2583C14.9665 16.4833 12.2165 17.3917 10.6915 18.2333C10.4915 18.35 10.2498 18.4 9.99984 18.4ZM3.3165 2.85C3.04984 2.85 2.80817 2.94167 2.6165 3.11667C2.40817 3.30833 2.2915 3.58333 2.2915 3.88333V13.95C2.2915 14.4417 2.7165 14.9167 3.1915 14.9833L3.4415 15.0167C5.3165 15.2667 8.1915 16.2083 9.85817 17.1167C9.93317 17.15 10.0415 17.1583 10.0832 17.1417C11.7498 16.2167 14.6415 15.2667 16.5248 15.0167L16.8082 14.9833C17.2832 14.925 17.7082 14.4417 17.7082 13.95V3.89167C17.7082 3.58333 17.5915 3.31667 17.3832 3.11667C17.1665 2.925 16.8915 2.83333 16.5832 2.85C16.5665 2.85 16.4998 2.85 16.4832 2.85C14.8915 2.99167 12.3248 3.85 10.9248 4.725L10.7915 4.81667C10.3332 5.1 9.68317 5.1 9.2415 4.825L9.0415 4.70833C7.6165 3.83333 5.04984 2.98333 3.4165 2.85C3.38317 2.85 3.34984 2.85 3.3165 2.85Z" fill="#A8AAAE"/>
<path d="M10 17.7C9.65833 17.7 9.375 17.4167 9.375 17.075V4.575C9.375 4.23333 9.65833 3.95 10 3.95C10.3417 3.95 10.625 4.23333 10.625 4.575V17.075C10.625 17.425 10.3417 17.7 10 17.7Z" fill="#A8AAAE"/>
<path d="M6.4585 7.7H4.5835C4.24183 7.7 3.9585 7.41666 3.9585 7.075C3.9585 6.73333 4.24183 6.45 4.5835 6.45H6.4585C6.80016 6.45 7.0835 6.73333 7.0835 7.075C7.0835 7.41666 6.80016 7.7 6.4585 7.7Z" fill="#A8AAAE"/>
<path d="M7.0835 10.2H4.5835C4.24183 10.2 3.9585 9.91666 3.9585 9.575C3.9585 9.23333 4.24183 8.95 4.5835 8.95H7.0835C7.42516 8.95 7.7085 9.23333 7.7085 9.575C7.7085 9.91666 7.42516 10.2 7.0835 10.2Z" fill="#A8AAAE"/>
</svg>
