<svg width="28" height="28" viewBox="0 0 28 28" fill="none" xmlns="http://www.w3.org/2000/svg">
<path d="M13.9998 14C17.2215 14 19.8332 11.3883 19.8332 8.16667C19.8332 4.94501 17.2215 2.33334 13.9998 2.33334C10.7782 2.33334 8.1665 4.94501 8.1665 8.16667C8.1665 11.3883 10.7782 14 13.9998 14Z" fill="#184B8A"/>
<path opacity="0.4" d="M14.0001 16.9167C8.15505 16.9167 3.39502 20.8367 3.39502 25.6667C3.39502 25.9933 3.65169 26.25 3.97835 26.25H24.0218C24.3484 26.25 24.6051 25.9933 24.6051 25.6667C24.6051 20.8367 19.8451 16.9167 14.0001 16.9167Z" fill="#184B8A"/>
<path d="M25.0015 17.1967C23.9515 16.1467 23.1232 16.485 22.4116 17.1967L18.2815 21.3267C18.1182 21.4901 17.9665 21.7934 17.9315 22.015L17.7099 23.59C17.6282 24.1617 18.0249 24.5583 18.5966 24.4767L20.1715 24.255C20.3932 24.22 20.7082 24.0684 20.8599 23.905L24.9899 19.7751C25.7132 19.0751 26.0515 18.2467 25.0015 17.1967Z" fill="#184B8A"/>
</svg>
