<svg width="28" height="28" viewBox="0 0 28 28" fill="none" xmlns="http://www.w3.org/2000/svg">
<path opacity="0.4" d="M21.0002 3.5H7.00016C4.42183 3.5 2.3335 5.57667 2.3335 8.13167V19.8683C2.3335 22.4233 4.42183 24.5 7.00016 24.5H21.0002C23.5785 24.5 25.6668 22.4233 25.6668 19.8683V8.13167C25.6668 5.57667 23.5785 3.5 21.0002 3.5Z" fill="#184B8A"/>
<path d="M22.1668 10.2083H16.3335C15.8552 10.2083 15.4585 9.81167 15.4585 9.33333C15.4585 8.855 15.8552 8.45833 16.3335 8.45833H22.1668C22.6452 8.45833 23.0418 8.855 23.0418 9.33333C23.0418 9.81167 22.6452 10.2083 22.1668 10.2083Z" fill="#184B8A"/>
<path d="M22.1667 14.875H17.5C17.0217 14.875 16.625 14.4783 16.625 14C16.625 13.5217 17.0217 13.125 17.5 13.125H22.1667C22.645 13.125 23.0417 13.5217 23.0417 14C23.0417 14.4783 22.645 14.875 22.1667 14.875Z" fill="#184B8A"/>
<path d="M22.1668 19.5417H19.8335C19.3552 19.5417 18.9585 19.145 18.9585 18.6667C18.9585 18.1883 19.3552 17.7917 19.8335 17.7917H22.1668C22.6452 17.7917 23.0418 18.1883 23.0418 18.6667C23.0418 19.145 22.6452 19.5417 22.1668 19.5417Z" fill="#184B8A"/>
<path d="M9.91668 13.755C11.4051 13.755 12.6117 12.5484 12.6117 11.06C12.6117 9.57159 11.4051 8.365 9.91668 8.365C8.42827 8.365 7.22168 9.57159 7.22168 11.06C7.22168 12.5484 8.42827 13.755 9.91668 13.755Z" fill="#184B8A"/>
<path d="M10.8503 15.295C10.2319 15.2367 9.59027 15.2367 8.97194 15.295C7.01194 15.4817 5.43694 17.0333 5.25027 18.9933C5.23861 19.1567 5.28527 19.32 5.40194 19.4367C5.51861 19.5533 5.67027 19.635 5.83361 19.635H14.0003C14.1636 19.635 14.3269 19.565 14.4319 19.4483C14.5369 19.3317 14.5953 19.1683 14.5836 19.005C14.3853 17.0333 12.8219 15.4817 10.8503 15.295Z" fill="#184B8A"/>
</svg>
