<svg width="28" height="28" viewBox="0 0 28 28" fill="none" xmlns="http://www.w3.org/2000/svg">
<path d="M8.16683 9.33333H4.66683C3.3835 9.33333 2.3335 8.28333 2.3335 7V4.66667C2.3335 3.38333 3.3835 2.33333 4.66683 2.33333H8.16683C9.45016 2.33333 10.5002 3.38333 10.5002 4.66667V7C10.5002 8.28333 9.45016 9.33333 8.16683 9.33333Z" fill="#184B8A"/>
<path d="M24.2665 8.16667H20.0665C19.2965 8.16667 18.6665 7.53665 18.6665 6.76665V4.90001C18.6665 4.13001 19.2965 3.5 20.0665 3.5H24.2665C25.0365 3.5 25.6665 4.13001 25.6665 4.90001V6.76665C25.6665 7.53665 25.0365 8.16667 24.2665 8.16667Z" fill="#184B8A"/>
<path d="M24.2665 16.9167H20.0665C19.2965 16.9167 18.6665 16.2867 18.6665 15.5167V13.65C18.6665 12.88 19.2965 12.25 20.0665 12.25H24.2665C25.0365 12.25 25.6665 12.88 25.6665 13.65V15.5167C25.6665 16.2867 25.0365 16.9167 24.2665 16.9167Z" fill="#184B8A"/>
<path opacity="0.37" d="M18.6667 15.4583C19.145 15.4583 19.5417 15.0617 19.5417 14.5833C19.5417 14.105 19.145 13.7083 18.6667 13.7083H15.4583V6.70834H18.6667C19.145 6.70834 19.5417 6.31167 19.5417 5.83334C19.5417 5.355 19.145 4.95834 18.6667 4.95834H10.5C10.0217 4.95834 9.625 5.355 9.625 5.83334C9.625 6.31167 10.0217 6.70834 10.5 6.70834H13.7083V21C13.7083 22.7733 15.1433 24.2083 16.9167 24.2083H18.6667C19.145 24.2083 19.5417 23.8117 19.5417 23.3333C19.5417 22.855 19.145 22.4583 18.6667 22.4583H16.9167C16.1117 22.4583 15.4583 21.805 15.4583 21V15.4583H18.6667Z" fill="#184B8A"/>
<path d="M24.2665 25.6667H20.0665C19.2965 25.6667 18.6665 25.0367 18.6665 24.2667V22.4C18.6665 21.63 19.2965 21 20.0665 21H24.2665C25.0365 21 25.6665 21.63 25.6665 22.4V24.2667C25.6665 25.0367 25.0365 25.6667 24.2665 25.6667Z" fill="#184B8A"/>
</svg>
