<svg width="28" height="28" viewBox="0 0 28 28" fill="none" xmlns="http://www.w3.org/2000/svg">
<path d="M8.1665 6.70834C7.68817 6.70834 7.2915 6.31167 7.2915 5.83334V2.33334C7.2915 1.855 7.68817 1.45834 8.1665 1.45834C8.64484 1.45834 9.0415 1.855 9.0415 2.33334V5.83334C9.0415 6.31167 8.64484 6.70834 8.1665 6.70834Z" fill="#184B8A"/>
<path d="M17.5 6.70834C17.0217 6.70834 16.625 6.31167 16.625 5.83334V2.33334C16.625 1.855 17.0217 1.45834 17.5 1.45834C17.9783 1.45834 18.375 1.855 18.375 2.33334V5.83334C18.375 6.31167 17.9783 6.70834 17.5 6.70834Z" fill="#184B8A"/>
<path opacity="0.4" d="M23.3335 9.91667V19.8333C23.3335 23.3333 21.5835 25.6667 17.5002 25.6667H8.16683C4.0835 25.6667 2.3335 23.3333 2.3335 19.8333V9.91667C2.3335 6.41667 4.0835 4.08334 8.16683 4.08334H17.5002C21.5835 4.08334 23.3335 6.41667 23.3335 9.91667Z" fill="#184B8A"/>
<path d="M15.1665 13.7083H8.1665C7.68817 13.7083 7.2915 13.3117 7.2915 12.8333C7.2915 12.355 7.68817 11.9583 8.1665 11.9583H15.1665C15.6448 11.9583 16.0415 12.355 16.0415 12.8333C16.0415 13.3117 15.6448 13.7083 15.1665 13.7083Z" fill="#184B8A"/>
<path d="M11.6665 19.5417H8.1665C7.68817 19.5417 7.2915 19.145 7.2915 18.6667C7.2915 18.1883 7.68817 17.7917 8.1665 17.7917H11.6665C12.1448 17.7917 12.5415 18.1883 12.5415 18.6667C12.5415 19.145 12.1448 19.5417 11.6665 19.5417Z" fill="#184B8A"/>
<path d="M24.5002 15.9017C23.4618 15.0733 22.1435 14.5833 20.7085 14.5833C19.2735 14.5833 17.9318 15.085 16.8818 15.9366C15.4702 17.045 14.5835 18.7833 14.5835 20.7083C14.5835 21.8517 14.9102 22.9483 15.4702 23.8583C15.9018 24.57 16.4618 25.1883 17.1268 25.6667C18.1302 26.4017 19.3668 26.8333 20.7085 26.8333C22.2602 26.8333 23.6602 26.2617 24.7335 25.305C25.2118 24.9083 25.6202 24.4183 25.9468 23.8583C26.5068 22.9483 26.8335 21.8517 26.8335 20.7083C26.8335 18.76 25.9235 17.0217 24.5002 15.9017ZM20.7085 23.625C20.7085 22.015 19.4018 20.7083 17.7918 20.7083C19.4018 20.7083 20.7085 19.4017 20.7085 17.7917C20.7085 19.4017 22.0152 20.7083 23.6252 20.7083C22.0152 20.7083 20.7085 22.015 20.7085 23.625Z" fill="#184B8A"/>
</svg>
