<svg width="28" height="28" viewBox="0 0 28 28" fill="none" xmlns="http://www.w3.org/2000/svg">
<path opacity="0.4" d="M24.605 25.0833C24.605 25.41 24.3483 25.6667 24.0217 25.6667H3.97835C3.65169 25.6667 3.39502 25.41 3.39502 25.0833C3.39502 20.2533 8.15501 16.3333 14 16.3333C15.2017 16.3333 16.3684 16.4966 17.4417 16.8116C16.7534 17.6283 16.3333 18.69 16.3333 19.8333C16.3333 20.7083 16.5783 21.5367 17.01 22.2367C17.2433 22.6333 17.5467 22.995 17.8967 23.2983C18.7133 24.045 19.7983 24.5 21 24.5C22.3067 24.5 23.485 23.9633 24.325 23.1C24.5117 23.73 24.605 24.395 24.605 25.0833Z" fill="#184B8A"/>
<path d="M24.4652 16.7184C23.6252 15.7617 22.3768 15.1667 21.0002 15.1667C19.6935 15.1667 18.5035 15.7034 17.6518 16.5784C16.8352 17.4184 16.3335 18.5733 16.3335 19.8333C16.3335 20.7083 16.5785 21.5367 17.0101 22.2367C17.2435 22.6333 17.5468 22.995 17.8968 23.2983C18.7135 24.045 19.7985 24.5 21.0002 24.5C22.7035 24.5 24.1852 23.59 24.9902 22.2367C25.2352 21.84 25.4218 21.385 25.5268 20.9183C25.6202 20.5683 25.6668 20.2067 25.6668 19.8333C25.6668 18.6433 25.2118 17.5467 24.4652 16.7184ZM22.7502 20.685H21.8752V21.595C21.8752 22.0733 21.4785 22.47 21.0002 22.47C20.5218 22.47 20.1252 22.0733 20.1252 21.595V20.685H19.2502C18.7718 20.685 18.3752 20.2883 18.3752 19.81C18.3752 19.3316 18.7718 18.935 19.2502 18.935H20.1252V18.1067C20.1252 17.6284 20.5218 17.2317 21.0002 17.2317C21.4785 17.2317 21.8752 17.6284 21.8752 18.1067V18.935H22.7502C23.2285 18.935 23.6252 19.3316 23.6252 19.81C23.6252 20.2883 23.2285 20.685 22.7502 20.685Z" fill="#184B8A"/>
<path d="M13.9998 14C17.2215 14 19.8332 11.3883 19.8332 8.16666C19.8332 4.945 17.2215 2.33333 13.9998 2.33333C10.7782 2.33333 8.1665 4.945 8.1665 8.16666C8.1665 11.3883 10.7782 14 13.9998 14Z" fill="#184B8A"/>
</svg>
