<svg width="82" height="82" viewBox="0 0 82 82" fill="none" xmlns="http://www.w3.org/2000/svg">
<g filter="url(#filter0_d_150_2739)">
<ellipse cx="41" cy="39" rx="25" ry="25" fill="#184B8A"/>
</g>
<g clip-path="url(#clip0_150_2739)">
<path fill-rule="evenodd" clip-rule="evenodd" d="M55.089 24.9034C51.8278 21.6467 47.5382 19.6214 42.9512 19.1726C38.3642 18.7238 33.7634 19.8792 29.9328 22.442C26.1021 25.0049 23.2784 28.8165 21.9428 33.2277C20.6073 37.6389 20.8424 42.3766 22.6081 46.6339C24.3739 50.8912 27.5611 54.4045 31.6267 56.5755C35.6923 58.7465 40.3848 59.4407 44.9048 58.5399C49.4249 57.6392 53.4928 55.1992 56.4157 51.6356C59.3385 48.072 60.9354 43.6052 60.9343 38.9963C60.9361 36.378 60.4206 33.7852 59.4175 31.3667C58.4144 28.9482 56.9435 26.7517 55.089 24.9034ZM40.9962 18.6466C45.7146 18.6418 50.2887 20.2733 53.9391 23.263C57.5895 26.2527 60.0903 30.4156 61.0154 35.0425C61.9405 39.6694 61.2327 44.4738 59.0126 48.6373C56.7924 52.8008 53.1973 56.0657 48.8398 57.8756C44.4824 59.6856 39.6321 59.9287 35.1155 58.5634C30.5989 57.1981 26.6954 54.309 24.0702 50.3884C21.4449 46.4677 20.2603 41.7581 20.7182 37.0619C21.1762 32.3657 23.2483 27.9736 26.5815 24.634C28.4709 22.7351 30.7172 21.2285 33.191 20.201C35.6648 19.1734 38.3174 18.6451 40.9962 18.6466Z" fill="white"/>
<path fill-rule="evenodd" clip-rule="evenodd" d="M55.8225 24.1699C52.3947 20.7418 47.8843 18.6081 43.0597 18.1324C38.2352 17.6568 33.395 18.8686 29.3637 21.5613C25.3324 24.2541 22.3594 28.2613 20.9512 32.9002C19.543 37.5391 19.7868 42.5228 21.6409 47.0021C23.4951 51.4815 26.8449 55.1794 31.1198 57.4659C35.3946 59.7524 40.33 60.4861 45.0851 59.5419C49.8401 58.5977 54.1208 56.0341 57.1977 52.2878C60.2747 48.5414 61.9575 43.8442 61.9596 38.9963C61.9608 36.243 61.4193 33.5164 60.3663 30.9724C59.3133 28.4284 57.7693 26.1169 55.8225 24.1699ZM40.9962 17C46.0828 17.0018 51.0115 18.7671 54.9427 21.9951C58.8738 25.2232 61.5642 29.7143 62.5555 34.7035C63.5469 39.6926 62.7778 44.8711 60.3793 49.3568C57.9809 53.8425 54.1014 57.358 49.4018 59.3043C44.7023 61.2506 39.4733 61.5073 34.6056 60.0308C29.738 58.5543 25.5328 55.4358 22.7064 51.2066C19.88 46.9775 18.6074 41.8992 19.1051 36.837C19.6029 31.7747 21.8404 27.0416 25.4364 23.444C27.4773 21.3975 29.9027 19.7746 32.573 18.6687C35.2433 17.5628 38.1059 16.9957 40.9962 17Z" fill="white"/>
<path fill-rule="evenodd" clip-rule="evenodd" d="M44.8655 52.191H44.5736V50.7466H44.2219L43.2489 52.1162V52.4829H44.2219V53.0218H44.5736V52.4829H44.8655V52.191ZM44.2144 51.1881V52.191H43.5258L44.2144 51.1881ZM41.9691 51.0085C42.0275 51.0092 42.0851 51.0221 42.1382 51.0464C42.1913 51.0707 42.2388 51.1058 42.2776 51.1495C42.3163 51.1932 42.3455 51.2445 42.3633 51.3001C42.381 51.3557 42.387 51.4145 42.3807 51.4725C42.3881 51.5315 42.383 51.5915 42.3658 51.6484C42.3486 51.7053 42.3197 51.758 42.2809 51.8031C42.2422 51.8482 42.1944 51.8847 42.1407 51.9103C42.087 51.9359 42.0285 51.9499 41.9691 51.9515C41.6997 51.9515 41.5725 51.7195 41.5725 51.4725C41.5725 51.2255 41.6922 51.0085 41.9766 51.0085H41.9691ZM41.2207 52.4455C41.2304 52.6176 41.3071 52.779 41.4344 52.8951C41.5617 53.0112 41.7295 53.0728 41.9018 53.0667C42.5454 53.0667 42.7624 52.4305 42.7624 51.8917C42.7624 51.2256 42.5978 50.7016 41.9616 50.7016C41.7631 50.7016 41.5728 50.7805 41.4324 50.9209C41.292 51.0612 41.2132 51.2516 41.2132 51.4501C41.2066 51.5501 41.2214 51.6503 41.2567 51.7441C41.2919 51.8379 41.3468 51.9231 41.4177 51.994C41.4886 52.0648 41.5738 52.1198 41.6676 52.155C41.7614 52.1903 41.8616 52.2051 41.9616 52.1985C42.0606 52.2026 42.159 52.1797 42.246 52.1323C42.333 52.0848 42.4054 52.0146 42.4556 51.9291C42.4556 52.2284 42.3807 52.6775 41.9841 52.6775C41.9412 52.6795 41.8983 52.6729 41.8581 52.6581C41.8178 52.6433 41.7808 52.6206 41.7494 52.5913C41.718 52.562 41.6928 52.5267 41.6753 52.4876C41.6577 52.4484 41.6482 52.4061 41.6473 52.3631L41.2207 52.4455ZM39.8735 51.0085C39.9319 51.0092 39.9895 51.0221 40.0426 51.0464C40.0957 51.0707 40.1432 51.1058 40.182 51.1495C40.2208 51.1932 40.2499 51.2445 40.2677 51.3001C40.2855 51.3557 40.2914 51.4145 40.2851 51.4725C40.2925 51.5315 40.2874 51.5915 40.2702 51.6484C40.253 51.7053 40.2241 51.758 40.1853 51.8031C40.1466 51.8482 40.0988 51.8847 40.0451 51.9103C39.9914 51.9359 39.933 51.9499 39.8735 51.9515C39.6041 51.9515 39.4768 51.7195 39.4768 51.4725C39.4768 51.2255 39.634 51.0085 39.9034 51.0085H39.8735ZM39.1251 52.4455C39.1348 52.6189 39.2125 52.7815 39.3415 52.8978C39.4704 53.0142 39.6401 53.0748 39.8136 53.0667C40.4498 53.0667 40.6668 52.4305 40.6668 51.8917C40.6668 51.2256 40.5097 50.7016 39.866 50.7016C39.6675 50.7016 39.4772 50.7805 39.3368 50.9209C39.1965 51.0612 39.1176 51.2516 39.1176 51.4501C39.111 51.5501 39.1258 51.6503 39.1611 51.7441C39.1964 51.8379 39.2512 51.9231 39.3221 51.994C39.393 52.0648 39.4782 52.1198 39.572 52.155C39.6658 52.1903 39.766 52.2051 39.866 52.1985C39.9652 52.2035 40.0638 52.1809 40.151 52.1334C40.2381 52.0858 40.3104 52.0151 40.36 51.9291C40.36 52.2284 40.2926 52.6775 39.8885 52.6775C39.846 52.6795 39.8034 52.6729 39.7636 52.658C39.7237 52.6431 39.6873 52.6203 39.6565 52.5909C39.6257 52.5615 39.6012 52.5262 39.5844 52.487C39.5677 52.4479 39.5591 52.4057 39.5592 52.3631L39.1251 52.4455ZM37.0744 51.4127H37.6357V53.0218H38.0399V50.7765H37.733C37.6806 51.0534 37.3813 51.1507 37.0744 51.1507V51.4127Z" fill="white"/>
<path fill-rule="evenodd" clip-rule="evenodd" d="M23.9994 34.3111C23.932 34.2138 23.7 34.1764 23.6476 34.139C23.5952 34.1015 23.5803 34.139 23.5653 34.0866C23.5503 34.0342 23.5653 34.0342 23.5653 33.9968C23.5653 33.9593 23.6701 33.8171 23.8347 33.862H23.9245C23.9245 33.9593 24.1491 34.1764 24.0593 34.2737C23.9694 34.371 24.0218 34.3186 23.9994 34.2737M24.4035 34.5431L24.5383 34.4683C24.6131 34.4084 24.6206 34.4308 24.6655 34.4308C24.7104 34.4308 24.6655 34.4308 24.7179 34.4308C24.8121 34.4458 24.9081 34.4458 25.0023 34.4308C25.0771 34.4308 25.0996 34.5207 25.0921 34.5506C25.0547 34.7751 25.0921 34.6629 24.9125 34.7152C24.8746 34.7398 24.8304 34.7528 24.7852 34.7527L24.4035 34.5431ZM26.3719 33.5851C26.3719 33.5851 26.3719 33.5851 26.327 33.5851C26.2821 33.5851 26.2372 33.5851 26.2147 33.5178L26.1623 33.4504C26.1099 33.4504 26.1623 33.4504 26.095 33.4504H25.9677L25.9228 33.413C25.9228 33.4504 25.8106 33.3307 25.6309 33.3456H25.4887C25.4887 33.3082 25.4887 33.3456 25.4887 33.3007L25.3391 33.151H25.3016L25.1819 33.0163C25.1147 32.9319 25.0395 32.8543 24.9574 32.7843L24.89 32.7095C24.89 32.6646 24.89 32.7095 24.89 32.6571C24.89 32.6122 25.0546 32.7693 25.1145 32.7768C25.1744 32.7843 25.1819 32.904 25.1594 32.9265C25.137 32.949 25.2567 33.0388 25.3016 33.0313C25.3465 33.0238 25.4962 33.1735 25.5561 33.1959L25.9902 33.3007C25.9902 33.3007 26.2297 33.3681 26.2222 33.3007C26.3794 33.3456 26.4243 33.2558 26.4767 33.2184V33.151C26.4767 33.1061 26.4767 33.151 26.5141 33.0912C26.5515 33.0313 26.5141 32.9789 26.4093 32.9939H26.2596C26.1498 32.9298 26.0313 32.882 25.9078 32.8517L25.7656 32.7918L25.6609 32.6346L25.4962 32.1482H25.4064C25.4064 32.1482 25.4064 32.1481 25.4064 32.1107C25.4064 32.0733 25.4064 32.1107 25.354 32.1107C25.354 32.0284 25.5636 32.1107 25.6609 32.1107C25.7582 32.1107 25.8854 32.193 25.9228 32.1556L26.4991 32.3278L26.806 32.44C26.8765 32.4844 26.9554 32.5139 27.0378 32.5268C27.1201 32.5396 27.2042 32.5356 27.285 32.5149L27.4422 32.3427L27.3524 32.238C27.2326 32.238 27.2625 32.238 27.2251 32.1931H26.8509C26.8509 32.0883 26.6563 32.1107 26.6563 32.0808C26.6563 32.1182 26.4318 32.0808 26.3943 32.1257C26.3943 32.1257 26.327 32.0209 26.3045 32.0658L26.1623 32.0059H26.1174L26.0201 32.0509H25.8704C25.8704 32.0509 25.7507 32.0509 25.7432 32.0509H25.5711L25.4064 32.1257C25.3316 32.0808 25.2942 31.8563 25.2268 31.8188C25.2258 31.6854 25.2108 31.5524 25.1819 31.4222L25.0996 31.3847C25.137 31.3099 24.9125 31.2949 24.8751 31.3398C24.8751 31.2874 24.8751 31.2575 24.8227 31.3398C24.8227 31.3922 24.8227 31.4147 24.7778 31.4596C24.7329 31.5045 24.7778 31.527 24.7778 31.5644L24.8376 32.0209L25.0023 32.3203V32.4176H24.9424L24.7254 32.3802C24.7254 32.3802 24.6655 32.2904 24.6056 32.2679H24.4335L24.2838 31.961C24.3418 31.8541 24.4177 31.7579 24.5083 31.6766C24.4335 31.6168 24.5532 31.4895 24.4185 31.4072C24.4115 31.4039 24.4038 31.4021 24.3961 31.4021C24.3883 31.4021 24.3806 31.4039 24.3736 31.4072C24.3362 31.4072 24.2089 31.2949 24.2239 31.4072C24.1865 31.5045 24.0742 31.497 24.0892 31.6317C24.1041 31.7665 23.9844 31.8188 24.0144 31.9087L24.0892 32.0134V32.0808H24.1416L24.3512 32.47L24.5383 32.7244L24.6356 32.8741C24.6805 32.934 24.688 33.0313 24.7778 33.0463V33.0912C24.8227 33.0912 24.7778 33.1361 24.8227 33.1361L24.9499 33.2783L25.0696 33.4504C25.122 33.4504 25.1445 33.5477 25.1894 33.5777C25.1894 33.5777 25.137 33.5777 25.1445 33.5777C25.152 33.5777 24.6954 33.2633 24.7403 33.2109C24.7852 33.1585 24.7403 33.1585 24.7403 33.2109L24.6505 33.1136C24.6505 33.1136 24.6505 33.1136 24.6056 33.1136C24.5607 33.1136 24.6056 33.1136 24.6056 33.0762H24.5008C24.3437 32.9864 24.3661 33.2259 24.3512 33.2932C24.3362 33.3606 24.3512 33.2932 24.3512 33.3456C24.3512 33.398 24.1565 33.3007 24.0967 33.2334C24.0368 33.166 24.0967 33.1286 23.9769 33.1136C23.8572 33.0986 23.7973 32.9041 23.7075 32.8666C23.6177 32.8292 23.7075 32.8666 23.6401 32.8666L23.4081 32.7768H23.3108C23.3108 32.8517 23.3108 32.8741 23.3482 32.9415C23.3857 33.0088 23.3483 32.9415 23.4156 33.0463L23.7823 33.3831L23.9096 33.4729L24.0443 33.5253L24.1865 33.6375L24.5233 33.7722C24.5233 33.8171 24.6355 33.8321 24.6655 33.8845C24.6954 33.9369 24.8825 34.1165 24.92 34.2737V34.4084L24.9723 34.5581C24.9723 34.6554 25.1071 34.6629 25.152 34.7227L25.2867 34.8275C25.2867 34.8275 25.369 34.8275 25.4438 34.9622L25.5935 35.1044L25.8106 35.3215L25.8779 35.3963C25.8779 35.4412 25.8779 35.3963 25.833 35.4562C26.0126 35.4562 26.0052 35.5685 26.1099 35.6059C26.2147 35.6433 26.3794 35.6059 26.4168 35.5385C26.4542 35.4712 26.4617 35.4188 26.4842 35.2915C26.5066 35.1643 26.1698 35.329 26.1623 35.2915C26.1548 35.2541 26.1623 35.2915 26.1174 35.2915L25.8629 35.1194H25.8106C25.8106 35.052 25.6384 34.9024 25.6085 34.8275C25.5786 34.7527 25.4439 34.7302 25.4738 34.6404C25.5037 34.5506 25.4738 34.5356 25.3615 34.4907L25.2567 34.3934C25.2567 34.3485 25.2567 34.3934 25.2567 34.3335L25.3016 34.1015C25.3016 34.1015 25.3016 34.1015 25.3465 34.0641C25.3914 34.0267 25.3465 34.0641 25.3914 34.0641H25.5336C25.5336 34.0192 25.5711 34.139 25.586 34.1614L25.7731 34.4308C25.7731 34.5207 25.8181 34.5506 25.8405 34.6254L26.0201 34.9024L26.1623 34.8275L26.2521 34.7227C26.312 34.7227 26.3719 34.7227 26.4243 34.7227V34.6479L26.5291 34.4832V34.3934C26.5291 34.3934 26.6638 34.4758 26.7162 34.4383C26.7686 34.4009 26.8808 34.3635 26.9033 34.2812V34.1764C26.9033 34.1764 26.9033 34.1764 26.8584 34.1764C26.8135 34.1764 26.791 34.1764 26.7611 34.1764C26.7311 34.1764 26.4318 33.6749 26.3719 33.6151V33.5851Z" fill="white"/>
<path fill-rule="evenodd" clip-rule="evenodd" d="M25.7207 29.1245V29.0497L25.848 28.8252C25.9004 28.7353 26.0725 28.6904 26.1024 28.6455H26.2671C26.3045 28.6455 26.3195 28.6455 26.3569 28.6455V28.7279C26.4018 28.7279 26.3569 28.7279 26.4093 28.7802C26.4617 28.8326 26.4916 28.7802 26.4692 28.8177C26.4467 28.8551 26.4692 28.8177 26.4692 28.8925L26.6413 29.0422V29.117C26.6413 29.117 26.6413 29.1544 26.5889 29.117C26.5366 29.0796 26.5216 29.1545 26.4467 29.2293V29.3116C26.5291 29.364 26.3494 29.4089 26.312 29.4014L26.1923 29.1994L26.0351 29.0721C25.9603 29.0721 25.8929 29.1095 25.8255 29.0721L25.7656 29.0123L25.7207 29.1245ZM28.0858 30.8833C28.1457 30.816 28.1307 30.9432 28.2729 30.7411V30.6663L28.1681 30.6139H28.0409C28.0409 30.6139 28.0409 30.569 27.996 30.569V30.5091L27.8762 30.3744C27.86 30.3522 27.8385 30.3344 27.8137 30.3226C27.7888 30.3109 27.7615 30.3055 27.734 30.307L27.5469 30.1723C27.5469 30.1199 27.502 30.1049 27.4721 30.0975L27.4272 30.0151C27.4272 29.9553 27.4272 30.0151 27.4272 29.9478L27.3598 29.8729L27.2925 29.8355C27.1353 29.8355 27.2924 29.9553 27.2251 29.9852H27.1128C27.1128 29.9852 27.1128 29.9852 27.0754 29.9852C27.038 29.9852 26.7536 29.9852 26.8584 30.1723L26.9706 30.3295C27.0081 30.3295 27.2476 30.4642 27.285 30.2322C27.285 30.2322 27.285 30.2322 27.285 30.1798L27.3748 30.3669L27.4272 30.554V30.6738C27.4126 30.6974 27.4049 30.7246 27.4049 30.7523C27.4049 30.7801 27.4126 30.8073 27.4272 30.8309C27.3823 30.8983 27.4272 30.8758 27.4646 30.9058L27.5769 31.0255C27.5769 31.0854 27.6367 31.0255 27.6592 31.1153C27.6592 31.1153 27.7789 31.0255 27.8313 31.048C27.8837 31.0704 27.8762 31.048 27.8912 31.048C27.9062 31.048 28.0409 30.8908 28.0858 30.8758V30.8833ZM27.0829 28.2339V28.189C27.0006 28.1441 27.1503 27.942 27.2027 27.9794C27.3673 28.0917 27.3972 28.3761 27.532 28.5333V28.6231C27.5993 28.6231 27.532 28.5632 27.6293 28.7653L27.7191 28.885C27.7191 28.9599 27.8313 29.0347 27.8388 29.132V29.2368C27.7864 29.3266 27.8388 29.2892 27.8388 29.364C27.8388 29.4389 27.9062 29.6559 27.9511 29.611C27.996 29.5661 28.0484 29.6709 28.1681 29.611L28.3926 29.5511C28.3926 29.5511 28.3926 29.5511 28.46 29.5511C28.6029 29.4039 28.7126 29.2278 28.7818 29.0347L28.9539 28.5258L29.0063 28.406V28.2039L28.924 28.0917C28.924 28.0019 28.7444 28.0169 28.707 28.1291L28.5498 28.421C28.5498 28.5033 28.4151 28.5407 28.4824 28.638L28.4226 28.8701L28.3552 29.0197V28.9748L28.2654 28.9299C28.213 28.9299 28.1007 28.8476 28.1531 28.7653C28.2055 28.6829 28.1531 28.7653 28.1531 28.7204H28.1157V28.653L28.0259 28.4135L27.9586 28.3536L27.8238 28.1516C27.8238 28.1516 27.7715 28.1516 27.7266 28.0168C27.6817 27.8821 27.7266 28.0168 27.6742 28.0168V27.927C27.6742 27.8896 27.6742 27.8821 27.6742 27.8522C27.6742 27.8222 27.6742 27.7998 27.6742 27.7624V27.71C27.6742 27.6426 27.5993 27.5379 27.5245 27.5154L27.3898 27.3133C27.3898 27.231 27.3299 27.1936 27.3299 27.1187C27.3299 27.0439 27.27 27.0439 27.2176 27.0139H27.0904C27.0904 27.0139 27.0904 27.014 27.0904 26.9765C27.0904 26.9391 26.8958 27.1038 26.8659 27.1487L26.6787 27.5079C26.7461 27.5753 26.7236 27.6726 26.7536 27.7699V28.2713H26.791C26.791 28.3686 26.9931 28.87 26.9557 29.0197H27.0754C27.1727 28.8626 27.0754 29.0197 27.1652 28.7428V28.4958L27.0829 28.2339Z" fill="white"/>
<path fill-rule="evenodd" clip-rule="evenodd" d="M29.9269 26.0635C29.9269 25.9736 29.8446 25.8988 29.8596 25.824L29.6874 25.2327L29.4629 25.1953V25.1279L29.665 25.0306V24.9034C29.5677 24.8585 29.665 24.2972 29.665 24.1999C29.6724 24.1237 29.6953 24.0498 29.7323 23.9828L29.8222 23.7209C29.9194 23.5637 30.099 23.6685 30.1739 23.7807L30.2488 23.7284L30.3311 23.8032L30.2488 23.9005C30.2488 23.9005 30.1215 23.9005 30.114 23.7957C30.1066 23.6909 30.0541 23.893 30.0242 23.9005V24.5142C29.9793 24.5142 30.0242 24.5142 29.9868 24.5591C29.9903 24.5713 29.9903 24.5843 29.9868 24.5965V24.7986C29.9868 24.7986 29.9868 24.7986 30.0317 24.7986C30.1439 24.6863 30.4059 24.5666 30.4284 24.387L30.4733 24.125C30.4733 24.0427 30.5855 23.9454 30.5556 23.8631L30.7801 23.676C30.8624 23.7134 30.8849 23.6236 30.9897 23.676C30.9897 23.676 30.9897 23.676 31.0271 23.676V23.8331C30.9597 23.8855 30.9747 23.9304 30.9074 23.9753C30.84 24.0202 30.9074 23.9753 30.9074 24.0202L30.8475 24.0577L30.7726 24.125C30.7726 24.1699 30.7053 24.1774 30.7203 24.2298L30.6604 24.2672C30.6978 24.3196 30.8101 24.2672 30.8026 24.3795V24.5666L30.7277 24.604L30.5107 24.7462C30.3719 24.8182 30.223 24.8687 30.0691 24.8959C29.9568 24.8959 30.0691 25.0231 29.9943 25.083C29.9943 25.083 29.9943 25.083 29.9943 25.1204C29.9943 25.1204 29.9943 25.1204 30.0317 25.1204V25.3824C30.0317 25.4273 30.114 25.4572 30.0317 25.4946C30.0317 25.5545 30.0841 25.5919 30.0317 25.6443L30.0916 25.7566L30.1739 25.8614L30.2113 26.0335C30.361 25.9063 30.3311 25.809 30.4209 25.7566C30.5107 25.7042 30.4658 25.7566 30.4209 25.6368L30.2113 25.1728C30.2487 25.1129 30.2113 25.0456 30.3012 25.0082C30.391 24.9707 30.3012 24.9707 30.3012 24.9333C30.3012 24.8959 30.3386 24.8061 30.4359 24.7836C30.5332 24.7612 30.5257 24.7088 30.6005 24.7836H30.7352C30.7352 24.7836 30.7352 24.7836 30.7801 24.7313H30.8699C30.9448 24.7313 31.0047 24.7836 31.0421 24.7313C31.0795 24.6789 31.0421 24.7313 31.1019 24.7313C31.2441 24.8585 31.102 24.8585 31.1768 25.0306C31.1768 25.0306 31.1768 25.0306 31.1768 25.083C31.2217 25.1429 31.2741 25.2477 31.2367 25.315C31.304 25.4273 31.102 25.577 31.0795 25.6219C31.0795 25.6219 31.0795 25.6219 31.0795 25.6593C31.0795 25.6967 30.9148 25.7341 30.9597 25.8389C31.0163 25.9994 31.0917 26.1527 31.1843 26.2955C31.1843 26.2955 31.1843 26.2955 31.2292 26.3329L31.3863 26.5873C31.3863 26.6322 31.4762 26.7744 31.5435 26.7744L31.5884 26.8792C31.6483 26.8792 31.5884 26.9541 31.5884 26.984C31.5884 27.014 31.5884 26.984 31.4013 27.0514C31.3564 27.014 31.3489 27.0514 31.2441 27.0514L31.1169 26.9616V26.8942C31.072 26.8343 30.9523 26.8493 31.0645 26.7969C31.0645 26.7595 31.0645 26.7969 31.0645 26.7221C31.0645 26.6472 30.9822 26.5424 30.9373 26.5649C30.8924 26.5873 30.9373 26.6023 30.9373 26.6472L30.8774 26.8643L30.7502 27.1561L30.6754 27.3807V27.5977C30.5856 27.6501 30.6229 27.71 30.5481 27.7474C30.4508 27.7998 30.4433 27.7474 30.3535 27.7474C30.2936 27.695 30.2936 27.7998 30.2188 27.7474H30.1215V27.695C30.1215 27.6501 30.1215 27.695 30.1215 27.6501L29.9644 27.3657C29.9644 27.3657 29.9643 27.2984 30.0317 27.2534L30.1365 27.1262C30.1445 27.1206 30.1538 27.1174 30.1636 27.1169C30.1733 27.1163 30.183 27.1185 30.1915 27.1232C30.2001 27.1279 30.2072 27.1348 30.212 27.1433C30.2168 27.1518 30.2192 27.1614 30.2188 27.1711C30.2188 27.216 30.3236 27.3283 30.3835 27.3133C30.4433 27.2983 30.3835 27.3957 30.4284 27.4031L30.7427 26.984C30.7427 26.9167 30.8026 26.9466 30.7427 26.8792L30.9448 26.5424L30.7876 26.3179C30.7202 26.3179 30.6903 26.4601 30.5631 26.4676H30.4059C30.4059 26.5125 30.2413 26.4676 30.1889 26.4676C30.1889 26.4676 30.1889 26.4676 30.1365 26.4676C30.0841 26.4676 30.1365 26.4302 30.1365 26.4227L29.9868 26.3853C29.9636 26.3491 29.9387 26.3141 29.912 26.2805C29.9494 26.2431 29.912 26.2131 29.912 26.1682C29.8857 26.0905 29.8857 26.0064 29.912 25.9287M30.8699 25.33C30.9298 25.3824 30.8699 25.4572 30.9373 25.3824C31.0047 25.3075 30.9373 25.345 30.9373 25.315C30.9373 25.2851 30.8774 25.4572 30.8849 25.4647L30.8699 25.33ZM31.8878 25.7641C31.8878 25.7641 31.8878 25.7641 31.8204 25.8389C31.7531 25.9138 31.8204 25.9362 31.8204 25.9437C31.8204 25.9512 31.8204 25.9437 31.8653 26.0036C31.9102 26.0634 31.8653 26.0036 31.9102 26.0036L32.2246 26.1907L32.4342 26.2281C32.4342 26.2655 32.4865 26.2281 32.5315 26.2281L32.7485 26.0635L32.8233 26.0036C32.8233 26.0036 32.8233 25.9063 32.771 25.9138C32.7186 25.9212 32.6287 25.809 32.5764 25.7566L32.509 25.6892C32.509 25.6892 32.509 25.6892 32.4566 25.6892L32.3144 25.6518H32.0524L31.9028 25.7491L31.8878 25.7641Z" fill="white"/>
<path fill-rule="evenodd" clip-rule="evenodd" d="M37.516 22.6282C37.516 22.6282 37.2016 22.4935 37.2241 22.4186C37.2466 22.3438 37.3812 22.3288 37.4636 22.3138C37.5459 22.2989 37.6732 22.3138 37.6881 22.3513C37.7031 22.3887 37.6881 22.3513 37.7629 22.3513L37.8453 22.3887C37.8453 22.3887 37.8453 22.3887 37.8453 22.4336C37.8453 22.4935 37.8902 22.4785 37.8453 22.5458C37.8004 22.6132 37.8453 22.5458 37.8004 22.5458C37.7555 22.5458 37.8004 22.5833 37.8004 22.5982H37.6881C37.6881 22.5982 37.5309 22.6881 37.516 22.6282ZM38.5937 22.6282C38.5937 22.5908 38.5563 22.5309 38.5338 22.486V22.1417L38.6311 21.8348C38.7051 21.75 38.8051 21.6921 38.9155 21.6702L39.1101 21.5429L39.4619 21.3109L39.7163 21.2286L39.8585 21.3858C39.8585 21.3858 39.8585 21.4606 39.7986 21.4681V21.8573H39.7612C39.7612 21.9097 39.7612 21.9172 39.7163 21.9247L39.8211 22.0145H39.866C39.866 22.1043 39.866 22.1192 39.8061 22.1791C39.7463 22.239 39.4843 22.3812 39.4918 22.4485C39.3795 22.4485 39.3122 22.703 39.2523 22.7853C39.1924 22.8677 39.2523 22.9201 39.2523 22.935V23.1446C39.2523 23.1446 39.2523 23.1446 39.2523 23.197C39.2523 23.2494 39.17 23.3392 39.0652 23.414V23.4514C39.0652 23.4889 39.0652 23.4514 39.0652 23.5188C39.0652 23.5637 39.0652 23.5188 39.0652 23.5862V23.6535C39.0395 23.6758 39.0086 23.6912 38.9754 23.6984H38.7584C38.7584 23.646 38.6311 23.6086 38.5638 23.4964L38.474 23.3092C38.474 23.3092 38.474 23.3092 38.5189 23.3092V23.197C38.5713 23.197 38.6012 23.1521 38.5862 23.0772C38.5712 23.0024 38.6386 22.9575 38.7135 22.9575C38.7883 22.9575 38.7135 22.8901 38.7584 22.8452L38.8482 22.6806L38.9305 22.5458C39.0053 22.5458 39.0053 22.4411 39.0577 22.3887V22.3363L39.1251 22.1193C39.1775 22.007 39.2748 21.9247 39.2823 21.7825C39.2898 21.6402 39.3496 21.7151 39.2823 21.6402L39.0652 21.7301C39.0671 21.7719 39.0577 21.8134 39.038 21.8503C39.0182 21.8872 38.9888 21.9181 38.953 21.9396H38.9006C38.8482 21.977 38.8108 21.9396 38.8108 22.022C38.8108 22.1043 38.8108 22.0219 38.8108 22.0743C38.8108 22.1267 38.8107 22.224 38.8631 22.2165C38.9155 22.209 38.8631 22.3662 38.9305 22.3662V22.4111C38.9305 22.4111 38.9305 22.4111 38.9305 22.4935C38.6985 22.7554 38.6985 22.6431 38.5937 22.6207V22.6282ZM38.0623 21.4681C38.2644 21.281 38.2195 21.3633 38.3093 21.1987C38.3991 21.034 38.4515 21.0939 38.4889 21.034V20.8918C38.4889 20.8918 38.4889 20.8918 38.4889 20.8544H38.3318C38.227 20.817 38.0848 20.9218 38.0099 21.0041L37.6582 21.3184L37.471 21.4232C37.471 21.4756 37.471 21.4232 37.471 21.4756L37.2839 21.7525L37.1342 21.977L36.9696 22.3812V22.7778L37.007 23.1446C37.0113 23.1919 37.0113 23.2395 37.007 23.2868C37.007 23.2868 37.007 23.2868 37.007 23.3317V23.4514C37.0669 23.6685 37.2241 23.5712 37.0819 23.8032L37.0444 24.0502L36.9771 24.1999C36.9771 24.1999 36.9771 24.2373 37.022 24.2522C37.0669 24.2672 37.022 24.4094 37.1492 24.3945L37.3139 24.5067L37.4561 24.4094V24.3046H37.5758C37.733 24.3046 37.7031 24.1175 37.7555 24.0053C37.8078 23.9604 37.8378 23.8107 37.8752 23.8182V23.7583C37.9126 23.6535 37.9426 23.8631 37.8752 23.8631C37.8489 24.027 37.8669 24.195 37.9276 24.3495C37.9725 24.3945 37.9875 24.4693 38.0548 24.4918L38.1671 24.5367C38.3542 24.619 38.2719 24.5366 38.2494 24.4843C38.227 24.4319 38.2494 24.4843 38.2494 24.4468V24.2972C38.2494 24.2972 38.2494 24.2972 38.2494 24.2522C38.2494 24.2073 38.2494 24.2523 38.2494 24.2073L38.1896 24.14C38.1896 24.14 38.1896 24.0801 38.1896 24.0726V23.9529C38.1896 23.9529 38.1896 23.9529 38.1896 23.908V23.8032L38.2494 23.6835C38.2494 23.6386 38.3168 23.6086 38.2943 23.5487V23.1371C38.2943 23.1371 38.2943 23.1371 38.2943 23.0847V23.0323C38.2943 23.0323 38.2943 22.9874 38.2943 22.965V22.8677C38.2943 22.8677 38.2943 22.8228 38.2943 22.8003V22.6806L38.3392 22.6282V22.3887L38.3842 22.2689C38.3842 22.2689 38.2943 22.5459 38.2195 22.5608C38.1446 22.5758 38.2195 22.6806 38.1297 22.6806V22.5683C38.1159 22.5417 38.1087 22.5122 38.1087 22.4822C38.1087 22.4523 38.1159 22.4228 38.1297 22.3962V22.3138C38.1746 22.3138 38.1297 22.1791 38.0848 22.1567L37.995 22.0145V21.9471C37.995 21.9471 37.9276 21.8199 37.8827 21.8498C37.8378 21.8797 37.8378 22.0219 37.8378 22.0968C37.8698 22.3906 37.9275 22.6811 38.0099 22.965C38.0099 22.965 37.9501 23.1521 37.8602 23.2045C37.7704 23.2568 37.8602 23.1521 37.8078 23.1146C37.7555 23.0772 37.5609 23.0473 37.471 23.0548C37.3812 23.0623 37.3214 23.167 37.2989 23.167L37.2465 23.3691C37.2465 23.3691 37.2465 23.3167 37.2465 23.3018V23.1596L37.2914 23.0847V22.9575C37.2914 22.9126 37.2915 22.703 37.2241 22.688C37.2241 22.688 37.2241 22.6506 37.2241 22.6431C37.2241 22.6357 37.2241 22.4785 37.2765 22.456C37.2765 22.456 37.3139 22.4036 37.3214 22.3662C37.3288 22.3288 37.3214 22.3662 37.3962 22.239C37.3962 22.239 37.3962 22.1043 37.4636 22.0893V22.0369C37.5309 21.9546 37.5609 21.7675 37.6956 21.7301L37.8453 21.8124H37.9351L37.9725 21.7675L38.0623 21.4681ZM40.0456 23.5562C40.1354 23.5562 40.0456 23.5562 40.1354 23.5936C40.2253 23.6311 40.2702 23.5936 40.3076 23.5936C40.345 23.5936 40.3824 23.5936 40.3899 23.5936C40.3974 23.5936 40.3899 23.5936 40.3899 23.5263C40.3899 23.4589 40.3899 23.4215 40.3899 23.4065C40.3899 23.3916 40.3899 23.4065 40.3899 23.2494H40.345C40.345 23.197 40.2776 23.1895 40.2776 23.1371C40.2776 23.0847 40.2777 23.1371 40.2028 23.1371C40.128 23.1371 40.0382 23.0024 39.9708 22.9949C39.9035 22.9874 39.7463 22.9201 39.5966 22.9949L39.7762 23.1371V23.4739C39.7762 23.4739 39.8211 23.5487 39.8211 23.5338L40.0456 23.5562ZM37.6582 23.3916C37.6582 23.3467 37.6582 23.3916 37.6582 23.3242C37.6582 23.2568 37.7031 23.2494 37.7779 23.2344L37.8303 23.1895L37.6582 23.3916Z" fill="white"/>
<path fill-rule="evenodd" clip-rule="evenodd" d="M43.5782 23.1371C43.5782 23.2269 43.6157 23.2943 43.5782 23.3766C43.4047 23.4023 43.2297 23.4173 43.0543 23.4215H42.9495H43.0319C43.0319 23.3467 43.1292 23.4215 43.1591 23.3691C43.1591 23.3691 43.1591 23.3691 43.1591 23.3092C43.1591 23.2494 43.1591 23.2718 43.2489 23.3092V23.2718L43.4136 23.2119C43.4136 23.2119 43.4136 23.2569 43.4136 23.2643M43.1366 22.5758C43.2115 22.5758 43.1965 22.486 43.2564 22.4411V22.3587L43.3537 22.2689L43.2714 22.2091L43.1142 22.2839V22.1267C43.1142 22.1267 43.1516 21.8797 43.2265 21.8498H43.2714C43.2755 21.825 43.2755 21.7997 43.2714 21.775V21.7151L43.3238 21.5205C43.2489 21.5205 43.2639 21.3334 43.204 21.3109L43.0468 21.3633H42.9645H43.189L43.0992 21.4756L42.972 21.7076L42.8971 22.1866C42.8971 22.2315 42.8972 22.1866 42.8597 22.224C42.848 22.2294 42.8352 22.2322 42.8223 22.2322C42.8094 22.2322 42.7966 22.2294 42.7849 22.224C42.7849 22.224 42.5454 22.2914 42.5603 22.3438C42.4181 22.3438 42.4855 22.3438 42.3807 22.4411L42.3134 22.5458L42.4331 22.95L42.5005 22.9949C42.6277 22.9949 42.5005 23.0398 42.6427 23.0398L42.6876 22.9799L42.7549 22.92V23.0772H42.6951C42.6951 23.1521 42.5753 23.1446 42.5154 23.1895C42.4556 23.2344 42.5155 23.1895 42.4631 23.1895C42.2835 23.1371 42.3059 23.1895 42.276 23.1895C42.246 23.1895 42.1787 23.1895 42.1637 23.1895H41.8194C41.8194 23.2718 41.6622 23.1895 41.6847 23.3167C41.6847 23.3167 41.7371 23.3167 41.6847 23.3841V23.646H41.782C41.782 23.6909 41.8419 23.646 41.9467 23.6984C42.0515 23.7508 42.0964 23.7658 42.1787 23.8032C42.261 23.8406 42.1787 23.8032 42.2385 23.8406H42.6502C42.8373 23.8406 42.6951 23.9155 43.0319 23.8855H43.4136L43.5707 23.8406H43.7878C43.8402 23.8406 43.9075 23.893 43.93 23.9155L44.0797 23.9828L44.2219 24.0577C44.2219 24.0577 44.2219 24.11 44.3641 24.1325H44.5138C44.5138 24.1325 44.6111 24.1325 44.5662 24.0726C44.6186 24.0726 44.5662 23.9529 44.5662 23.9379C44.5662 23.923 44.1545 23.5787 44.1096 23.6011C44.0497 23.5487 43.8327 23.429 43.7653 23.4514L43.7055 23.3991L43.7429 23.3317C43.7429 23.3317 43.7429 23.3317 43.7429 23.2793C43.7429 23.2269 43.7429 23.2194 43.7429 23.2344C43.7429 23.2494 43.7429 23.2344 43.7429 23.167V23.0922C43.7429 23.0922 43.8177 22.8228 43.8926 22.8078C43.9674 22.7928 44.2443 22.5533 44.3416 22.5758C44.4389 22.5982 44.4838 22.5384 44.5287 22.5384L44.7308 22.3737C44.7308 22.3363 44.7757 22.3737 44.8206 22.2091C44.8206 22.2091 44.8206 22.2091 44.8206 22.1417C44.8206 22.0743 44.8206 22.0893 44.8206 22.0594C44.8206 22.0294 44.8206 21.8423 44.7084 21.8199L44.4838 21.7525V21.8498C44.4838 21.8498 44.4838 21.8498 44.4838 21.9172L44.3342 22.0294C44.2668 22.0294 44.2668 22.0668 44.162 22.0294C44.162 22.0294 44.162 22.0294 44.2069 21.992C44.2518 21.992 44.2069 21.775 44.2892 21.775C44.2892 21.6178 44.3865 21.6702 44.3791 21.5804C44.3716 21.4906 44.5063 21.4232 44.3791 21.3184C44.3791 21.3633 44.379 21.3184 44.2967 21.3184C44.2518 21.4906 44.2069 21.4531 44.177 21.5729C44.147 21.6926 44.177 21.5729 44.177 21.6552C44.177 21.7375 44.0946 21.8573 44.0423 21.9172L43.945 22.1267C43.8776 22.209 43.945 22.4036 43.8177 22.4485L43.5333 22.6207L43.4136 22.7255C43.4136 22.7853 43.4136 22.7255 43.3462 22.7704L43.1815 22.8677L43.1142 22.9275L43.189 22.7778H43.1516L43.2115 22.6955V22.6581C43.2104 22.6382 43.2104 22.6182 43.2115 22.5982C43.2115 22.5982 43.2938 22.4411 43.3013 22.3887L43.1366 22.5758Z" fill="white"/>
<path fill-rule="evenodd" clip-rule="evenodd" d="M47.021 22.703C46.9686 22.6656 46.9237 22.6656 47.021 22.6581V22.6207C47.1482 22.6731 47.5374 22.688 47.5748 22.5608L47.6721 22.3138L47.717 22.2315C47.7804 22.0884 47.8635 21.9549 47.964 21.8348L48.0613 21.7525L48.2484 21.6253C48.3715 21.5794 48.507 21.5794 48.6301 21.6253L48.5852 21.6926L48.5477 21.7525H48.5028C48.5028 21.8049 48.4505 21.8049 48.428 21.8423L48.3232 21.9246L48.2259 22.0219L48.1062 22.1567L48.0538 22.2016C48.0538 22.2016 48.0538 22.2016 48.0014 22.2764L47.9415 22.3288C47.9789 22.3288 47.9415 22.4186 48.0313 22.4186C48.1375 22.4318 48.2396 22.4675 48.3307 22.5234V22.6057C48.3307 22.6581 48.3307 22.6057 48.3307 22.6656H48.1436C48.0538 22.7255 47.9565 22.6656 47.9415 22.7404L47.7619 22.7853C47.7619 22.8228 47.7619 22.7853 47.7619 22.8302L47.7095 22.8976C47.7095 22.8976 47.5823 23.1221 47.6048 23.1221C47.6272 23.1221 47.6047 23.182 47.6571 23.1595C47.7095 23.1371 47.6571 23.1595 47.732 23.1595C47.8068 23.1595 47.732 23.1595 47.732 23.197C47.732 23.2344 47.6796 23.2419 47.6646 23.2793C47.6496 23.3167 47.6646 23.2793 47.6646 23.3242C47.6646 23.3691 47.6122 23.3616 47.6646 23.3766C47.6272 23.3766 47.6122 23.3766 47.6646 23.3766C47.6122 23.3766 47.5898 23.414 47.5524 23.3766L47.4027 23.4739L47.3578 23.5936C47.2979 23.5936 47.3203 23.7658 47.253 23.7583V23.908C47.253 23.908 47.253 23.9529 47.253 23.9753L47.1782 24.1624C47.1782 24.1624 47.1782 24.2672 47.1407 24.2971V24.372C47.1407 24.372 47.1407 24.372 47.1407 24.4169L47.0883 24.5516L46.9312 24.4618C46.9312 24.4244 46.9312 24.3795 46.9312 24.3421C46.9312 24.3046 46.9311 23.9978 47.0135 23.9753V23.8406L47.0883 23.6535V23.6011C47.0883 23.6011 47.0883 23.6011 47.0434 23.6011L47.1033 23.5413C47.0863 23.5358 47.0679 23.5365 47.0515 23.5434C47.035 23.5502 47.0215 23.5627 47.0135 23.5787C46.9536 23.5787 46.9686 23.6311 46.8937 23.5787C46.8933 23.5882 46.8905 23.5975 46.8857 23.6057C46.8809 23.614 46.8742 23.621 46.8661 23.6261C46.8581 23.6312 46.8489 23.6344 46.8393 23.6352C46.8298 23.6361 46.8203 23.6347 46.8114 23.6311C46.8114 23.676 46.8114 23.6311 46.8114 23.676C46.8114 23.7209 46.8114 23.676 46.774 23.676L46.6243 23.7284C46.6243 23.7658 46.6243 23.7284 46.5869 23.7882C46.4971 24.0277 46.5345 24.0053 46.4147 23.8855V23.8406H46.3698L46.3025 23.7059V23.6086C46.2501 23.6086 46.3025 23.5712 46.3025 23.5487V23.3167H46.3698C46.5195 23.2269 46.5345 23.2718 46.5719 23.2344C46.6094 23.197 46.7141 23.2344 46.7441 23.2344H46.7815L46.8563 23.197C47.0052 23.2131 47.1555 23.1872 47.2904 23.1221C47.3278 23.0323 47.3877 23.1221 47.4551 22.92L47.5524 22.6955L47.6871 22.6057L47.747 22.4935H47.6646C47.6611 22.4812 47.6611 22.4682 47.6646 22.456H47.5898C47.5898 22.4111 47.5149 22.4186 47.485 22.3887C47.4551 22.3668 47.4224 22.3492 47.3877 22.3363L47.021 22.703ZM48.8546 23.8631L49.1016 23.908C49.1016 23.908 48.9818 23.9903 48.8845 24.1475L48.5926 24.387C48.5403 24.4319 48.4879 24.387 48.4579 24.4768H48.4055C48.4055 24.5217 48.4055 24.5142 48.3606 24.4768H48.1511L47.8068 24.3046L47.5075 24.2223L47.5823 24.3944L47.8218 24.5292H47.747C47.747 24.5292 47.747 24.5292 47.6946 24.5292C47.6422 24.5292 47.6946 24.5292 47.6497 24.4917L47.5823 24.5292H47.3952C47.0509 24.4768 47.2904 24.7687 47.3129 24.7836C47.3353 24.7986 47.3802 24.7836 47.3952 24.7836L47.5299 24.8809L47.732 24.9558C47.8517 24.9558 47.8966 25.068 48.0688 24.9558C48.0688 24.9558 48.2708 24.8809 48.3232 24.9558C48.3756 25.0306 48.4654 25.0007 48.4729 25.0456L48.6675 25.2551C48.7723 25.3749 48.8247 25.3749 48.907 25.5395C48.9893 25.7042 49.1465 25.7042 49.2213 25.6518C49.2962 25.5994 49.2213 25.6518 49.2588 25.6518L49.371 25.5321C49.3345 25.3521 49.2398 25.189 49.1016 25.068L49.0492 24.9708L48.8621 24.8585H48.7797C48.7797 24.8585 48.7798 24.8585 48.7274 24.8585L48.7947 24.8061C48.7947 24.8061 48.7947 24.7163 48.877 24.7163C48.8799 24.704 48.8799 24.6912 48.877 24.6789C48.877 24.6339 49.1166 24.4319 49.1839 24.4917C49.1839 24.4394 49.2737 24.4917 49.2737 24.4244C49.2737 24.357 49.2737 24.4244 49.3486 24.4244L49.4459 24.3121L49.5132 24.1999V24.0801L49.5581 24.0202L49.5207 23.908C49.4683 23.8182 49.4683 23.8556 49.4608 23.8182L49.3411 23.7583L48.9145 23.676V23.6236L49.0342 23.5562H49.0941C49.3112 23.6385 49.4384 23.4215 49.6554 23.3916C49.8725 23.3616 49.8725 23.3242 49.9773 23.3916C50.082 23.4589 50.1195 23.3392 50.1569 23.2868C50.1569 23.2868 50.1569 23.2868 50.1569 23.2269V23.1595L49.9324 23.0622V22.9799C49.9324 22.9051 49.8725 22.9126 49.8875 22.8901L50.0371 22.7778C50.0371 22.7778 50.0371 22.7255 50.0371 22.6955L49.9249 22.3887L49.865 22.2914C49.6629 22.2165 49.5282 22.4036 49.4608 22.3812L49.2513 22.5608C49.2064 22.6132 49.1241 22.7554 49.0567 22.7554L48.8172 22.9949C48.5777 22.9949 48.7498 22.9949 48.4654 22.9126L48.66 23.1521L48.5552 23.3317L48.4654 23.4065L48.3831 23.5338C48.3831 23.6311 48.3831 23.6011 48.3382 23.661L48.3981 23.7358V23.8182C48.3232 23.9304 48.3981 23.878 48.443 23.9379L48.5103 24.0053C48.5103 24.0577 48.5104 24.0726 48.5852 24.0876C48.6526 24.0876 48.5852 24.0277 48.6675 24.0352C48.7498 24.0427 48.6675 24.0352 48.6675 23.9828L48.7648 23.9304L48.8546 23.8631Z" fill="white"/>
<path fill-rule="evenodd" clip-rule="evenodd" d="M51.7286 26.3778L52.6267 25.4946L52.739 25.4422H52.7914C52.7315 25.5096 52.6267 25.5021 52.5519 25.5171C52.477 25.5321 52.5519 25.5171 52.5519 25.4722L51.7286 26.3778ZM52.1851 26.6697L52.3723 26.8119C52.5369 26.9316 52.3722 26.8568 52.5968 27.0588V27.2609L52.6417 27.463C52.6208 27.4734 52.6028 27.4889 52.5893 27.5079V27.5977C52.5369 27.7923 52.4995 27.7399 52.4546 27.7774C52.4097 27.8148 52.3722 27.8297 52.3498 27.8372L52.26 27.7848C52.2076 27.7848 52.2076 27.6651 52.2001 27.6576C52.1926 27.6501 52.2001 27.6576 52.1552 27.6576V27.4031C52.1552 27.4031 52.1552 27.4031 52.1552 27.3582C52.1552 27.3133 52.1552 27.2984 52.1552 27.231C52.1519 27.2162 52.1519 27.2009 52.1552 27.1861L52.1103 26.7894C52.1103 26.7894 52.1103 26.752 52.1103 26.7295C52.1103 26.7295 52.0729 26.7295 52.1103 26.6846L52.1851 26.6697ZM53.7568 25.6743C53.7568 25.6743 53.7568 25.6743 53.7568 25.6368C53.7568 25.5994 53.7568 25.6368 53.7194 25.6368L53.6221 25.794C53.6221 25.8539 53.6595 25.8913 53.6221 25.9362C53.5847 25.9811 53.5548 26.0485 53.6221 26.1084C53.6895 26.1682 53.6221 26.2056 53.6221 26.2655V26.4077C53.6221 26.4077 53.6221 26.4077 53.6221 26.4526H53.7044L53.8541 26.5799C53.9398 26.5569 54.0142 26.5038 54.0637 26.4302C54.1086 26.3478 54.0637 26.1608 54.0637 26.1383C54.0637 26.1383 53.8242 25.6294 53.7568 25.6743ZM50.5835 25.7641H51.4741C51.3993 25.7042 51.3693 25.7641 51.272 25.7641H51.0026C50.9652 25.7641 50.9502 25.7117 50.9352 25.7641C50.9352 25.7641 50.8754 25.7641 50.823 25.7641L50.6583 25.809C50.561 25.8464 50.4488 25.809 50.3814 25.9212C50.3141 26.0335 50.2467 26.0859 50.2916 26.1907C50.1868 26.3104 50.3365 26.3179 50.2916 26.3928C50.2467 26.4676 50.3365 26.4676 50.3515 26.3928C50.3665 26.3179 50.3515 26.3928 50.4039 26.3928C50.4563 26.3928 50.5311 26.2805 50.5386 26.273C50.576 26.2281 50.7631 26.3254 50.8305 26.273L50.9128 26.2057C50.9652 26.2057 51.0251 26.1158 51.0924 26.2057H51.2196L51.4292 26.1682H51.5265C51.4816 26.2206 51.4592 26.2805 51.3843 26.303C51.3095 26.3254 51.1972 26.5649 51.1747 26.6023C51.1523 26.6397 51.0475 26.7969 51.025 26.8493C51.0026 26.9017 51.025 26.9241 51.025 27.0139V27.1786L51.1074 27.2385C51.1074 27.2385 51.1074 27.1861 51.1673 27.2011L51.2271 27.1187C51.2271 27.0813 51.2271 27.1187 51.2271 27.0813C51.2271 27.0439 51.2795 26.9915 51.2271 26.9541L51.3843 26.7146C51.4292 26.7595 51.4891 26.7595 51.4966 26.7146C51.5862 26.6199 51.6438 26.4995 51.6612 26.3703H51.7136C51.7136 26.3703 51.7136 26.3703 51.7136 26.4227H51.751L51.8708 26.3703L51.9606 26.3179L52.0804 26.2356L52.1702 26.1308L52.2675 26.0709V26.0185C52.3573 26.0185 52.3722 25.9587 52.4546 26.0185C52.5369 26.0784 52.5519 26.0185 52.6043 26.0185C52.6567 26.0185 52.8438 26.056 52.9261 26.0185H53.0832C53.0832 26.0185 53.0832 26.0185 53.0832 25.9736H53.1431V25.9138C53.203 25.8539 53.1431 25.9138 53.1431 25.809L52.9336 25.6593C52.9336 25.6593 52.8886 25.6593 52.8587 25.6593H52.9036C52.9036 25.6593 52.9036 25.6593 52.9036 25.6219L53.0309 25.562C53.0309 25.562 53.1506 25.4872 53.1282 25.4348C53.1057 25.3824 53.3003 25.3001 53.2778 25.2402C53.2554 25.1803 53.3452 25.068 53.0758 25.0456C52.9073 25.0483 52.7434 25.1003 52.6043 25.1953C52.6043 25.1953 52.2151 25.4946 52.2001 25.5246C52.1851 25.5545 52.2001 25.5246 52.1477 25.562C52.0953 25.5994 52.0504 25.7267 51.6912 25.4497L51.6238 25.3824C51.6238 25.4348 51.6238 25.4572 51.6238 25.5171C51.6238 25.577 51.6238 25.6069 51.6912 25.7117L51.796 25.8389H51.3918L50.5835 25.7641Z" fill="white"/>
<path fill-rule="evenodd" clip-rule="evenodd" d="M56.2865 27.8821C56.4661 27.8821 56.1144 27.9645 56.2865 28.0992V28.1441C56.1743 28.1441 56.2865 28.2189 56.1443 28.189C56.0021 28.159 56.1443 28.189 56.1443 28.1516H55.9348C55.9348 28.1516 55.9348 28.1516 55.9348 28.189C55.9348 28.2264 55.9348 28.189 55.8824 28.189C55.83 28.189 55.8824 28.189 55.8225 28.1516H55.7551V28.0842C55.7925 28.0393 55.7551 27.9196 55.83 27.8896L55.8749 27.7848C55.9423 27.7399 55.9347 27.6801 55.9871 27.6576C56.0395 27.6352 56.1069 27.5977 56.1443 27.6576L56.2491 27.695C56.294 27.695 56.309 27.695 56.3464 27.7848M53.5323 29.1245L53.6071 29.3715L53.6969 29.596H53.6071L53.4125 29.3865C53.4125 29.3865 53.3452 29.2592 53.3452 29.0647V28.8326C53.3452 28.8326 53.3452 28.7802 53.3452 28.7653C53.3385 28.7752 53.3348 28.7869 53.3348 28.799C53.3348 28.811 53.3385 28.8227 53.3452 28.8326C53.1731 28.9149 53.2554 28.9748 53.1955 29.0272L53.1207 29.1919C53.1207 29.2892 53.0533 29.1919 53.1207 29.5212C53.1207 29.6035 53.1731 29.5885 53.1207 29.6559C53.1207 29.843 53.2554 29.7607 53.3751 29.8879L53.4949 30.0226C53.4949 30.0226 53.4949 30.0226 53.4949 30.0601C53.4949 30.0975 53.6072 30.1424 53.7643 30.0601C53.9215 29.9777 53.8466 30.1124 53.9739 29.9927C53.9739 30.0526 54.1011 30.1873 54.1685 30.1948L54.2957 30.2996C54.2957 30.2996 54.2957 30.2996 54.3406 30.2996H54.4304C54.4304 30.2996 54.4304 30.2621 54.4304 30.2247C54.4304 30.1873 54.2284 29.7981 54.1909 29.6783L54.4155 29.349C54.4903 29.349 54.5801 29.3116 54.6624 29.349C54.7448 29.3865 54.872 29.3491 54.9543 29.4613L55.0816 29.5212C55.0816 29.5212 55.1489 29.5212 55.134 29.5212C55.134 29.5212 55.1339 29.5212 55.2013 29.5212C55.2013 29.5212 55.2013 29.5212 55.2013 29.4164C55.2013 29.3116 55.2013 29.4164 55.2013 29.4688V29.5062C55.2612 29.5062 55.2537 29.5586 55.2836 29.5511C55.3135 29.5436 55.2313 29.5511 55.4184 29.6709C55.4857 29.6709 55.4782 29.7083 55.5381 29.7158H55.598L55.6578 29.7607C55.6578 29.7607 55.6579 29.8355 55.7477 29.8355L55.8449 29.9702L55.9797 30.1124L56.0844 30.2097H56.1219C56.1967 30.2696 56.2416 30.2097 56.3164 30.2097C56.279 30.1574 56.4736 30.0226 56.3913 29.8954C56.4437 29.8954 56.3015 29.5661 56.279 29.5287L56.032 29.2518L55.8898 29.0197C55.8449 28.9524 55.8899 28.9374 55.9572 28.9748C56.0246 29.0122 55.9572 28.9748 56.062 29.0123C56.2013 29.0762 56.3203 29.1772 56.4062 29.3041C56.4062 29.3041 56.4587 29.3041 56.4661 29.3041L56.526 29.3565L56.7281 29.4389C56.7657 29.4391 56.8027 29.4296 56.8355 29.4112C56.8683 29.3928 56.8958 29.3662 56.9152 29.3341C56.9152 29.2892 56.9975 29.2368 56.9975 29.1619L56.8778 28.9075C56.8778 28.9075 56.8778 28.9075 56.8778 28.8626C56.7281 28.8626 56.6158 28.6605 56.5335 28.5407C56.4512 28.421 56.5335 28.3312 56.5335 28.2414C56.4805 28.2652 56.4327 28.2993 56.3929 28.3417C56.3531 28.3841 56.322 28.4339 56.3015 28.4883V28.6904H56.0844L55.6728 28.4734L55.4558 28.3387C55.3585 28.2713 55.2462 28.2488 55.2462 28.2039L55.1115 28.1516V27.9944L55.0666 27.9196C54.9992 27.9196 54.8495 27.7025 54.7972 27.7549L54.6624 27.6576L54.4679 27.6127C54.4005 27.6127 54.2508 27.5753 54.1909 27.6127C54.1909 27.6127 54.0637 27.6127 53.9814 27.6127L53.7942 27.7624C53.7194 27.7624 53.7568 27.8971 53.6969 27.9645C53.6371 28.0318 53.697 28.0318 53.7493 28.0692H53.899C53.899 28.0094 54.0487 27.9944 54.0263 27.9345L54.3331 28.0767L54.408 28.1216L54.5726 28.189C54.6175 28.3087 54.9019 28.4434 54.9843 28.5407L55.0591 28.5782L55.4633 28.8701L55.6204 29.0197L55.8375 29.3341V29.3865C55.7926 29.3865 55.8375 29.3865 55.7776 29.3865H55.7327C55.7327 29.3865 55.7327 29.3865 55.6878 29.3865H55.6429C55.598 29.3865 55.583 29.3416 55.4483 29.2892H55.3884C55.3061 29.1919 55.2911 29.2892 55.2836 29.1844L54.8346 28.9599C54.7822 28.9599 54.6325 28.7728 54.6325 28.7728H54.5951V29.0123C54.5352 29.0572 54.5951 29.1544 54.6325 29.2068H54.5951C54.5502 29.1544 54.2059 29.2517 54.1385 29.349L53.9963 29.596C53.8144 29.3795 53.6862 29.1231 53.6221 28.8476C53.6221 28.8102 53.6221 28.8476 53.6221 28.7952H53.5697C53.5406 28.8443 53.5222 28.8991 53.5157 28.9558C53.5093 29.0126 53.5149 29.0701 53.5323 29.1245Z" fill="white"/>
<path fill-rule="evenodd" clip-rule="evenodd" d="M57.0274 34.7527C57.0274 34.7976 57.0274 34.82 56.975 34.7976C56.9226 34.7751 56.9751 34.7976 56.9152 34.7976H56.8179C56.743 34.7976 56.7131 34.835 56.6457 34.8425C56.6457 34.8425 56.6457 34.8799 56.5933 34.8425C56.5409 34.8051 56.5933 34.8425 56.511 34.8425L56.1069 34.9697H55.9123C55.9123 34.9248 55.8374 34.9697 55.7851 34.85L55.7327 34.7153L55.6578 34.573H55.6204V34.5207L55.5231 34.1315L55.6054 33.8097C55.6054 33.7198 55.7027 33.6974 55.7476 33.63L56.0021 33.4429C56.047 33.4429 56.1518 33.3456 56.2042 33.3905C56.2011 33.4079 56.2011 33.4256 56.2042 33.4429C56.1518 33.4953 56.1667 33.63 56.0844 33.6525C56.0021 33.6749 55.8973 33.8321 55.8524 33.877C55.6802 34.0492 55.8524 34.3111 55.9048 34.4832C55.9176 34.5133 55.9399 34.5384 55.9683 34.5546C55.9967 34.5708 56.0296 34.5773 56.062 34.573C56.062 34.6105 56.062 34.573 56.1069 34.618C56.1394 34.6015 56.1753 34.5929 56.2117 34.5929C56.2481 34.5929 56.2839 34.6015 56.3164 34.618C56.3316 34.6107 56.3482 34.6069 56.3651 34.6069C56.3819 34.6069 56.3985 34.6107 56.4137 34.618L57.0274 34.7527ZM58.9434 32.6571C58.8985 32.6571 58.9434 32.5523 58.8611 32.5373C58.7787 32.5224 58.8611 32.5373 58.8611 32.5747C58.8611 32.6122 58.8087 32.6271 58.8611 32.6945L58.7488 32.7544C58.7488 32.7544 58.6141 32.6496 58.5917 32.7544V32.8891C58.5093 32.8891 58.5318 33.0463 58.4944 33.1061C58.4569 33.166 58.4944 33.1061 58.4944 33.1585V33.2184H58.8461C58.8835 33.2184 58.8461 33.2184 58.891 33.2184H58.906C58.906 33.2184 58.9883 33.1361 59.0407 33.1211C59.0407 32.949 59.1006 33.0088 58.9734 32.6945C58.906 32.672 58.9434 32.672 58.9434 32.6571ZM56.9301 31.7215C56.9975 31.6841 56.9301 31.6841 57.0648 31.7215H57.3193L57.4914 31.6617C57.4914 31.6617 57.4914 31.6617 57.5363 31.6617L57.8058 31.5793C57.8582 31.512 57.7609 31.3099 57.8731 31.3249L57.963 31.5195C58.0079 31.5195 57.963 31.6542 58.0378 31.6467V31.9161L57.9779 32.1257C57.933 32.1931 57.8806 32.1631 57.8432 32.223C57.8058 32.2829 57.701 32.1856 57.5813 32.1781H57.5363C57.3418 32.1332 57.4316 32.1781 57.2894 32.1781H57.2445C57.2445 32.1781 57.2445 32.1781 57.1846 32.1781C57.1247 32.1781 56.9825 32.1781 56.8852 32.1781C56.7879 32.1781 56.8478 32.0509 56.8852 32.0284C56.9226 32.0059 56.8852 31.991 56.8852 31.9461V31.7664L56.9301 31.7215ZM58.3372 33.9668C58.2025 34.0192 57.8582 33.7273 57.7085 33.6226C57.5588 33.5178 57.6561 33.6225 57.5738 33.4429L57.4765 33.181L57.5289 33.1361L57.8507 33.3606C57.8956 33.3606 58.0378 33.4803 58.0752 33.4429C58.1127 33.4055 58.0752 33.4429 58.0752 33.4804L58.0378 33.3831C57.9705 33.2858 58.0378 33.383 58.0378 33.3082C58.0378 33.2334 58.0378 33.3082 57.9929 33.3082C57.948 33.3082 57.9929 33.2558 57.8357 33.2034C57.7674 33.1864 57.7068 33.1468 57.6636 33.0912C57.6112 33.0537 57.5364 33.0463 57.5214 32.9789C57.5064 32.9115 57.484 32.9115 57.4316 32.934L57.4091 32.8666C57.4091 32.8666 57.4091 32.8666 57.3417 32.8666C57.3378 32.8585 57.3357 32.8495 57.3357 32.8404C57.3357 32.8314 57.3378 32.8224 57.3417 32.8142H57.3043C57.3043 32.8142 57.3043 32.7544 57.3043 32.7244C57.3043 32.6945 57.3942 32.5897 57.4016 32.5523H57.4091C57.4091 32.4999 57.469 32.5149 57.4989 32.4924C57.5289 32.47 57.6262 32.4325 57.6486 32.4924H57.7684C57.7684 32.5448 57.7684 32.5373 57.8133 32.4924C57.8582 32.4475 57.9929 32.4924 58.0378 32.4924C58.0827 32.4924 57.9779 32.5598 57.9854 32.6271L57.9031 32.7319L58.0677 32.8966C58.0677 32.8966 58.0678 32.8966 58.1201 32.8966L58.2923 33.1211C58.3999 33.2612 58.4974 33.4088 58.5842 33.5627C58.6112 33.6174 58.6253 33.6775 58.6253 33.7386C58.6253 33.7996 58.6112 33.8597 58.5842 33.9144H58.4495L58.3372 33.9668ZM54.7672 31.991C54.7672 32.0583 54.6699 32.1481 54.7672 32.1556C54.8645 32.1631 54.8121 32.1556 54.8196 32.1556H55.0142C55.0142 32.1556 55.0815 32.1556 55.1339 32.1556L55.2088 32.0808C55.2537 32.1556 55.3659 32.0808 55.4258 32.0808L55.6054 31.9536C55.6054 31.9536 55.6653 31.9536 55.7252 31.8937C55.785 31.8338 55.7252 31.8937 55.7851 31.8937H56.1518L56.2042 31.9386C56.2865 31.8937 56.3464 31.976 56.3988 31.9386C56.4512 31.9012 56.6382 31.8638 56.6532 31.8488L56.7505 31.6691C56.7954 31.6691 56.7505 31.6018 56.8478 31.512C56.9451 31.4222 56.7954 31.4297 56.7281 31.4446C56.7103 31.4522 56.6912 31.4562 56.6719 31.4562C56.6526 31.4562 56.6335 31.4522 56.6158 31.4446H56.1967L55.8599 31.5195H55.6728C55.6628 31.5262 55.6511 31.5298 55.6391 31.5298C55.6271 31.5298 55.6154 31.5262 55.6054 31.5195L55.2611 31.5793L55.1788 31.5419H55.1264C55.1264 31.6018 54.9692 31.6991 54.9543 31.7215C54.9458 31.7476 54.93 31.7706 54.9088 31.7878C54.8875 31.8051 54.8617 31.8159 54.8345 31.8188C54.8155 31.8873 54.793 31.9547 54.7672 32.0209V31.991ZM56.264 33.4354L56.541 33.5926L56.7505 33.7797C56.8029 33.7797 57.0424 33.9968 57.1097 33.9818C57.1771 33.9668 57.1097 33.9818 57.1097 34.0417C57.1097 34.1015 57.1621 34.1015 57.2145 34.0417H57.2819C57.3867 34.0417 57.3418 33.8845 57.3343 33.8022C57.3268 33.7198 57.2819 33.7647 57.2968 33.6974C57.1247 33.4953 57.0125 33.3531 56.8403 33.1286L57.0349 33.2109C57.0349 33.2558 57.0349 33.2109 57.0798 33.2558C57.1247 33.3007 57.0798 33.3157 57.1172 33.3456C57.1547 33.3756 57.1172 33.3456 57.1846 33.3456C57.252 33.3456 57.1846 33.3456 57.1846 33.398C57.3193 33.3232 57.222 33.1436 57.2445 33.0088L57.1995 32.934L57.1397 32.9864H56.9152C56.8703 32.9041 56.8104 32.9415 56.7505 32.8816H56.6906C56.5709 32.8816 56.496 32.949 56.4137 32.9939C56.3613 32.9939 56.3688 33.0538 56.309 32.9939L56.1817 32.934L56.0994 32.8666C55.9871 32.8217 55.9572 32.7544 55.8 32.702C55.6428 32.6496 55.8 32.6571 55.568 32.5897C55.568 32.5897 55.568 32.5897 55.5231 32.5897C55.4782 32.5897 55.5231 32.5897 55.4782 32.5897L55.2462 32.5224C55.2462 32.5224 55.0441 32.5224 55.0216 32.6122C54.9992 32.702 55.074 32.7095 55.1564 32.8217L55.4483 32.9939C55.5199 33.05 55.6051 33.0861 55.6952 33.0986H55.815L55.9422 33.2483C56.0919 33.3232 56.2041 33.4205 56.264 33.4654V33.4354Z" fill="white"/>
<path fill-rule="evenodd" clip-rule="evenodd" d="M33.6092 22.5234C33.437 22.4485 33.6092 22.2614 33.6616 22.2315C33.714 22.2016 34.0882 22.0669 34.0732 22.1417H34.2079C34.2125 22.1538 34.2125 22.1671 34.2079 22.1791C34.3052 22.1791 34.2828 22.3438 34.2678 22.3887C34.2528 22.4336 34.3052 22.4485 34.2678 22.471L34.1031 22.5234C34.1031 22.6357 33.9759 22.6581 33.8786 22.6806C33.7813 22.703 33.7214 22.5982 33.699 22.456H33.6466M34.7842 25.113H34.874L34.9489 24.9782C35.0237 24.9333 34.9489 24.7537 35.0536 24.7163L35.1285 24.5816C35.1285 24.5441 35.1959 24.5292 35.2108 24.4918L35.2482 24.4244V24.372C35.2482 24.372 35.2482 24.372 35.2931 24.372C35.3381 24.372 35.3455 24.372 35.2931 24.2747L35.3381 24.2073C35.4428 24.1026 35.3979 24.0352 35.3979 24.0277C35.3979 24.0202 35.4728 24.0277 35.4428 23.9454C35.4129 23.8631 35.5401 23.7882 35.5027 23.7508C35.4653 23.7134 35.5476 23.6236 35.5027 23.6236V23.5712C35.585 23.5712 35.585 23.4814 35.6749 23.4515V23.3092C35.6 23.182 35.3905 23.1521 35.2557 23.1371C35.121 23.1221 35.0611 23.0697 35.0536 23.1371L34.8516 23.1895C34.8516 23.2643 34.8142 23.2868 34.7393 23.3092C34.6645 23.3317 34.41 23.5413 34.3726 23.3991L34.2453 23.3018C34.3127 23.2569 34.3127 23.1521 34.4025 23.1296L34.4848 23.0697C34.4848 23.0323 34.5672 23.0697 34.6046 23.0697C34.642 23.0697 34.6046 23.0697 34.6719 23.0697H34.7767C34.7767 23.0099 34.9339 22.95 34.9563 22.9051C34.9788 22.8602 34.9563 22.8303 35.0536 22.7928C35.1509 22.7554 35.0536 22.7928 35.0985 22.7329C35.1435 22.6731 35.0985 22.5833 35.2183 22.5533C35.2183 22.486 35.2183 22.4785 35.3156 22.4635L35.4204 22.3288C35.4204 22.2764 35.4204 22.3288 35.4204 22.2689C35.4204 22.2091 35.2332 22.1192 34.9863 22.3363C34.9863 22.3363 34.9863 22.3363 34.9189 22.3812L34.5821 22.718C34.5297 22.8003 34.3501 22.8153 34.3276 22.8452L34.2603 22.8976V22.965C34.062 23.1431 33.8745 23.3331 33.699 23.5338C33.646 23.561 33.5993 23.5991 33.5619 23.6455C33.5245 23.6919 33.4973 23.7456 33.482 23.8032L33.3323 23.9155L33.2425 24.0053C33.1976 24.0652 33.0853 24.0801 33.0628 24.0053L33.003 24.1175L33.1527 24.3046C33.3173 24.3046 33.3248 24.2148 33.452 24.2073C33.5717 24.1699 33.6017 24.0652 33.699 24.0277C33.7963 23.9903 33.7663 23.9529 33.7888 23.9155L33.8562 23.8331L33.8038 24.2523L33.7214 24.5591V24.836C33.7214 24.9633 33.6316 24.9408 33.7214 25.2102C33.8112 25.4797 33.8487 25.3375 33.946 25.3225C34.0433 25.3075 34.0133 25.1504 33.9983 25.0007H34.0433L34.163 24.9633L34.2678 25.113C34.2678 25.113 34.2678 25.113 34.3202 25.113C34.4774 25.113 34.4474 25.2177 34.5522 25.1878L34.642 25.2551C34.642 25.315 34.7094 25.3 34.7393 25.2551C34.7693 25.2102 34.7917 25.2552 34.7468 25.1803L34.7842 25.113ZM34.7019 23.7209C34.657 23.7209 34.7019 23.9155 34.657 23.9828C34.7168 24.0652 34.5746 24.3047 34.5671 24.3645L34.4549 24.6265H34.2079C34.1256 24.6265 34.1106 24.6265 34.0358 24.6265C33.961 24.6265 34.0358 24.6265 34.0358 24.5891C34.0358 24.5516 33.9385 24.5441 33.931 24.4918C33.9748 24.4848 34.0176 24.4722 34.0582 24.4543V24.2672C34.1106 24.2672 34.1031 24.0876 34.0582 24.0801V23.9903L34.2079 23.8855C34.3501 23.8855 34.3501 23.7433 34.3726 23.7358C34.395 23.7283 34.4325 23.7358 34.4474 23.7358L34.657 23.6386L34.7019 23.7209Z" fill="white"/>
<path fill-rule="evenodd" clip-rule="evenodd" d="M22.3528 39.5501L24.7179 40.2461L24.6655 39.4453L25.0921 39.4229L25.1744 40.7102L24.8152 40.7326L22.4052 40.0216L22.4651 40.8823L22.0385 40.9122L21.9562 39.58L22.3528 39.5501Z" fill="white"/>
<path fill-rule="evenodd" clip-rule="evenodd" d="M25.2118 41.0544L25.2867 41.496L23.962 41.728L24.0593 42.2744L25.384 42.0424L25.4588 42.4839L22.3678 43.0303L22.293 42.5812L23.6701 42.3417L23.5728 41.7954L22.1957 42.0349L22.1208 41.5933L25.2118 41.0544Z" fill="white"/>
<path fill-rule="evenodd" clip-rule="evenodd" d="M25.5786 42.9554L25.9603 44.2427L25.5561 44.3625L25.3016 43.5018L24.4185 43.7712L24.6355 44.5122L24.2314 44.6319L24.0143 43.891L23.1312 44.1529L23.3857 45.0061L22.9516 45.1334L22.5699 43.8461L25.5786 42.9554Z" fill="white"/>
<path fill-rule="evenodd" clip-rule="evenodd" d="M24.2688 46.4581C24.176 46.4958 24.0771 46.5161 23.977 46.5179C23.8799 46.5257 23.7825 46.5103 23.6926 46.473C23.6019 46.4351 23.5183 46.382 23.4456 46.3159C23.3673 46.2369 23.3061 46.1426 23.2659 46.039C23.2155 45.9237 23.1998 45.7962 23.221 45.6722C23.2364 45.5743 23.264 45.4788 23.3034 45.3878L23.7 45.6124C23.6915 45.6569 23.6915 45.7026 23.7 45.7471C23.689 45.7913 23.689 45.8376 23.7 45.8818L23.7524 45.9641C23.7776 45.9923 23.8081 46.0152 23.8422 46.0315C23.8868 46.04 23.9325 46.04 23.977 46.0315C24.0441 46.0293 24.1102 46.0141 24.1716 45.9866L26.327 45.0959L26.4992 45.5151L24.2688 46.4581Z" fill="white"/>
<path d="M26.7206 46.0526L23.9277 47.4787L24.1319 47.8786L26.9248 46.4525L26.7206 46.0526Z" fill="white"/>
<path fill-rule="evenodd" clip-rule="evenodd" d="M26.7686 47.9549L25.6833 48.374L25.9228 48.7558L26.7686 47.9549ZM27.4347 47.3113L27.6367 47.6256L25.354 49.8709L25.1145 49.4967L25.616 49.0252L25.2867 48.5013L24.643 48.7558L24.4035 48.374L27.4347 47.3113Z" fill="white"/>
<path fill-rule="evenodd" clip-rule="evenodd" d="M28.1681 48.4264L28.4375 48.7632L27.3972 50.4846L27.4047 50.4921L28.8716 49.2946L29.156 49.6464L26.7237 51.6297L26.4542 51.3004L27.487 49.5715L27.4796 49.564L26.0126 50.754L25.7282 50.4098L28.1681 48.4264Z" fill="white"/>
<path fill-rule="evenodd" clip-rule="evenodd" d="M28.9689 50.4921C29.0452 50.4069 29.1399 50.3404 29.2458 50.2975C29.339 50.262 29.438 50.2443 29.5377 50.2451C29.6335 50.2496 29.7275 50.2725 29.8146 50.3125C29.8965 50.3509 29.9722 50.4013 30.0392 50.4622C30.1063 50.5272 30.162 50.6031 30.2038 50.6867C30.2478 50.7701 30.2733 50.862 30.2787 50.9561C30.2856 51.0639 30.269 51.1718 30.2303 51.2726C30.1915 51.3734 30.1315 51.4646 30.0541 51.5399L29.9419 51.6522L29.62 51.3453L29.7323 51.2256C29.7648 51.1966 29.7904 51.1607 29.8072 51.1206C29.8241 51.0804 29.8317 51.037 29.8296 50.9935C29.8242 50.9141 29.7896 50.8394 29.7323 50.784C29.6744 50.7316 29.6006 50.7 29.5227 50.6942C29.4782 50.6944 29.4342 50.7046 29.3941 50.7241C29.3539 50.7435 29.3186 50.7716 29.2907 50.8064L28.1457 52.0039C28.1122 52.0325 28.0855 52.0681 28.0674 52.1082C28.0493 52.1483 28.0402 52.1919 28.0409 52.2359C28.0489 52.3163 28.0862 52.3909 28.1457 52.4455C28.2016 52.4964 28.2724 52.5279 28.3477 52.5353C28.3926 52.5368 28.4372 52.5274 28.4776 52.5078C28.518 52.4882 28.553 52.4592 28.5797 52.423L28.9914 51.9964L28.7369 51.7495L29.0063 51.4651L29.5901 52.0189L28.909 52.7673C28.8287 52.8512 28.7319 52.9174 28.6246 52.9619C28.5324 53.0008 28.4328 53.0187 28.3328 53.0143C28.2393 53.0106 28.1475 52.9877 28.0633 52.9469C27.9781 52.9105 27.8997 52.8599 27.8313 52.7973C27.7628 52.7334 27.707 52.6572 27.6667 52.5727C27.6261 52.488 27.6007 52.3968 27.5918 52.3033C27.5847 52.2039 27.6001 52.1041 27.6367 52.0114C27.6732 51.9015 27.7347 51.8016 27.8164 51.7195L28.9689 50.4921Z" fill="white"/>
<path fill-rule="evenodd" clip-rule="evenodd" d="M30.5032 54.3839L30.6754 54.4962C30.7126 54.5292 30.757 54.5532 30.805 54.5662C30.8531 54.5791 30.9035 54.5808 30.9523 54.571C31.0486 54.5256 31.1294 54.4527 31.1843 54.3615L32.015 53.1041C32.0749 53.0211 32.1088 52.9221 32.1123 52.8197C32.1037 52.7703 32.0837 52.7236 32.0538 52.6833C32.0239 52.643 31.985 52.6103 31.9402 52.5877L31.768 52.4754L30.5032 54.3839ZM31.6258 51.8692L32.1797 52.2359C32.2728 52.2898 32.354 52.362 32.4183 52.4482C32.4826 52.5344 32.5288 52.6328 32.5539 52.7374C32.5793 52.9554 32.5204 53.175 32.3892 53.3511L31.5809 54.571C31.4635 54.7762 31.2699 54.9268 31.0421 54.9901C30.9316 55.0059 30.8191 54.9995 30.7111 54.9712C30.6032 54.9429 30.5019 54.8934 30.4134 54.8255L29.8895 54.4812L31.6258 51.8692Z" fill="white"/>
<path fill-rule="evenodd" clip-rule="evenodd" d="M32.5539 55.2446C32.5361 55.2847 32.527 55.328 32.527 55.3718C32.527 55.4157 32.5361 55.459 32.5539 55.499C32.5673 55.5358 32.5882 55.5695 32.6153 55.5978C32.6423 55.6261 32.6749 55.6486 32.7111 55.6637C32.7467 55.685 32.7865 55.6983 32.8278 55.7026C32.8691 55.7069 32.9108 55.7021 32.95 55.6885C32.9892 55.675 33.025 55.653 33.0549 55.6241C33.0847 55.5953 33.1078 55.5602 33.1227 55.5215L33.8711 54.0246C33.8909 53.9851 33.9012 53.9416 33.9012 53.8974C33.9012 53.8533 33.8909 53.8097 33.8711 53.7702C33.8394 53.6987 33.7839 53.6405 33.714 53.6055C33.642 53.5764 33.5614 53.5764 33.4894 53.6055C33.4459 53.6172 33.4057 53.6389 33.3719 53.6688C33.3382 53.6986 33.3118 53.7359 33.2949 53.7777L32.5539 55.2446ZM32.8982 53.5606C32.9463 53.4559 33.0181 53.3637 33.1077 53.2912C33.1832 53.2262 33.2729 53.18 33.3697 53.1565C33.4614 53.1417 33.5549 53.1417 33.6466 53.1565C33.7405 53.1679 33.8317 53.1958 33.916 53.2388C33.9978 53.28 34.0714 53.3358 34.1331 53.4035C34.1996 53.4702 34.2529 53.5489 34.2902 53.6355C34.3244 53.7288 34.3397 53.8281 34.3351 53.9274C34.3263 54.0418 34.2959 54.1536 34.2453 54.2567L33.4969 55.7535C33.4457 55.8564 33.3745 55.948 33.2874 56.023C33.2111 56.0866 33.1216 56.1326 33.0254 56.1577C32.9312 56.1725 32.8352 56.1725 32.741 56.1577C32.6497 56.1451 32.5611 56.1173 32.4791 56.0754C32.395 56.0343 32.319 55.9785 32.2545 55.9107C32.1936 55.8411 32.1432 55.7629 32.1048 55.6787C32.0681 55.5859 32.0503 55.4866 32.0524 55.3868C32.0622 55.2692 32.0953 55.1547 32.1497 55.05L32.8982 53.5606Z" fill="white"/>
<path fill-rule="evenodd" clip-rule="evenodd" d="M34.9713 53.7403L35.3755 53.8899L35.3904 55.8957L35.3979 55.9032L36.0266 54.1145L36.4532 54.2642L35.4054 57.2279L35.0087 57.0857L34.9863 55.0799L34.9788 55.0725L34.3501 56.8537L33.9235 56.704L34.9713 53.7403Z" fill="white"/>
<path fill-rule="evenodd" clip-rule="evenodd" d="M36.7002 55.1024C36.7266 54.9906 36.7722 54.8843 36.8349 54.7881C36.896 54.7089 36.9723 54.6427 37.0594 54.5935C37.2237 54.5032 37.4146 54.4741 37.5983 54.5112C37.6877 54.5337 37.7734 54.5689 37.8528 54.6159C37.9329 54.6688 38.0037 54.7345 38.0623 54.8105C38.1228 54.8897 38.1638 54.982 38.1821 55.08C38.2088 55.1932 38.2088 55.311 38.1821 55.4242V55.5814L37.748 55.4841V55.3269C37.7616 55.2845 37.7653 55.2395 37.7588 55.1954C37.7523 55.1513 37.7358 55.1092 37.7106 55.0725C37.6648 55.0111 37.5983 54.9685 37.5234 54.9527C37.4483 54.9265 37.3665 54.9265 37.2914 54.9527C37.2547 54.9771 37.2237 55.0091 37.2004 55.0466C37.1772 55.084 37.1623 55.126 37.1567 55.1698L36.8049 56.7864C36.7926 56.8257 36.7887 56.8672 36.7936 56.9082C36.7985 56.9491 36.812 56.9885 36.8332 57.0239C36.8544 57.0593 36.8828 57.0897 36.9167 57.1133C36.9505 57.1368 36.989 57.153 37.0295 57.1606C37.0651 57.1754 37.1032 57.183 37.1417 57.183C37.1803 57.183 37.2185 57.1754 37.254 57.1606C37.2927 57.1395 37.3258 57.1095 37.3505 57.073C37.3752 57.0366 37.3909 56.9947 37.3962 56.951L37.5234 56.3747L37.1717 56.2924L37.2615 55.9107L38.0474 56.0828L37.8378 57.0408C37.8126 57.1553 37.767 57.2644 37.7031 57.3627C37.642 57.4419 37.5656 57.508 37.4785 57.5572C37.3947 57.6027 37.3035 57.6331 37.2091 57.647C37.1199 57.6621 37.0289 57.6621 36.9397 57.647C36.8465 57.629 36.7576 57.5935 36.6777 57.5423C36.6016 57.4901 36.5336 57.427 36.4757 57.3552C36.4174 57.272 36.3766 57.1777 36.3559 57.0783C36.3303 56.9675 36.3303 56.8523 36.3559 56.7415L36.7002 55.1024Z" fill="white"/>
<path fill-rule="evenodd" clip-rule="evenodd" d="M38.7883 54.7656L40.1205 54.9003L40.0831 55.3194L39.1924 55.2296L39.1026 56.1801L39.8735 56.255L39.8286 56.6741L39.0577 56.5993L38.923 57.9315L38.474 57.8865L38.7883 54.7656Z" fill="white"/>
<path fill-rule="evenodd" clip-rule="evenodd" d="M40.9438 55.8059L40.7192 56.9435H41.1683L40.9438 55.8059ZM40.7567 54.9003H41.1309L41.8269 58.0362H41.3779L41.2431 57.3627H40.6294L40.4947 58.0362H40.0456L40.7567 54.9003Z" fill="white"/>
<path fill-rule="evenodd" clip-rule="evenodd" d="M42.1038 54.8854L42.5304 54.833L43.4285 56.6367H43.436L43.2115 54.7581L43.6605 54.7057L44.0273 57.8192L43.6082 57.8716L42.7026 56.0754H42.6951L42.9121 57.9539L42.4705 58.0063L42.1038 54.8854Z" fill="white"/>
<path fill-rule="evenodd" clip-rule="evenodd" d="M44.2518 55.3194C44.2296 55.2083 44.2296 55.0938 44.2518 54.9826C44.2702 54.8837 44.3084 54.7896 44.3641 54.7057C44.4198 54.6298 44.4882 54.564 44.5662 54.5112C44.7232 54.408 44.9103 54.3605 45.0975 54.3764C45.191 54.39 45.2818 54.4178 45.3669 54.4588C45.4604 54.5112 45.5415 54.5831 45.6048 54.6696C45.6681 54.7561 45.7121 54.8552 45.7337 54.9602V55.1174L45.2996 55.2221L45.2622 55.0725C45.2549 55.0274 45.2378 54.9846 45.2119 54.947C45.186 54.9095 45.152 54.8782 45.1125 54.8554C45.0426 54.8215 44.9629 54.8134 44.8875 54.8326C44.8122 54.8517 44.7461 54.8969 44.7009 54.9602C44.6817 54.9999 44.6717 55.0434 44.6717 55.0874C44.6717 55.1315 44.6817 55.175 44.7009 55.2147L45.0975 56.8238C45.1034 56.8673 45.1194 56.9089 45.144 56.9453C45.1687 56.9816 45.2014 57.0118 45.2397 57.0333C45.3124 57.059 45.3916 57.059 45.4642 57.0333C45.5406 57.0118 45.6085 56.9674 45.6588 56.9061C45.6761 56.8659 45.6851 56.8226 45.6851 56.7789C45.6851 56.7351 45.6761 56.6918 45.6588 56.6516L45.5166 56.0754L45.1649 56.1577L45.0751 55.776L45.8609 55.5814L46.0929 56.5394C46.1197 56.6526 46.1197 56.7705 46.0929 56.8837C46.0726 56.982 46.0345 57.0758 45.9807 57.1606C45.9262 57.2376 45.8576 57.3036 45.7786 57.3552C45.7031 57.4061 45.6196 57.4441 45.5316 57.4674C45.4403 57.4862 45.3461 57.4862 45.2547 57.4674C45.0613 57.4453 44.8841 57.3486 44.7607 57.198C44.6868 57.1064 44.6356 56.9987 44.6111 56.8837L44.2518 55.3194Z" fill="white"/>
<path fill-rule="evenodd" clip-rule="evenodd" d="M47.8817 54.9827L48.0763 54.8928C48.1441 54.8664 48.2054 54.8256 48.2559 54.7731C48.2862 54.7315 48.3044 54.6822 48.3083 54.6309C48.322 54.5743 48.322 54.5153 48.3083 54.4588C48.2847 54.3899 48.2572 54.3224 48.2259 54.2567L48.1361 54.0696C48.1093 54.0167 48.0738 53.9687 48.0313 53.9274C47.9898 53.8956 47.9409 53.875 47.8892 53.8675C47.819 53.8636 47.749 53.8791 47.6871 53.9124L47.47 54.0097L47.8817 54.9827ZM46.8563 53.8226L47.4775 53.5457C47.576 53.4971 47.6826 53.4667 47.7919 53.4559C47.8969 53.4483 48.0022 53.4662 48.0987 53.5083C48.2012 53.5533 48.2911 53.6227 48.3606 53.7103C48.4505 53.8308 48.5259 53.9614 48.5852 54.0995C48.6324 54.2065 48.6724 54.3165 48.7049 54.4288C48.7274 54.5274 48.7274 54.6297 48.7049 54.7282C48.6972 54.8425 48.6555 54.952 48.5852 55.0425C48.4949 55.1513 48.3792 55.2361 48.2484 55.2895L48.0388 55.3868L48.5403 56.502L48.1286 56.6891L46.8563 53.8226Z" fill="white"/>
<path fill-rule="evenodd" clip-rule="evenodd" d="M50.1344 54.8704C50.154 54.9102 50.1823 54.9451 50.2173 54.9723C50.2523 54.9996 50.2931 55.0184 50.3365 55.0275C50.3738 55.035 50.4123 55.0348 50.4496 55.0271C50.4869 55.0194 50.5222 55.0043 50.5536 54.9826C50.622 54.9444 50.6749 54.8836 50.7032 54.8105C50.7151 54.7707 50.7186 54.7288 50.7134 54.6876C50.7083 54.6464 50.6946 54.6067 50.6733 54.571L49.8276 53.149C49.8072 53.109 49.7788 53.0736 49.744 53.0453C49.7092 53.0169 49.6688 52.9962 49.6255 52.9844C49.5478 52.976 49.4694 52.9917 49.401 53.0293C49.3321 53.0685 49.2812 53.1329 49.2588 53.2089C49.245 53.2517 49.2419 53.2973 49.2497 53.3417C49.2575 53.386 49.2761 53.4278 49.3037 53.4633L50.1344 54.8704ZM48.892 53.6729C48.835 53.5762 48.7969 53.4695 48.7798 53.3586C48.7565 53.2601 48.7565 53.1576 48.7798 53.0592C48.8364 52.8786 48.9595 52.7261 49.124 52.6326C49.2006 52.5817 49.2876 52.5485 49.3785 52.5353C49.4725 52.5171 49.569 52.5171 49.6629 52.5353C49.7618 52.5578 49.8557 52.5984 49.9398 52.655C50.0313 52.7237 50.1077 52.8103 50.1644 52.9095L51.0176 54.3315C51.0789 54.4296 51.1196 54.539 51.1373 54.6533C51.1565 54.7497 51.1565 54.8489 51.1373 54.9452C51.1107 55.0363 51.0648 55.1205 51.0026 55.1922C50.9438 55.2659 50.8729 55.3292 50.793 55.3793C50.7134 55.4239 50.6277 55.4567 50.5386 55.4766C50.4444 55.4916 50.3484 55.4916 50.2542 55.4766C50.1574 55.4589 50.0655 55.4206 49.9848 55.3643C49.8891 55.2952 49.8098 55.2057 49.7527 55.1024L48.892 53.6729Z" fill="white"/>
<path fill-rule="evenodd" clip-rule="evenodd" d="M50.1868 52.0039L50.5386 51.727L52.1776 53.8675L52.8812 53.3211L53.1581 53.6804L52.0953 54.4962L50.1868 52.0039Z" fill="white"/>
<path fill-rule="evenodd" clip-rule="evenodd" d="M52.7614 52.2584L51.0849 51.3303L51.4367 51.0085L52.5444 51.6896L52.5519 51.6821L51.9756 50.5145L52.3273 50.2002L53.0907 51.9515L53.9814 52.932L53.652 53.2388L52.7614 52.2584Z" fill="white"/>
<path fill-rule="evenodd" clip-rule="evenodd" d="M53.0383 50.0356L52.6941 50.4247L52.3797 50.1403L53.3676 49.0327L53.682 49.3096L53.3377 49.6988L55.3659 51.51L55.0666 51.8393L53.0383 50.0356Z" fill="white"/>
<path fill-rule="evenodd" clip-rule="evenodd" d="M53.5323 48.8081L54.3181 47.7229L54.6624 47.9774L54.1385 48.6959L54.8869 49.2347L55.3435 48.6061L55.6878 48.853L55.2312 49.4817L55.9796 50.0281L56.4961 49.3021L56.8628 49.5715L56.0769 50.6567L53.5323 48.8081Z" fill="white"/>
<path fill-rule="evenodd" clip-rule="evenodd" d="M57.3343 47.3861C57.4174 47.4317 57.491 47.4927 57.5513 47.5658C57.6032 47.6417 57.6435 47.725 57.6711 47.8127C57.6894 47.9041 57.6894 47.9982 57.6711 48.0896C57.6629 48.1876 57.6322 48.2824 57.5812 48.3666C57.5406 48.4445 57.4875 48.5153 57.4241 48.5761C57.3614 48.6404 57.2844 48.6891 57.1995 48.7183C57.1114 48.7526 57.0171 48.7678 56.9226 48.7632C56.8006 48.7483 56.6833 48.7075 56.5784 48.6435L55.0815 47.7903C54.9956 47.7425 54.9195 47.679 54.857 47.6032C54.7988 47.5328 54.7555 47.4513 54.7297 47.3637C54.7112 47.2723 54.7112 47.1781 54.7297 47.0867C54.7416 46.9838 54.7747 46.8844 54.827 46.7949C54.8748 46.7111 54.9384 46.6374 55.0141 46.5778C55.0864 46.5181 55.1706 46.4747 55.2611 46.4506C55.3551 46.4324 55.4516 46.4324 55.5455 46.4506C55.6481 46.4686 55.7468 46.5041 55.8374 46.5554L55.9871 46.6377L55.7626 47.0344L55.6354 46.9595C55.5633 46.9167 55.4792 46.8983 55.3959 46.9071C55.3576 46.9144 55.3215 46.9303 55.2904 46.9536C55.2592 46.977 55.2339 47.0071 55.2162 47.0418C55.1927 47.0774 55.1802 47.119 55.1802 47.1616C55.1802 47.2042 55.1927 47.2458 55.2162 47.2813C55.269 47.3558 55.3382 47.4173 55.4183 47.461L56.8179 48.2543C56.8856 48.295 56.9634 48.3158 57.0424 48.3142C57.0829 48.3079 57.1213 48.2916 57.154 48.2667C57.1866 48.2419 57.2126 48.2094 57.2295 48.172C57.2348 48.1423 57.2348 48.1118 57.2295 48.0821C57.237 48.0476 57.237 48.0119 57.2295 47.9774C57.2228 47.938 57.2045 47.9016 57.1771 47.8726C57.1443 47.8303 57.1036 47.7948 57.0574 47.7678L56.9226 47.693L57.1397 47.3038L57.3343 47.3861Z" fill="white"/>
<path fill-rule="evenodd" clip-rule="evenodd" d="M55.3959 45.8069L55.5755 45.3953L56.8104 45.9117L57.0274 45.4028L55.7851 44.8789L55.9572 44.4673L58.8536 45.6797L58.6815 46.0913L57.3942 45.5525L57.1771 46.0689L58.4644 46.6078L58.2923 47.0194L55.3959 45.8069Z" fill="white"/>
<path fill-rule="evenodd" clip-rule="evenodd" d="M56.1144 44.0332L56.2266 43.6215L58.2324 43.4718V43.4644L56.4137 42.9554L56.5335 42.5213L59.5571 43.3671L59.4449 43.7712L57.4466 43.9284L57.4391 43.9359L59.2578 44.4448L59.138 44.8789L56.1144 44.0332Z" fill="white"/>
<path d="M56.731 41.6125L56.6523 42.0546L59.7397 42.6039L59.8184 42.1619L56.731 41.6125Z" fill="white"/>
<path fill-rule="evenodd" clip-rule="evenodd" d="M59.3326 39.8569C59.4291 39.8624 59.5234 39.8879 59.6095 39.9318C59.6912 39.9764 59.7645 40.0346 59.8265 40.1039C59.8871 40.1739 59.9329 40.2553 59.9613 40.3434C59.996 40.4339 60.0089 40.5314 59.9987 40.6278C59.9921 40.7145 59.9745 40.8 59.9463 40.8823C59.9168 40.9725 59.8661 41.0542 59.7983 41.1207C59.7306 41.1871 59.6479 41.2363 59.5571 41.264C59.4392 41.2932 59.3159 41.2932 59.1979 41.264L57.4765 41.1143C57.3777 41.1084 57.281 41.083 57.1921 41.0395C57.1099 40.9991 57.0381 40.9402 56.9825 40.8673C56.922 40.7974 56.8762 40.7159 56.8478 40.6278C56.8277 40.5291 56.8277 40.4272 56.8478 40.3285C56.8548 40.2289 56.8828 40.1319 56.9301 40.0441C56.9722 39.9608 57.0308 39.8869 57.1023 39.827C57.1771 39.7714 57.2605 39.7284 57.3493 39.6998C57.4507 39.6809 57.5547 39.6809 57.6561 39.6998H57.8358V40.1488H57.6861C57.6028 40.142 57.5194 40.1603 57.4466 40.2012C57.4142 40.2229 57.3873 40.2517 57.3678 40.2855C57.3483 40.3192 57.3369 40.357 57.3343 40.3958C57.3343 40.5081 57.3343 40.5904 57.4166 40.6278C57.4942 40.6741 57.5811 40.7023 57.6711 40.7102L59.2727 40.8449C59.352 40.8532 59.4321 40.8403 59.5047 40.8074C59.5401 40.7853 59.569 40.7543 59.5887 40.7176C59.6084 40.6808 59.6182 40.6396 59.617 40.5979C59.6204 40.5655 59.6204 40.5329 59.617 40.5006C59.6082 40.468 59.5929 40.4374 59.5721 40.4108C59.5518 40.3744 59.5203 40.3456 59.4823 40.3285L59.3326 40.291H59.1829L59.2203 39.842L59.3326 39.8569Z" fill="white"/>
<path fill-rule="evenodd" clip-rule="evenodd" d="M52.6267 43.0003H45.352C44.362 42.9328 43.3831 43.243 42.6127 43.8685C41.8711 44.6353 41.3535 45.5903 41.1159 46.6302C41.5507 46.0727 42.1345 45.6497 42.7998 45.4103H42.8672L43.1741 45.3279L43.5408 45.2755H49.9399C49.8359 45.4657 49.6879 45.6282 49.5082 45.7493C49.3285 45.8704 49.1223 45.9467 48.907 45.9716H44.2818C43.5543 45.9075 42.8269 46.0957 42.2218 46.5046C41.6167 46.9134 41.1707 47.518 40.9587 48.2169C40.7441 47.5182 40.2964 46.9142 39.6903 46.5056C39.0842 46.097 38.3564 45.9086 37.6282 45.9716H33.003C32.7877 45.9467 32.5815 45.8704 32.4018 45.7493C32.2221 45.6282 32.0741 45.4657 31.9701 45.2755H38.4216L38.7808 45.3279C38.8845 45.3499 38.9869 45.3774 39.0877 45.4103H39.155C39.8203 45.6497 40.4042 46.0727 40.839 46.6302C40.608 45.5878 40.0894 44.6311 39.3421 43.8685C38.5718 43.243 37.5929 42.9328 36.6029 43.0003H29.3357C28.9716 42.9339 28.6274 42.7855 28.3292 42.5663C28.0309 42.3472 27.7865 42.0631 27.6143 41.7355H36.8573C39.1775 41.7355 40.0606 43.0078 40.7641 44.0257L40.9662 44.3101L41.1608 44.0257C41.8718 43.0078 42.7475 41.7355 45.0676 41.7355H54.3406C54.1692 42.0622 53.9258 42.3457 53.629 42.5648C53.3321 42.7839 52.9894 42.9328 52.6267 43.0003ZM45.0975 41.2116C44.2822 41.1785 43.4727 41.3627 42.7521 41.7454C42.0314 42.1281 41.4254 42.6955 40.9962 43.3895C40.5646 42.696 39.957 42.1292 39.2353 41.7466C38.5136 41.3641 37.7035 41.1795 36.8873 41.2116H26.8359L26.9781 41.5709C27.1662 42.0795 27.4866 42.5287 27.9063 42.8721C28.326 43.2155 28.8298 43.4406 29.3656 43.5242H36.6328C37.2291 43.4603 37.8312 43.5671 38.3692 43.8321C38.9071 44.0971 39.3587 44.5094 39.6714 45.0211C39.1399 44.7749 38.558 44.657 37.9725 44.6768H31.2142L31.3564 45.0361C31.4774 45.4073 31.7026 45.736 32.0051 45.9828C32.3077 46.2296 32.6748 46.3842 33.0628 46.4281H37.6881C38.1661 46.3809 38.648 46.4638 39.0828 46.668C39.5176 46.8722 39.889 47.1902 40.1579 47.5882C40.5827 48.2328 40.8752 48.9552 41.0186 49.7137C41.1571 48.955 41.4473 48.2321 41.8718 47.5882C42.1412 47.1908 42.5128 46.8733 42.9474 46.6691C43.3821 46.465 43.8637 46.3817 44.3416 46.4281H48.9669C49.3513 46.3866 49.716 46.2364 50.0182 45.9952C50.3204 45.754 50.5476 45.4317 50.6733 45.066L50.8155 44.7068H44.0123C43.4268 44.687 42.8449 44.8049 42.3134 45.051C42.6274 44.5406 43.0793 44.1293 43.6169 43.8645C44.1545 43.5997 44.7559 43.4921 45.352 43.5542H52.6267C53.1611 43.4693 53.6634 43.2437 54.0817 42.9003C54.5 42.557 54.8192 42.1085 55.0067 41.6008L55.1489 41.2415L45.0975 41.2116Z" fill="white"/>
<path fill-rule="evenodd" clip-rule="evenodd" d="M40.9438 25.3375C44.6179 25.3375 48.1416 26.797 50.7396 29.395C53.3376 31.993 54.7971 35.5167 54.7971 39.1909C54.7971 39.4678 54.7971 39.7372 54.7971 40.0066H46.5644C46.5644 39.7372 46.5644 39.4678 46.5644 39.1909C46.5135 36.9434 45.6859 34.7829 44.2223 33.0766C42.7587 31.3703 40.7494 30.2235 38.5359 29.831C36.3223 29.4386 34.0412 29.8248 32.0802 30.9239C30.1192 32.0231 28.5993 33.7674 27.7789 35.8604C28.552 34.0362 29.9317 32.5353 31.6844 31.6117C33.4371 30.6881 35.4552 30.3986 37.3969 30.7922C39.3385 31.1859 41.0845 32.2384 42.3392 33.7716C43.5939 35.3049 44.2801 37.2246 44.2818 39.2058C44.2818 39.4827 44.2817 39.7522 44.2443 40.0216H38.7659C38.8047 39.7514 38.8246 39.4788 38.8257 39.2058C38.811 37.857 38.3278 36.5553 37.459 35.5236C36.5902 34.4918 35.3897 33.7942 34.0631 33.5501C32.7365 33.306 31.3664 33.5306 30.1872 34.1856C29.008 34.8405 28.0932 35.885 27.5993 37.1402C28.099 36.0794 28.9661 35.2357 30.0401 34.7651C31.114 34.2944 32.3221 34.2288 33.4407 34.5804C34.5593 34.9319 35.5127 35.6769 36.1243 36.6772C36.736 37.6776 36.9645 38.8657 36.7675 40.0216H32.9206C33.0392 39.621 33.0702 39.1997 33.0115 38.7861C32.9528 38.3725 32.8057 37.9763 32.5804 37.6246C32.355 37.2729 32.0566 36.9737 31.7054 36.7476C31.3542 36.5214 30.9584 36.3734 30.545 36.3137C30.1315 36.254 29.71 36.284 29.3092 36.4016C28.9084 36.5193 28.5375 36.7218 28.2219 36.9954C27.9062 37.2691 27.6532 37.6074 27.4799 37.9875C27.3066 38.3677 27.2171 38.7806 27.2176 39.1983C27.2222 39.4669 27.2625 39.7337 27.3374 39.9917H27.1652C27.1652 39.7372 27.1652 39.4752 27.1652 39.2432C27.1652 39.1684 27.1652 39.0936 27.1652 39.0187C27.2084 35.3868 28.6769 31.9173 31.2544 29.3581C33.8318 26.7988 37.3116 25.3549 40.9438 25.3375Z" fill="white"/>
</g>
<defs>
<filter id="filter0_d_150_2739" x="0" y="0" width="82" height="82" filterUnits="userSpaceOnUse" color-interpolation-filters="sRGB">
<feFlood flood-opacity="0" result="BackgroundImageFix"/>
<feColorMatrix in="SourceAlpha" type="matrix" values="0 0 0 0 0 0 0 0 0 0 0 0 0 0 0 0 0 0 127 0" result="hardAlpha"/>
<feMorphology radius="1" operator="dilate" in="SourceAlpha" result="effect1_dropShadow_150_2739"/>
<feOffset dy="2"/>
<feGaussianBlur stdDeviation="7.5"/>
<feComposite in2="hardAlpha" operator="out"/>
<feColorMatrix type="matrix" values="0 0 0 0 0.0941176 0 0 0 0 0.294118 0 0 0 0 0.541176 0 0 0 0.15 0"/>
<feBlend mode="normal" in2="BackgroundImageFix" result="effect1_dropShadow_150_2739"/>
<feBlend mode="normal" in="SourceGraphic" in2="effect1_dropShadow_150_2739" result="shape"/>
</filter>
<clipPath id="clip0_150_2739">
<rect width="44" height="44" fill="white" transform="translate(19 17)"/>
</clipPath>
</defs>
</svg>
